<?xml version="1.0" standalone="no"?>
<!DOCTYPE svg PUBLIC "-//W3C//DTD SVG 1.1//EN" "http://www.w3.org/Graphics/SVG/1.1/DTD/svg11.dtd" >
<svg xmlns="http://www.w3.org/2000/svg" xmlns:xlink="http://www.w3.org/1999/xlink" version="1.1">
<metadata>
Created by FontForge 20170731 at Wed Sep  2 23:33:46 2015
 By Aleksey,,,
Copyright (c) 2012 by Hannes von Doehren. All rights reserved.
</metadata>
<defs>
<font id="BrandonText-Light" horiz-adv-x="1228" >
  <font-face 
    font-family="BrandonText-Light"
    font-weight="330"
    font-stretch="normal"
    units-per-em="2048"
    panose-1="2 11 3 3 2 2 3 6 2 3"
    ascent="1434"
    descent="-614"
    x-height="946"
    cap-height="1434"
    bbox="-309.891 -541.545 2427 2103.8"
    underline-thickness="102"
    underline-position="-408"
    unicode-range="U+000D-FB02"
  />
<missing-glyph horiz-adv-x="1226" 
d="M502 319q0 -41 30 -69t69 -29q40 0 70 29q29 30 29 70t-29 69q-30 29 -70 29q-39 0 -69 -29t-30 -70zM537 643q0 -25 28 -25h74q31 0 31 27v53q0 57 107 124q40 26 74 75t34 109q0 98 -73 162t-193 65q-120 0 -213 -80q-22 -18 -41 -44t-3 -38l46 -45q24 -18 70 33
q45 51 120 51q74 0 108 -31t34 -75t-32 -80q-32 -37 -70 -62q-38 -24 -70 -66t-31 -94v-59zM102 61v1311q0 61 62 62h899q61 0 61 -62v-1311q0 -61 -61 -61h-899q-62 0 -62 61z" />
    <glyph glyph-name="fi" unicode="fi" horiz-adv-x="1153" 
d="M238 31v827h-160q-33 0 -33 37v20q0 11 9 21t24 10h160v127q0 173 92 277t258 104q102 0 192 -37t131 -74q18 -18 2 -36l-22 -31q-12 -16 -37 -2q-137 92 -264 92t-195 -75t-67 -218v-127h628q29 0 29 -31v-884q0 -31 -31 -31h-28q-31 0 -31 31v827h-567v-827
q0 -31 -29 -31h-39q-22 0 -22 31z" />
    <glyph glyph-name="fl" unicode="fl" horiz-adv-x="1206" 
d="M240 31v827h-162q-14 0 -24 9q-9 9 -9 22v26q0 11 10 21t23 10h162v111q0 195 99 296t261 101q82 0 180 -33t160 -90l10 74q4 29 31 29h12q29 0 29 -29v-1374q0 -31 -33 -31h-24q-14 0 -24 9q-9 9 -9 22v1188q-22 25 -54 51t-111 62q-79 34 -161 34q-120 0 -198 -74
t-78 -229v-117h334q33 0 32 -28v-33q0 -27 -32 -27h-334v-827q0 -11 -9 -21t-24 -10h-29q-28 0 -28 31z" />
    <glyph glyph-name="f_f" unicode="ff" horiz-adv-x="1409" 
d="M979 1077v-131h356q31 0 31 -28v-33q0 -27 -31 -27h-356v-827q0 -31 -33 -31h-26q-10 0 -21 9q-10 9 -10 22v827h-567v-827q0 -31 -33 -31h-29q-10 0 -19 9t-10 22v827h-151q-31 0 -31 31v26q0 11 9 21t22 10h151v64q-1 204 101 314t289 110q102 0 191 -35t132 -72
q80 127 254 127q84 0 157 -31t100 -63t13 -45l-20 -25q-16 -20 -41 -2q-100 78 -209 78q-219 0 -219 -289zM322 946h567v123q0 119 18 174q-31 35 -115 69t-171 34q-156 0 -228 -84t-71 -254v-62z" />
    <glyph glyph-name="f_f_i" unicode="ffi" horiz-adv-x="1804" 
d="M979 858v-827q0 -31 -33 -31h-26q-10 0 -21 9q-10 9 -10 22v827h-567v-827q0 -31 -33 -31h-29q-10 0 -19 9t-10 22v827h-151q-31 0 -31 31v26q0 11 9 21t22 10h151v64q-1 204 101 314t289 110q102 0 196 -36t137 -73q92 129 285 129q103 0 193 -37t131 -74q18 -18 2 -36
l-23 -31q-12 -16 -37 -2q-137 92 -264 92t-195 -75t-67 -218v-127h629q29 0 28 -31v-884q0 -31 -30 -31h-29q-31 0 -31 31v827h-567zM322 946h567v123q0 98 24 172q-31 35 -117 70t-175 35q-156 0 -228 -84t-71 -254v-62z" />
    <glyph glyph-name="f_f_l" unicode="ffl" horiz-adv-x="1855" 
d="M1249 1454q82 0 180 -33t160 -90l10 74q4 29 31 29h12q29 0 29 -29v-1374q0 -31 -33 -31h-24q-14 0 -24 9q-9 9 -9 22v1188q-23 25 -55 51t-110 62q-79 34 -161 34q-125 0 -201 -81t-75 -243v-96h334q33 0 33 -28v-33q0 -27 -33 -27h-334v-827q0 -31 -33 -31h-26
q-10 0 -21 9q-10 9 -10 22v827h-567v-827q0 -31 -33 -31h-29q-10 0 -19 9t-10 22v827h-151q-31 0 -31 31v26q0 11 9 21t22 10h151v64q-1 204 101 314t289 110q104 0 197 -33t149 -76q104 129 282 129zM322 946h567v103q0 104 35 192q-31 33 -123 69t-180 36q-156 0 -228 -84
t-71 -254v-62z" />
    <glyph glyph-name="f_f_h" unicode="ffh" horiz-adv-x="2512" 
d="M1630 1434h15q27 0 26 -31v-584q137 147 326 148q354 0 354 -418v-518q0 -11 -9 -21t-22 -10h-28q-12 0 -22 9q-9 9 -9 22v518q0 330 -268 330q-180 0 -322 -174v-674q0 -31 -31 -31h-30q-29 0 -29 31v1188q-23 25 -55 51t-110 62q-79 34 -161 34q-125 0 -201 -81
t-75 -243v-96h334q33 0 33 -28v-33q0 -27 -33 -27h-334v-827q0 -31 -33 -31h-26q-10 0 -21 9q-10 9 -10 22v827h-567v-827q0 -31 -33 -31h-29q-10 0 -19 9t-10 22v827h-151q-31 0 -31 31v26q0 11 9 21t22 10h151v64q-1 204 101 314t289 110q104 0 197 -33t149 -76
q104 129 282 129q82 0 180 -33t160 -90l10 74q4 29 31 29zM322 946h567v103q0 104 35 192q-31 33 -123 69t-180 36q-156 0 -228 -84t-71 -254v-62z" />
    <glyph glyph-name="f_k" unicode="fk" horiz-adv-x="1708" 
d="M981 1434h12q9 0 19 -10t10 -21v-842l487 371q20 14 39 14h68q16 0 18 -16t-12 -27l-502 -379l525 -483q12 -13 7 -27t-20 -14h-53q-23 0 -47 18l-510 476v-463q0 -31 -31 -31h-26q-14 0 -24 9q-9 9 -9 22v1188q-22 25 -54 51t-111 62q-79 34 -161 34q-120 0 -198 -74
t-78 -229v-117h334q33 0 32 -28v-33q0 -27 -32 -27h-334v-827q0 -11 -9 -21t-24 -10h-29q-29 0 -28 31v827h-162q-14 0 -24 9q-9 9 -9 22v26q0 11 10 21t23 10h162v111q0 195 99 296t261 101q82 0 180 -33t160 -90l10 74q4 29 31 29z" />
    <glyph glyph-name="f_j" unicode="fj" horiz-adv-x="1153" 
d="M895 -164v1022h-567v-827q0 -31 -29 -31h-39q-23 0 -22 31v827h-160q-33 0 -33 37v20q0 11 9 21t24 10h160v127q0 173 92 277t258 104q102 0 192 -37t131 -74q18 -18 2 -36l-22 -31q-12 -16 -37 -2q-137 92 -264 92t-195 -75t-67 -218v-127h628q29 0 29 -31v-1060
q0 -158 -57 -238t-180 -121q-35 -12 -48 17l-8 20q-14 35 21 45q182 45 182 258z" />
    <glyph glyph-name="f_f_j" unicode="ffj" horiz-adv-x="1804" 
d="M1546 -164v1022h-567v-827q0 -31 -33 -31h-26q-10 0 -21 9q-10 9 -10 22v827h-567v-827q0 -31 -33 -31h-29q-10 0 -19 9t-10 22v827h-151q-31 0 -31 31v26q0 11 9 21t22 10h151v64q-1 204 101 314t289 110q102 0 196 -36t137 -73q92 129 285 129q103 0 193 -37t131 -74
q18 -18 2 -36l-23 -31q-12 -16 -37 -2q-137 92 -264 92t-195 -75t-67 -218v-127h629q29 0 28 -31v-1060q0 -158 -57 -238t-180 -121q-35 -12 -47 17l-9 20q-14 35 21 45q182 45 182 258zM322 946h567v123q0 98 24 172q-31 35 -117 70t-175 35q-156 0 -228 -84t-71 -254v-62z
" />
    <glyph glyph-name="f_b" unicode="fb" horiz-adv-x="1886" 
d="M1688 474q0 169 -109 287t-270 118q-76 0 -148 -27t-104 -53l-35 -27v-547q13 -39 106 -99t227 -60q133 0 233 120t100 288zM1321 967q199 1 328 -143t129 -352t-123 -351t-307 -144q-119 1 -208 49t-124 89l-6 -84q-6 -31 -35 -31h-10q-14 0 -24 9q-9 9 -9 22v1188
q-22 25 -54 51t-111 62q-79 34 -161 34q-120 0 -198 -74t-78 -229v-117h334q33 0 32 -28v-33q0 -27 -32 -27h-334v-827q0 -11 -9 -21t-24 -10h-29q-29 0 -28 31v827h-162q-14 0 -24 9q-9 9 -9 22v26q0 11 10 21t23 10h162v111q0 195 99 296t261 101q82 0 180 -33t160 -90
l10 74q4 29 31 29h10q31 0 31 -31v-529q40 34 129 63q88 30 170 30z" />
    <glyph glyph-name="f_f_k" unicode="ffk" horiz-adv-x="2355" 
d="M1630 1434h10q10 0 20 -10t9 -21v-842l488 371q20 14 38 14h68q16 0 18 -16t-12 -27l-502 -379l525 -483q12 -13 7 -27t-20 -14h-53q-23 0 -47 18l-510 476v-463q0 -31 -31 -31h-24q-14 0 -24 9q-9 9 -9 22v1188q-23 25 -55 51t-110 62q-79 34 -161 34q-125 0 -201 -81
t-75 -243v-96h334q33 0 33 -28v-33q0 -27 -33 -27h-334v-827q0 -31 -33 -31h-26q-10 0 -21 9q-10 9 -10 22v827h-567v-827q0 -31 -33 -31h-29q-10 0 -19 9t-10 22v827h-151q-31 0 -31 31v26q0 11 9 21t22 10h151v64q-1 204 101 314t289 110q104 0 197 -33t149 -76
q104 129 282 129q82 0 180 -33t160 -90l10 74q4 29 31 29zM322 946h567v103q0 104 35 192q-31 33 -123 69t-180 36q-156 0 -228 -84t-71 -254v-62z" />
    <glyph glyph-name="f_h" unicode="fh" horiz-adv-x="1863" 
d="M991 0h-26q-14 0 -24 9q-9 9 -9 22v1188q-22 25 -54 51t-111 62q-79 34 -161 34q-120 0 -198 -74t-78 -229v-117h334q33 0 32 -28v-33q0 -27 -32 -27h-334v-827q0 -11 -9 -21t-24 -10h-29q-29 0 -28 31v827h-162q-14 0 -24 9q-9 9 -9 22v26q0 11 10 21t23 10h162v111
q0 195 99 296t261 101q82 0 180 -33t160 -90l10 74q4 29 31 29h10q11 0 21 -10t10 -21v-584q137 147 326 148q354 0 354 -418v-518q0 -11 -9 -21t-22 -10h-29q-12 0 -21 9t-9 22v518q0 330 -269 330q-180 0 -321 -174v-674q0 -31 -31 -31z" />
    <glyph glyph-name="f_f_b" unicode="ffb" horiz-adv-x="2535" 
d="M2337 474q0 169 -109 287t-270 118q-76 0 -148 -27t-106 -53l-33 -27v-547q6 -18 45 -51q39 -34 74 -56q82 -53 215 -52q133 0 233 120t99 288zM1630 1434h10q31 0 31 -31v-529q40 34 129 63q88 30 170 30q199 1 328 -143t129 -352t-123 -351t-307 -144q-119 1 -208 49
t-124 89l-6 -84q-6 -31 -35 -31h-10q-14 0 -24 9q-9 9 -9 22v1188q-23 25 -55 51t-110 62q-79 34 -161 34q-125 0 -201 -81t-75 -243v-96h334q33 0 33 -28v-33q0 -27 -33 -27h-334v-827q0 -31 -33 -31h-26q-10 0 -21 9q-10 9 -10 22v827h-567v-827q0 -31 -33 -31h-29
q-10 0 -19 9t-10 22v827h-151q-31 0 -31 31v26q0 11 9 21t22 10h151v64q-1 204 101 314t289 110q104 0 197 -33t149 -76q104 129 282 129q82 0 180 -33t160 -90l10 74q4 29 31 29zM322 946h567v103q0 104 35 192q-31 33 -123 69t-180 36q-156 0 -228 -84t-71 -254v-62z" />
    <glyph glyph-name=".notdef" horiz-adv-x="1226" 
d="M502 319q0 -41 30 -69t69 -29q40 0 70 29q29 30 29 70t-29 69q-30 29 -70 29q-39 0 -69 -29t-30 -70zM537 643q0 -25 28 -25h74q31 0 31 27v53q0 57 107 124q40 26 74 75t34 109q0 98 -73 162t-193 65q-120 0 -213 -80q-22 -18 -41 -44t-3 -38l46 -45q24 -18 70 33
q45 51 120 51q74 0 108 -31t34 -75t-32 -80q-32 -37 -70 -62q-38 -24 -70 -66t-31 -94v-59zM102 61v1311q0 61 62 62h899q61 0 61 -62v-1311q0 -61 -61 -61h-899q-62 0 -62 61z" />
    <glyph glyph-name=".null" horiz-adv-x="0" 
 />
    <glyph glyph-name=".null" horiz-adv-x="0" 
 />
    <glyph glyph-name="nonmarkingreturn" horiz-adv-x="681" 
 />
    <glyph glyph-name="CR" unicode="&#xd;" horiz-adv-x="0" 
 />
    <glyph glyph-name="space" unicode=" " horiz-adv-x="491" 
 />
    <glyph glyph-name="exclam" unicode="!" horiz-adv-x="505" 
d="M336 61q0 -35 -24 -59t-58 -22q-34 0 -60 24q-24 24 -24 58t25 58t59 24t58 -24t24 -59zM246 551q-10 0 -19 7q-8 7 -8 17l-20 582v250q0 27 30 27h52q27 0 26 -27v-248l-18 -584q0 -8 -8 -16t-19 -8h-16z" />
    <glyph glyph-name="quotedbl" unicode="&#x22;" horiz-adv-x="669" 
d="M162 1026q-18 0 -19 23v358q0 27 27 27h43q29 0 25 -33l-33 -352q-4 -23 -21 -23h-22zM469 1026q-18 0 -18 23v358q0 27 26 27h43q29 0 25 -33l-33 -352q-4 -23 -20 -23h-23z" />
    <glyph glyph-name="numbersign" unicode="#" horiz-adv-x="1136" 
d="M369 485h333l62 373h-332zM123 422q-25 0 -25 27v10q0 27 25 26h180l64 373h-185q-27 0 -26 27v12q0 27 26 27h195l82 487q2 23 26 23h13q27 0 22 -31l-80 -479h334l82 487q2 23 27 23h14q25 0 21 -31l-80 -479h170q25 0 24 -27v-12q0 -27 -22 -27h-181l-63 -373h182
q27 0 27 -26v-10q0 -27 -25 -27h-194l-68 -399q-4 -23 -26 -23h-13q-31 0 -24 31l67 391h-336l-65 -399q-4 -23 -27 -23h-12q-31 0 -25 31l68 391h-172z" />
    <glyph glyph-name="dollar" unicode="$" 
d="M977 344q0 110 -79 182q-79 70 -239 129v-587q131 8 225 87q93 79 93 189zM598 784v580q-160 -6 -240 -89t-80 -191t80 -177q78 -68 240 -123zM1077 348q0 -152 -124 -254q-124 -104 -294 -114v-222q-1 -24 -31 -24t-30 24v222q-217 11 -401 167q-23 18 -7 43l23 29
q16 20 51 -6q152 -133 334 -145v614q-211 70 -312 157t-102 253q0 130 104 240t310 120v76q0 27 29 26h8q27 0 27 -26v-78q82 -4 160 -30t118 -48l39 -24q25 -20 10 -41l-20 -31q-16 -23 -43 -8q-123 82 -264 94l-3 -602q213 -74 315 -167t103 -245z" />
    <glyph glyph-name="percent" unicode="%" horiz-adv-x="1386" 
d="M807 259q0 -85 60 -144q59 -59 145 -59t146 58q60 60 60 145t-60 145t-145 60t-145 -60t-61 -145zM731 261q0 118 82 201t200 83q119 0 201 -83t82 -201t-83 -201t-201 -83t-199 83q-82 83 -82 201zM372 1376q-84 0 -144 -60t-60 -146t60 -145q60 -60 144 -60
q85 0 145 60q61 60 61 145q0 86 -60 146t-146 60zM1092 1434q14 0 19 -12t-3 -27l-780 -1381q-8 -14 -25 -14h-37q-14 0 -18 12t4 23l778 1388q6 10 25 11h37zM373 889q-117 0 -200 82q-83 83 -83 201t83 200t200 82t199 -82t83 -201q-1 -119 -83 -201t-199 -81z" />
    <glyph glyph-name="ampersand" unicode="&#x26;" horiz-adv-x="1361" 
d="M227 354q0 -125 85 -209t216 -84q246 0 414 203l-444 451q-271 -146 -271 -361zM825 1143q0 94 -65 163q-66 68 -186 68t-187 -72q-68 -72 -68 -178t140 -250l59 -59q307 156 307 328zM1176 819q28 0 28 -59q0 -252 -147 -477l213 -211q31 -27 8 -47l-33 -31
q-18 -18 -41 4l-205 207q-193 -225 -473 -225q-178 0 -284 108t-105 266q0 254 303 416l-30 33q-55 61 -87 101t-61 105t-29 128q-1 121 91 219t254 98t250 -90t87 -219q0 -213 -337 -389l417 -414q123 197 123 418l-2 41q0 18 17 18h43z" />
    <glyph glyph-name="quotesingle" unicode="'" horiz-adv-x="362" 
d="M162 1026q-18 0 -19 23v358q0 27 27 27h43q29 0 25 -33l-33 -352q-4 -23 -21 -23h-22z" />
    <glyph glyph-name="parenleft" unicode="(" horiz-adv-x="692" 
d="M117 645q0 594 312 759q83 44 177 48q25 0 25 -18l2 -31q4 -25 -17 -25q-190 -26 -300 -204t-110 -528t110 -529q110 -178 300 -205q20 0 17 -25l-2 -30q0 -20 -25 -17q-193 8 -333 179q-73 89 -114 250q-42 161 -42 376z" />
    <glyph glyph-name="parenright" unicode=")" horiz-adv-x="692" 
d="M78 -88q190 27 299 205t108 528q0 350 -108 529q-109 178 -299 204q-23 0 -19 25l2 31q4 18 27 18q155 -8 281 -123q125 -115 178 -371q29 -138 29 -334t-42 -356t-115 -249q-140 -171 -331 -179q-23 -2 -27 17l-2 30q-4 25 19 25z" />
    <glyph glyph-name="asterisk" unicode="*" horiz-adv-x="841" 
d="M412 840q-27 0 -27 26l2 211l-180 -112q-20 -14 -35 8l-10 16q-14 20 8 35l186 113l-188 112q-20 12 -8 35l12 21q10 16 33 4l182 -113l-2 211q0 27 27 27h16q27 0 27 -27l-2 -211l180 115q18 10 35 -8q23 -38 2 -52l-189 -114l191 -115q20 -12 8 -33l-10 -18
q-14 -23 -37 -8l-180 114l2 -211q0 -27 -27 -26h-16z" />
    <glyph glyph-name="plus" unicode="+" 
d="M571 317v351h-352q-27 0 -26 26v31q0 27 26 27h352v354q0 25 27 24h33q27 0 26 -24v-354h351q27 0 26 -27v-31q0 -27 -26 -26h-351v-351q0 -27 -26 -26h-33q-27 -1 -27 26z" />
    <glyph glyph-name="comma" unicode="," horiz-adv-x="460" 
d="M133 64q0 34 25 58t61 23q57 0 93 -60t36 -142q0 -168 -127 -291q-16 -16 -26 0l-23 20q-10 14 2 31q102 94 102 213q0 61 -18 92q-18 -22 -51 -22t-53 22t-21 56z" />
    <glyph glyph-name="hyphen" unicode="-" horiz-adv-x="808" 
d="M172 473q-25 0 -25 27v22q0 27 25 27h463q27 0 27 -27v-22q0 -27 -27 -27h-463z" />
    <glyph glyph-name="period" unicode="." horiz-adv-x="440" 
d="M221 -23q-37 -1 -63 25t-25 62q0 36 26 61q27 25 63 25t61 -24t25 -61t-26 -63q-24 -26 -61 -25z" />
    <glyph glyph-name="slash" unicode="/" horiz-adv-x="757" 
d="M621 1434q14 0 21 -8t3 -21l-452 -1387q-6 -18 -27 -18h-31q-32 0 -22 29l452 1388q6 16 27 17h29z" />
    <glyph glyph-name="zero" unicode="0" horiz-adv-x="1329" 
d="M665 66q201 0 309 170t108 481t-108 480t-310 169t-309 -168t-107 -480t108 -482t309 -170zM665 -23q-245 0 -381 197t-137 545q1 348 137 542q136 193 382 193t381 -194t135 -541q0 -348 -136 -545t-381 -197z" />
    <glyph glyph-name="one" unicode="1" horiz-adv-x="686" 
d="M367 1290h-2l-250 -205q-18 -14 -31 5l-25 28q-14 14 4 31l320 272q12 12 37 13h12q31 0 31 -25v-1382q0 -27 -27 -27h-43q-27 0 -26 27v1263z" />
    <glyph glyph-name="two" unicode="2" horiz-adv-x="1126" 
d="M246 86h706q29 0 29 -27v-32q0 -27 -29 -27h-825q-29 0 -29 25v18q0 20 15 35l544 547q233 233 234 415q0 130 -91 226t-263 96q-85 0 -149 -31q-94 -46 -155 -123l-16 -16q-20 -23 -43 -6l-24 20q-18 18 -8 32q25 38 67 80q142 139 328 136q215 0 335 -119t119 -293
q-1 -128 -67 -236t-199 -241l-479 -477v-2z" />
    <glyph glyph-name="three" unicode="3" horiz-adv-x="1169" 
d="M547 688h-197q-29 0 -28 27v39q0 25 30 24h195q133 0 236 72t103 211t-90 221q-91 82 -229 82q-199 0 -331 -156q-16 -20 -35 -4l-33 27q-23 14 -2 35q17 23 62 60q151 128 336 128t304 -103t119 -272q0 -117 -72 -210t-167 -128v-6q112 -33 194 -131t82 -219
q0 -176 -130 -291t-345 -114q-262 0 -426 186q-18 23 0 37l33 26q18 16 39 -6l14 -18q16 -16 26 -28t31 -26t41 -28q19 -13 35 -19t57 -22t154 -19q164 -1 268 87q105 88 105 231t-114 225t-265 82z" />
    <glyph glyph-name="four" unicode="4" horiz-adv-x="1267" 
d="M178 414h713v868h-4l-709 -864v-4zM92 330q-37 0 -37 30v17q0 18 13 37l839 1024q10 16 33 16h18q25 0 25 -24v-1016h160q27 0 26 -27v-31q0 -27 -26 -26h-160v-303q0 -27 -27 -27h-38q-27 0 -27 27v303h-799z" />
    <glyph glyph-name="five" unicode="5" horiz-adv-x="1169" 
d="M969 465q1 162 -101 256t-297 94h-350q-18 0 -30 13q-11 13 -11 30v549q0 27 29 27h661q10 0 20 -8t9 -19v-33q0 -12 -9 -20t-20 -8h-600v-443h301q242 1 368 -113t126 -321t-141 -348t-355 -141q-262 0 -409 176q-23 31 -2 47l30 26q20 16 35 -4q137 -160 348 -159
q172 0 285 118t113 281z" />
    <glyph glyph-name="six" unicode="6" horiz-adv-x="1187" 
d="M221 565q-1 -209 105 -355t299 -147q157 0 267 117t109 281q1 163 -109 271t-263 108q-72 0 -161 -30t-151 -87q-62 -56 -92 -94q-4 -41 -4 -64zM131 580q0 162 55 305t132 235q78 92 182 170t177 115t144 65q25 6 31 -14l14 -33q10 -27 -28 -41q-206 -75 -392 -250
q-70 -67 -128 -167t-76 -209q43 53 149 111t246 59q186 0 321 -128q136 -128 136 -331t-140 -345t-329 -142q-238 0 -366 168t-128 432z" />
    <glyph glyph-name="seven" unicode="7" horiz-adv-x="1015" 
d="M858 1346h-776q-27 0 -27 30v31q0 27 27 27h872q31 0 31 -25q0 -10 -6 -23l-614 -1353q-11 -21 -17 -27t-24 -6h-50q-16 0 -19 12t5 21l598 1308v5z" />
    <glyph glyph-name="eight" unicode="8" horiz-adv-x="1230" 
d="M240 357q0 -137 105 -217t270 -81q165 0 271 79q105 78 105 214t-102 226t-273 104q-174 -14 -275 -101t-101 -224zM954 1075q0 125 -91 212t-251 87t-248 -87t-88 -212t91 -203t249 -88q156 10 247 88t91 203zM143 375q1 133 93 230t223 128v4q-117 35 -198 125t-81 211
q0 164 115 273q115 108 319 108t320 -108q117 -108 117 -273q0 -121 -81 -211t-198 -125v-4q133 -31 224 -127t91 -231q0 -183 -130 -289t-343 -106t-342 106t-129 289z" />
    <glyph glyph-name="nine" unicode="9" horiz-adv-x="1189" 
d="M967 870q-1 208 -105 354t-297 146q-155 0 -267 -117t-112 -279t110 -270t279 -108q170 0 316 135q44 41 70 76q6 31 6 63zM553 508q-188 0 -324 129q-135 129 -135 332t139 344t332 141q238 0 366 -168t128 -432q0 -162 -55 -305q-54 -143 -132 -235t-182 -171
t-177 -115t-146 -65q-20 -6 -31 17l-14 30q-10 31 24 41q129 44 317 182q101 76 180 194t101 253q-39 -52 -144 -112t-247 -60z" />
    <glyph glyph-name="colon" unicode=":" horiz-adv-x="485" 
d="M147 74q0 38 29 66t68 28q38 0 66 -27t28 -67t-28 -69q-28 -28 -66 -28t-68 29q-29 29 -29 68zM244 774q-39 0 -68 29t-29 67t29 68q29 29 68 29q38 0 66 -29t28 -68q0 -40 -28 -68t-66 -28z" />
    <glyph glyph-name="semicolon" unicode=";" horiz-adv-x="542" 
d="M172 64q0 34 25 58t61 23q57 0 93 -60t36 -142q0 -168 -127 -291q-16 -16 -27 0l-22 20q-10 14 2 31q102 94 102 213q0 61 -18 92q-18 -22 -51 -22q-34 0 -54 22t-20 56zM258 774q-39 0 -67 29q-27 29 -27 67t27 68q28 29 67 29t67 -29q27 -29 27 -68q0 -40 -28 -68
t-66 -28z" />
    <glyph glyph-name="less" unicode="&#x3c;" 
d="M205 473v2q0 16 20 29l723 459q10 8 20 2t9 -23v-47q0 -20 -16 -31l-623 -391l623 -379q16 -10 16 -31v-47q0 -16 -9 -22t-20 2l-723 444q-20 12 -20 33z" />
    <glyph glyph-name="equal" unicode="=" 
d="M291 324q-27 0 -27 26v35q0 27 27 27h645q27 0 27 -27v-35q0 -27 -27 -26h-645zM291 750q-27 0 -27 26v35q0 27 27 27h645q27 0 27 -27v-35q0 -27 -27 -26h-645z" />
    <glyph glyph-name="greater" unicode="&#x3e;" 
d="M252 16v47q0 20 16 31l623 379l-623 391q-16 10 -16 31v47q0 16 9 22t20 -1l723 -459q20 -12 20 -29v-2q0 -20 -20 -33l-723 -444q-10 -8 -20 -2q-9 6 -9 22z" />
    <glyph glyph-name="question" unicode="?" horiz-adv-x="921" 
d="M336 62q0 34 23 58q24 24 59 24q36 0 60 -24t24 -59t-25 -59t-59 -22q-34 0 -58 24t-24 58zM399 559q-25 0 -24 29v119q0 67 53 125t118 98t118 99q53 60 53 138q0 77 -69 141t-168 64t-159 -26t-93 -58t-44 -44q-12 -13 -14 -15q-14 -14 -35 -2l-20 14q-23 14 -6 39
q75 112 229 156q63 18 133 18q154 0 246 -81t92 -208q0 -76 -36 -137t-86 -101t-100 -74q-122 -83 -122 -148v-117q0 -29 -27 -29h-39z" />
    <glyph glyph-name="at" unicode="@" horiz-adv-x="2015" 
d="M692 474q0 -155 83 -251t214 -96q162 0 243 141q15 27 21 47v387q-22 43 -96 81q-75 37 -147 36q-134 0 -226 -95t-92 -250zM119 459q0 440 257 718q258 277 672 277t646 -242t231 -620q0 -225 -106 -388t-304 -163t-239 162q-37 -59 -112 -111t-181 -51q-166 0 -272 122
q-107 122 -107 311t117 308t285 119q74 -1 136 -23t89 -44l26 -23l7 45q2 25 28 25h21q27 0 26 -27v-514q0 -223 170 -223q156 0 245 129t89 346q0 348 -207 567q-208 219 -588 219t-614 -252t-233 -667q-1 -295 155 -513t416 -331q23 -10 12 -33l-14 -33q-8 -20 -29 -12
q-283 121 -453 361t-169 561z" />
    <glyph glyph-name="A" unicode="A" horiz-adv-x="1333" 
d="M309 475h711l-350 815h-4zM23 0q-25 0 -15 25l631 1415q8 14 25 14h6q18 0 26 -14l625 -1415q8 -25 -18 -25h-54q-20 0 -28 18l-166 377h-783l-163 -377q-10 -18 -29 -18h-57z" />
    <glyph glyph-name="B" unicode="B" horiz-adv-x="1280" 
d="M301 86h395q150 0 244 83t94 220t-93 215t-243 78h-397v-596zM301 770h383q141 0 223 80t82 211t-86 207t-233 75h-369v-573zM1139 389q0 -173 -126 -281t-325 -108h-455q-27 0 -26 27v1380q0 27 26 27h437q190 0 307 -102t117 -269q0 -117 -58 -203t-157 -127v-4
q115 -33 187 -119t73 -221z" />
    <glyph glyph-name="C" unicode="C" horiz-adv-x="1464" 
d="M115 715q0 307 217 523t515 216t507 -190q18 -18 2 -37l-33 -35q-16 -16 -35 2q-188 168 -444 168t-442 -190t-185 -457q0 -267 185 -455t454 -188q225 0 432 172q20 16 33 4l35 -35q18 -16 0 -35q-205 -198 -506 -198t-518 214t-217 521z" />
    <glyph glyph-name="D" unicode="D" horiz-adv-x="1503" 
d="M303 88h346q272 0 454 180q181 180 181 448t-180 449q-180 180 -455 181h-346v-1258zM207 1407q0 25 24 27h435q297 0 509 -210q211 -210 211 -507t-210 -507t-510 -210h-435q-10 0 -17 8t-7 19v1380z" />
    <glyph glyph-name="E" unicode="E" horiz-adv-x="1185" 
d="M207 27v1380q0 27 26 27h822q27 0 26 -27v-35q0 -27 -26 -26h-750v-566h649q27 0 27 -26v-35q0 -27 -27 -27h-649v-606h750q27 0 26 -27v-32q0 -27 -26 -27h-822q-26 0 -26 27z" />
    <glyph glyph-name="F" unicode="F" horiz-adv-x="1142" 
d="M207 27v1380q0 27 26 27h822q27 0 26 -27v-35q0 -27 -26 -26h-752v-623h651q27 0 27 -27q0 -59 -27 -59h-651v-610q0 -27 -33 -27h-37q-26 0 -26 27z" />
    <glyph glyph-name="G" unicode="G" horiz-adv-x="1519" 
d="M115 715q0 307 216 523t514 216t507 -190q20 -18 6 -34t-34 -36t-38 -2q-184 172 -441 172t-443 -189t-185 -455q0 -266 185 -456t452 -190q113 0 236 32t190 80v385h-350q-27 0 -27 27v41q0 25 27 25h420q10 0 18 -8t8 -17v-475q0 -33 -28 -53q-33 -20 -84 -46t-169 -56
t-239 -29q-309 0 -525 214t-216 521z" />
    <glyph glyph-name="H" unicode="H" horiz-adv-x="1525" 
d="M207 27v1380q0 27 26 27h43q27 0 27 -27v-629h920v629q0 27 26 27h43q27 0 27 -27v-1380q0 -27 -27 -27h-43q-27 0 -26 27v665h-920v-665q0 -27 -27 -27h-43q-26 0 -26 27z" />
    <glyph glyph-name="I" unicode="I" horiz-adv-x="512" 
d="M207 27v1380q0 27 26 27h46q27 0 26 -27v-1380q0 -27 -29 -27h-43q-26 0 -26 27z" />
    <glyph glyph-name="J" unicode="J" horiz-adv-x="952" 
d="M659 1407q0 27 29 27h41q27 0 27 -27v-995q0 -211 -106 -322t-292 -111q-188 0 -313 154q-12 20 2 35l27 25q16 16 35 0l58 -58q17 -16 75 -43t118 -26q137 0 219 84q81 84 80 260v997z" />
    <glyph glyph-name="K" unicode="K" horiz-adv-x="1169" 
d="M207 27v1376q0 31 31 31h36q31 0 31 -31v-637l696 653q16 14 41 15h58q16 0 19 -12t-7 -23l-713 -666l736 -698q10 -7 5 -21t-24 -14h-65q-25 0 -45 20l-701 676v-669q0 -27 -31 -27h-41q-26 0 -26 27z" />
    <glyph glyph-name="L" unicode="L" horiz-adv-x="1011" 
d="M207 27v1380q0 27 26 27h46q10 0 17 -8t7 -19v-1321h653q27 0 27 -27v-36q0 -23 -27 -23h-723q-26 0 -26 27z" />
    <glyph glyph-name="M" unicode="M" horiz-adv-x="1755" 
d="M410 1454h22q14 0 21 -14l421 -1258h5l424 1258q6 14 20 14h23q14 0 18 -14l291 -1413q6 -27 -23 -27h-49q-20 0 -24 23l-232 1200h-4l-414 -1227q-6 -16 -28 -16h-9q-23 0 -26 16l-414 1227h-4l-231 -1200q-4 -23 -25 -23h-49q-29 0 -23 27l291 1413q4 14 19 14z" />
    <glyph glyph-name="N" unicode="N" horiz-adv-x="1562" 
d="M209 27v1400q0 27 31 27h14q23 0 33 -16l970 -1264h3v1233q0 27 26 27h41q27 0 27 -27v-1401q0 -27 -33 -26h-6q-23 0 -33 16l-979 1276h-2v-1245q0 -27 -27 -27h-38q-27 0 -27 27z" />
    <glyph glyph-name="O" unicode="O" horiz-adv-x="1705" 
d="M205 715q0 -269 189 -457q190 -188 458 -188t459 188q190 188 190 456t-190 460q-191 190 -459 190t-458 -190q-189 -191 -189 -459zM115 715q0 307 215 523t523 216t523 -216t215 -524t-215 -521t-523 -213t-523 214t-215 521z" />
    <glyph glyph-name="P" unicode="P" horiz-adv-x="1212" 
d="M303 604h367q154 0 262 106t108 266q0 161 -108 261q-109 100 -264 100h-365v-733zM207 27v1380q0 27 26 27h441q194 0 328 -131t134 -329t-134 -331q-136 -133 -326 -133h-373v-483q0 -27 -33 -27h-37q-26 0 -26 27z" />
    <glyph glyph-name="Q" unicode="Q" horiz-adv-x="1705" 
d="M205 715q0 -269 189 -457q190 -188 458 -188t459 188q190 188 190 456t-190 460q-191 190 -459 190t-458 -190q-189 -191 -189 -459zM115 715q0 307 215 523t523 216t523 -216t215 -523q0 -231 -127 -415t-334 -267l244 -398q6 -8 2 -19t-16 -11h-68q-14 0 -26 20
l-228 377q-90 -23 -186 -22q-307 0 -522 214t-215 521z" />
    <glyph glyph-name="R" unicode="R" horiz-adv-x="1318" 
d="M305 647h432q150 1 256 103q107 102 107 248t-106 244t-259 97h-430v-692zM207 27v1380q0 27 26 27h508q189 0 323 -124t134 -294t-95 -288t-243 -161l299 -530q8 -13 4 -25t-18 -12h-53q-29 0 -43 25l-293 530q-27 -2 -76 -2h-377v-526q0 -27 -33 -27h-37q-26 0 -26 27z
" />
    <glyph glyph-name="S" unicode="S" horiz-adv-x="1107" 
d="M915 340q0 127 -96 203q-96 77 -301 147t-300 154t-95 248q0 123 100 237q49 55 138 90t191 35t191 -27q88 -27 131 -51l44 -26q25 -18 8 -43l-17 -27q-16 -29 -45 -10q-145 96 -309 96t-251 -84t-87 -196t84 -183q84 -69 288 -139q203 -70 315 -162t112 -257t-131 -265
t-307 -100t-295 69t-148 98q-23 18 -6 43l18 25q25 27 46 8q176 -158 378 -157q145 0 245 73q99 74 99 201z" />
    <glyph glyph-name="T" unicode="T" horiz-adv-x="1040" 
d="M471 27v1319h-391q-27 0 -27 30v31q0 27 27 27h881q27 0 26 -27v-35q0 -27 -26 -26h-394v-1319q0 -27 -32 -27h-37q-27 0 -27 27z" />
    <glyph glyph-name="U" unicode="U" horiz-adv-x="1460" 
d="M195 514v893q0 27 26 27h43q27 0 27 -27v-883q0 -202 119 -326q118 -124 320 -124t322 124t119 324v885q0 27 29 27h41q27 0 27 -27v-893q0 -238 -148 -386t-391 -148q-242 0 -388 148t-146 386z" />
    <glyph glyph-name="V" unicode="V" horiz-adv-x="1320" 
d="M27 1434h55q18 0 22 -15l553 -1272h5l559 1272q4 14 22 15h53q33 0 19 -29l-629 -1407q-8 -18 -24 -18h-11q-16 0 -22 18l-619 1409q-14 27 17 27z" />
    <glyph glyph-name="W" unicode="W" horiz-adv-x="1794" 
d="M82 1434h49q20 0 25 -23l344 -1200h4l360 1225q6 18 31 18h4q25 0 31 -18l362 -1225h4l342 1200q4 23 25 23h49q29 0 23 -27l-406 -1413q-4 -14 -18 -14h-23q-14 0 -20 14l-369 1247h-4l-369 -1247q-6 -14 -20 -14h-23q-14 0 -18 14l-406 1413q-6 27 23 27z" />
    <glyph glyph-name="X" unicode="X" horiz-adv-x="1136" 
d="M102 1434h66q16 0 27 -13l370 -602h2l375 602q8 12 27 13h65q35 0 17 -31l-422 -670l448 -702q18 -31 -16 -31h-66q-16 0 -26 12l-402 633h-2l-395 -633q-10 -12 -27 -12h-65q-35 0 -17 31l445 702l-420 670q-18 31 16 31z" />
    <glyph glyph-name="Y" unicode="Y" horiz-adv-x="1159" 
d="M561 0q-31 0 -31 27v669l-522 707q-19 29 17 31h61q16 0 27 -13l467 -637l475 637q10 12 26 13h62q16 0 20 -10t-4 -21l-532 -705v-671q0 -27 -27 -27h-39z" />
    <glyph glyph-name="Z" unicode="Z" horiz-adv-x="1075" 
d="M53 25v16q0 20 10 37l822 1261v4h-742q-27 0 -26 31v33q0 27 26 27h844q27 0 27 -27v-12q0 -20 -10 -37l-824 -1266v-2h764q27 0 27 -27v-36q0 -27 -27 -27h-862q-29 0 -29 25z" />
    <glyph glyph-name="bracketleft" unicode="[" horiz-adv-x="679" 
d="M262 -403h338q27 0 27 -27v-31q0 -27 -27 -26h-399q-27 0 -27 26v1868q0 27 27 27h399q27 0 27 -27v-31q0 -27 -27 -26h-338v-1753z" />
    <glyph glyph-name="backslash" unicode="\" horiz-adv-x="755" 
d="M166 1434q20 0 27 -17l452 -1388q10 -29 -22 -29h-31q-21 0 -27 18l-452 1387q-4 12 3 20t21 9h29z" />
    <glyph glyph-name="bracketright" unicode="]" horiz-adv-x="677" 
d="M80 -403h336v1753h-336q-27 0 -27 26v31q0 27 27 27h397q27 0 27 -27v-1868q0 -27 -27 -26h-397q-27 0 -27 26v31q0 27 27 27z" />
    <glyph glyph-name="asciicircum" unicode="^" horiz-adv-x="1073" 
d="M94 819q-14 0 -18 10t6 23l432 596q10 14 23 14h6q12 0 22 -14l430 -596q10 -12 6 -22t-18 -11h-47q-20 0 -33 17l-364 505l-365 -505q-12 -16 -33 -17h-47z" />
    <glyph glyph-name="underscore" unicode="_" horiz-adv-x="976" 
d="M139 -47q0 27 27 27h645q27 0 27 -27v-21q0 -25 -27 -24h-645q-27 0 -27 24v21z" />
    <glyph glyph-name="grave" unicode="`" horiz-adv-x="618" 
d="M508 1145l-352 162q-18 10 -9 30l21 41q10 18 35 6l336 -184q18 -10 12 -29l-10 -20q-8 -16 -33 -6z" />
    <glyph glyph-name="a" unicode="a" horiz-adv-x="980" 
d="M486 530q-138 0 -223 -66t-85 -169q0 -101 66 -165t164 -64t188 46t131 97v272q-103 49 -241 49zM381 -23q-119 -1 -205 85t-86 227t106 231t287 90q115 0 244 -43q0 172 -41 244t-172 72q-89 0 -163 -22q-73 -22 -95 -32t-25 -10q-29 -12 -36 15l-11 28q-12 20 6 30
q57 34 150 54q289 60 410 -52q55 -53 64 -201q3 -48 3 -138v-524q0 -11 -10 -21t-23 -10h-16q-27 0 -29 27l-10 86q-53 -53 -141 -95t-207 -41z" />
    <glyph glyph-name="b" unicode="b" horiz-adv-x="1126" 
d="M928 474q0 169 -109 287t-270 118q-76 0 -148 -27t-106 -53l-33 -27v-547q13 -39 106 -99t227 -60q133 0 233 120t100 288zM561 967q199 1 328 -143t129 -352t-123 -351t-307 -144q-119 1 -208 49t-124 89l-6 -84q-6 -31 -35 -31h-12q-10 0 -21 9q-10 9 -10 22v1372
q0 12 9 21t20 10h30q31 0 31 -31v-529q40 34 129 63q88 30 170 30z" />
    <glyph glyph-name="c" unicode="c" horiz-adv-x="1058" 
d="M106 472q0 212 144 353t346 142q123 0 215 -47t133 -99q18 -23 -2 -43l-16 -16q-25 -25 -54 7q-28 32 -104 71t-172 39q-162 0 -281 -118t-119 -288t118 -289q116 -118 282 -118t301 145q23 25 45 2l19 -16q18 -18 6 -37q-41 -62 -141 -122t-230 -61q-206 -1 -348 141
t-142 354z" />
    <glyph glyph-name="d" unicode="d" horiz-adv-x="1126" 
d="M578 879q-162 0 -270 -118t-109 -287q0 -169 99 -289t247 -119q119 0 213 62t106 97v547q-37 37 -124 72t-162 35zM109 472q0 208 129 351t327 144q82 0 157 -23t109 -47l33 -23v529q0 31 31 31h31q10 0 19 -10t9 -21v-1372q0 -11 -10 -21t-20 -10h-13q-29 0 -34 31
l-7 84q-35 -41 -124 -89t-207 -49q-184 -1 -307 143t-123 352z" />
    <glyph glyph-name="e" unicode="e" horiz-adv-x="1083" 
d="M899 528q0 146 -90 248t-243 102t-254 -100t-111 -250h698zM565 -23q-205 1 -331 143t-125 352q0 210 125 352q126 142 322 142t314 -122q119 -123 119 -307q0 -92 -35 -93h-755q4 -158 109 -268t257 -110t291 94q29 16 41 0l23 -35q16 -16 -22 -47t-134 -66t-199 -35z
" />
    <glyph glyph-name="f" unicode="f" horiz-adv-x="749" 
d="M227 31v827h-149q-29 0 -29 31v26q0 31 29 31h149v146q0 170 79 266t231 96q85 0 157 -31t107 -69q20 -25 6 -39l-21 -25q-16 -20 -41 -2q-100 78 -208 78q-219 0 -220 -274v-146h357q33 0 33 -28v-33q0 -27 -33 -27h-357v-827q0 -31 -30 -31h-31q-10 0 -20 10t-9 21z
" />
    <glyph glyph-name="g" unicode="g" horiz-adv-x="1128" 
d="M866 -25v101q-117 -98 -304 -98t-320 142q-133 144 -133 354t127 351t313 141t328 -110l8 66q2 25 26 24h13q33 0 32 -31v-940q0 -199 -118 -311t-301 -113q-103 0 -189 40t-131 83q-16 16 -4 35l20 27q16 18 41 0q39 -33 112 -65t151 -31q145 0 237 86t92 249zM561 879
q-160 0 -261 -117t-101 -289t106 -290t277 -117q72 0 154 33t130 81v574q-39 52 -131 89q-92 36 -174 36z" />
    <glyph glyph-name="h" unicode="h" horiz-adv-x="1103" 
d="M172 31v1372q0 31 33 31h26q11 0 21 -10t10 -21v-584q137 147 326 148q354 0 354 -418v-518q0 -11 -9 -21t-22 -10h-28q-12 0 -22 9q-9 9 -9 22v518q0 330 -268 330q-180 0 -322 -174v-674q0 -31 -31 -31h-32q-27 0 -27 31z" />
    <glyph glyph-name="i" unicode="i" horiz-adv-x="434" 
d="M214 1208q-34 0 -58 23t-23 55q0 32 24 56q25 24 59 24t56 -24t23 -56t-23 -56q-24 -22 -58 -22zM172 31v884q0 31 31 31h28q11 0 21 -9t10 -22v-884q0 -31 -31 -31h-32q-27 0 -27 31z" />
    <glyph glyph-name="j" unicode="j" horiz-adv-x="434" 
d="M262 915v-1060q0 -158 -57 -238t-180 -121q-35 -12 -48 17l-8 20q-14 35 21 45q182 45 182 258v1079q0 31 31 31h28q10 0 21 -9q10 -10 10 -22zM214 1208q-34 0 -58 23t-23 55q0 32 24 56q25 24 59 24t56 -24t23 -56t-23 -56q-24 -22 -58 -22z" />
    <glyph glyph-name="k" unicode="k" horiz-adv-x="946" 
d="M172 31v1372q0 31 31 31h26q11 0 21 -10t10 -21v-842l488 371q20 14 38 14h68q16 0 18 -16t-12 -27l-502 -379l525 -483q12 -13 7 -27t-20 -14h-53q-23 0 -47 18l-510 476v-463q0 -31 -31 -31h-30q-27 0 -27 31z" />
    <glyph glyph-name="l" unicode="l" horiz-adv-x="458" 
d="M184 31v1372q0 31 31 31h29q10 0 20 -10t10 -21v-1372q0 -31 -30 -31h-33q-27 0 -27 31z" />
    <glyph glyph-name="m" unicode="m" horiz-adv-x="1695" 
d="M172 31v884q0 31 31 31h16q18 0 23 -24l12 -101q110 145 308 145t298 -167q131 168 332 168q342 0 342 -418v-518q0 -31 -31 -31h-35q-25 0 -24 31v518q0 330 -260 330q-164 0 -279 -150l-14 -16q18 -63 18 -164v-518q0 -11 -10 -21t-20 -10h-31q-29 0 -29 31v518
q0 330 -262 330q-132 0 -207 -67t-88 -95v-686q0 -31 -31 -31h-32q-27 0 -27 31z" />
    <glyph glyph-name="n" unicode="n" horiz-adv-x="1105" 
d="M172 31v884q0 31 33 31h10q27 0 29 -24l10 -101q136 145 330 145t277 -107q83 -108 83 -306v-522q0 -11 -9 -21t-22 -10h-28q-12 0 -22 9q-9 9 -9 22v518q0 330 -270 330q-86 0 -183 -50t-139 -112v-686q0 -31 -31 -31h-32q-27 0 -27 31z" />
    <glyph glyph-name="o" unicode="o" horiz-adv-x="1163" 
d="M580 879q-158 0 -270 -119t-113 -287t111 -288q112 -119 272 -119t270 120t111 287q0 168 -111 287q-112 119 -270 119zM106 472q0 206 138 350t336 144q199 0 338 -144t139 -349t-138 -350t-338 -145q-199 0 -337 144t-138 350z" />
    <glyph glyph-name="p" unicode="p" horiz-adv-x="1128" 
d="M567 879q-82 0 -175 -37t-130 -88v-574q46 -46 130 -81q83 -34 155 -33q170 0 276 118q107 118 107 289q0 172 -102 289t-261 117zM262 -457q0 -12 -10 -21t-23 -9h-26q-31 0 -31 30v1372q0 31 33 31h12q25 0 27 -24l8 -66q142 111 328 111q186 1 313 -141t127 -352
t-133 -353t-338 -144q-170 1 -287 99v-533z" />
    <glyph glyph-name="q" unicode="q" horiz-adv-x="1128" 
d="M561 879q-160 0 -261 -117t-101 -289t106 -290t277 -117q72 0 154 33t130 81v574q-39 52 -131 89q-92 36 -174 36zM866 -457v533q-117 -98 -304 -98t-320 142q-133 144 -133 354t127 351t313 141t328 -110l8 66q2 25 26 24h13q33 0 32 -31v-1372q0 -31 -30 -30h-27
q-13 0 -23 9t-10 21z" />
    <glyph glyph-name="r" unicode="r" horiz-adv-x="765" 
d="M172 31v884q0 31 31 31h14q25 0 27 -26l10 -97q20 27 50 54t100 59t145 31q74 0 153 -27q35 -10 25 -43l-12 -37q-8 -27 -39 -12q-51 31 -130 31t-165 -48t-119 -114v-686q0 -31 -31 -31h-32q-27 0 -27 31z" />
    <glyph glyph-name="s" unicode="s" horiz-adv-x="847" 
d="M668 230q0 74 -67 121t-208 99t-212 111t-71 157t77 173q77 76 225 76t268 -72q25 -18 12 -43l-12 -23q-12 -23 -41 -8q-113 61 -221 61t-162 -46q-54 -47 -55 -111q0 -64 58 -108q59 -44 161 -82t143 -56t95 -54q100 -67 100 -185t-92 -190t-249 -72t-294 104
q-20 16 -10 35l18 33q14 25 43 4q112 -92 238 -92t191 46q65 48 65 122z" />
    <glyph glyph-name="t" unicode="t" horiz-adv-x="743" 
d="M215 229v629h-115q-31 0 -30 31v33q0 25 30 24h115v258q0 27 33 31l26 2q12 2 22 -8t9 -23v-260h334q33 0 33 -31v-26q0 -31 -33 -31h-334v-618q0 -96 26 -136q25 -40 113 -38q88 0 207 75q25 12 37 -8l17 -29q10 -20 -9 -36q-119 -90 -257 -90t-181 66t-43 185z" />
    <glyph glyph-name="u" unicode="u" horiz-adv-x="1081" 
d="M162 385v530q0 11 9 21t22 10h30q29 0 29 -31v-530q0 -166 62 -243t206 -76q176 0 299 176v673q0 31 31 31h31q10 0 19 -9t9 -22v-884q0 -11 -9 -21t-19 -10h-19q-25 0 -28 29l-9 92q-20 -27 -50 -53q-29 -26 -103 -59q-74 -32 -158 -32q-192 -1 -272 99t-80 309z" />
    <glyph glyph-name="v" unicode="v" horiz-adv-x="989" 
d="M66 946h47q20 0 30 -22l346 -799h5l352 799q8 23 31 22h47q35 0 12 -35l-410 -911q-12 -23 -28 -23h-11q-16 0 -28 23l-406 911q-18 35 13 35z" />
    <glyph glyph-name="w" unicode="w" horiz-adv-x="1431" 
d="M92 946h45q27 0 31 -22l223 -762h4l287 784q8 20 29 21h8q20 0 29 -21l282 -784h4l226 762q4 23 30 22h47q27 0 13 -39l-283 -907q-6 -23 -29 -23h-8q-20 0 -31 23l-282 807h-4l-285 -807q-6 -23 -29 -23h-8q-23 0 -31 23l-282 907q-10 39 14 39z" />
    <glyph glyph-name="x" unicode="x" horiz-adv-x="948" 
d="M104 946h48q20 0 36 -22l281 -379h4l287 379q10 23 35 22h49q16 0 20 -10t-8 -23l-324 -426l342 -454q10 -12 6 -23q-5 -10 -20 -10h-49q-23 0 -37 20l-299 412h-4l-303 -412q-12 -20 -33 -20h-51q-14 0 -18 10t4 23l346 452l-328 428q-10 13 -4 23t20 10z" />
    <glyph glyph-name="y" unicode="y" horiz-adv-x="980" 
d="M72 946h43q25 0 32 -22l334 -818h6l349 818q8 23 30 22h45q35 0 15 -39l-592 -1376q-10 -18 -31 -18h-47q-33 0 -18 32l196 457l-377 905q-16 39 15 39z" />
    <glyph glyph-name="z" unicode="z" horiz-adv-x="856" 
d="M70 27v4q0 18 12 37l559 784v6h-498q-12 0 -20 9t-8 20v28q0 31 28 31h613q31 0 30 -31q0 -10 -12 -26l-571 -795v-6h516q31 0 31 -31v-26q0 -31 -31 -31h-619q-30 0 -30 27z" />
    <glyph glyph-name="braceleft" unicode="{" horiz-adv-x="755" 
d="M238 -37v295q0 133 -150 182q-18 6 -18 19v33q0 12 18 18q150 49 150 182v287q0 273 137 375t307 100q29 0 29 -24v-25q0 -20 -21 -25q-365 -27 -364 -403v-285q0 -64 -35 -118t-60 -71t-45 -28v-2q19 -6 48 -30q89 -72 92 -185v-293q0 -375 364 -401q20 -4 21 -25v-24
q0 -25 -29 -25q-175 0 -301 94q-143 107 -143 379z" />
    <glyph glyph-name="bar" unicode="|" horiz-adv-x="407" 
d="M172 -463v1991q0 27 27 26h12q25 0 25 -26v-1991q0 -25 -27 -24h-10q-27 -1 -27 24z" />
    <glyph glyph-name="braceright" unicode="}" horiz-adv-x="755" 
d="M518 258v-295q0 -268 -143 -379q-125 -94 -301 -94q-29 0 -29 25v24q0 20 21 25q365 27 364 401v293q0 84 45 138q26 35 57 55t37 22v2q-20 9 -45 27t-59 72q-35 54 -35 118v285q0 377 -364 403q-20 4 -21 25v25q0 25 29 24q172 0 308 -100t136 -375v-287
q0 -133 150 -182q18 -6 18 -18v-33q0 -12 -18 -19q-150 -49 -150 -182z" />
    <glyph glyph-name="asciitilde" unicode="~" horiz-adv-x="1177" 
d="M780 535q44 0 81 20t51 36q15 17 28 31t47 70q16 23 35 6l27 -18q20 -14 6 -33q-10 -20 -42 -60q-109 -136 -233 -134q-96 0 -198 100t-179 100q-92 0 -154 -83q-27 -34 -33 -44q-6 -11 -18 -31q-13 -20 -36 -6l-27 21q-16 14 -8 28t16 26q66 107 165 152q46 22 95 21
q109 0 205 -101t172 -101z" />
    <glyph glyph-name="uni00A0" unicode="&#xa0;" horiz-adv-x="491" 
 />
    <glyph glyph-name="exclamdown" unicode="&#xa1;" horiz-adv-x="454" 
d="M219 395h17q10 0 18 -7t8 -17l21 -582v-250q0 -27 -31 -26h-51q-27 0 -27 26v248l19 584q0 8 8 16t18 8zM227 803q-35 -1 -59 23t-23 59q0 35 24 59q25 24 59 23q34 0 59 -25q25 -24 25 -58t-25 -58q-25 -23 -60 -23z" />
    <glyph glyph-name="cent" unicode="&#xa2;" horiz-adv-x="1089" 
d="M205 475q-1 -131 69 -234t185 -149l209 780q-31 6 -64 7q-162 0 -280 -118t-119 -286zM115 473q0 211 143 352t346 142q33 0 86 -9l15 50q8 25 34 18l15 -4q25 -6 18 -35l-12 -45q127 -41 192 -121q18 -23 -2 -43l-16 -16q-25 -25 -51 4q-59 57 -148 88l-209 -780
q33 -8 80 -8q164 0 299 145q23 25 45 2l19 -16q18 -18 6 -37q-41 -62 -141 -122t-230 -61q-47 0 -102 11l-53 -203q-6 -20 -33 -16l-15 2q-29 4 -20 32l53 203q-143 49 -231 176t-88 291z" />
    <glyph glyph-name="sterling" unicode="&#xa3;" 
d="M346 453q0 72 -16 165h-88q-27 0 -27 31v8q0 9 8 17t19 8h73q-1 6 -33 125t-32 233q0 182 121 298t295 116q123 0 223 -51q178 -91 131 -143l-16 -19q-20 -20 -46 4q-123 123 -296 123q-134 0 -228 -92t-94 -223t32 -244t34 -127h413q27 0 27 -29v-8q0 -27 -27 -27h-397
q12 -74 12 -165q-4 -201 -76 -369h615q25 0 24 -29v-30q0 -25 -24 -25h-701q-10 0 -18 10t-6 19v18q98 221 98 406z" />
    <glyph glyph-name="currency" unicode="&#xa4;" horiz-adv-x="1001" 
d="M506 463q82 0 138 56t56 136q0 79 -56 139t-139 60t-140 -57t-57 -141t58 -138q58 -55 140 -55zM499 934q91 0 163 -55l108 108q18 18 37 -6l22 -18q14 -20 0 -39l-104 -105q51 -70 51 -162t-51 -157l104 -105q14 -20 -6 -39l-20 -22q-18 -16 -37 -2l-104 104
q-72 -53 -161 -53t-161 53l-104 -108q-19 -10 -39 4l-21 24q-20 16 -4 33l109 109q-53 72 -53 160t53 161l-109 107q-14 20 4 37l21 22q16 14 39 4l104 -108q68 53 159 53z" />
    <glyph glyph-name="yen" unicode="&#xa5;" 
d="M254 285q-25 0 -25 24v13q0 27 25 26h307v180h-307q-25 0 -25 25v12q0 27 25 27h307v104l-481 707q-8 12 -4 21t20 10h62q18 0 26 -13l426 -639l434 639q8 12 27 13h62q16 0 20 -10t-4 -21l-492 -705v-106h308q25 0 24 -27v-12q0 -25 -24 -25h-308v-180h308q25 0 24 -26
v-13q0 -25 -24 -24h-308v-258q0 -27 -26 -27h-45q-25 0 -25 27v258h-307z" />
    <glyph glyph-name="brokenbar" unicode="&#xa6;" horiz-adv-x="423" 
d="M180 242q0 27 27 26h12q25 0 25 -26v-705q0 -25 -27 -24h-10q-27 0 -27 24v705zM207 795q-27 0 -27 26v707q0 27 27 26h12q25 0 25 -26v-707q0 -27 -27 -26h-10z" />
    <glyph glyph-name="section" unicode="&#xa7;" horiz-adv-x="1153" 
d="M924 400q0 106 -92 174t-293 135q-127 35 -193 84q-31 -29 -45 -43t-38 -60t-23 -94q0 -114 80 -180t247 -123q135 -41 238 -100q119 101 119 207zM614 -385q110 0 209 71q101 70 101 184t-96 190t-287 140q-192 64 -295 154q-102 90 -102 228t132 256q-131 123 -131 261
t112 247t329 108q90 0 177 -27t130 -51l43 -26q27 -14 8 -41l-20 -31q-16 -23 -41 -8q-163 98 -317 98t-240 -80t-86 -188t86 -182q86 -72 282 -136t307 -149q111 -86 111 -236q0 -55 -28 -106q-37 -69 -101 -129l-16 -17q143 -119 143 -271t-129 -248t-305 -97
q-104 0 -206 39q-102 38 -145 68q-42 30 -68 54t-9 44l26 33q18 23 40 1t59 -50t127 -66t200 -37z" />
    <glyph glyph-name="dieresis" unicode="&#xa8;" horiz-adv-x="847" 
d="M263 1208q-35 0 -59 24t-24 58t24 58t58 24t59 -24q23 -24 23 -59q0 -33 -24 -57t-57 -24zM654 1208q-34 0 -58 24t-23 58q0 34 24 58q23 24 57 24t59 -24t25 -59q0 -33 -26 -57q-24 -24 -58 -24z" />
    <glyph glyph-name="copyright" unicode="&#xa9;" horiz-adv-x="1738" 
d="M498 713q0 161 114 275t266 114t246 -78q23 -18 4 -39l-18 -22q-14 -18 -35 -2q-77 59 -195 59t-205 -89t-87 -216t87 -215t201 -88t197 63q23 16 39 -4l18 -25q12 -20 -2 -34q-96 -88 -250 -88t-267 113q-113 114 -113 276zM211 717q1 -272 193 -465t464 -193t465 193
t193 465q0 271 -193 463t-465 192t-465 -191q-192 -192 -192 -464zM131 717q0 305 216 521t521 216q304 0 522 -217t218 -521t-217 -520t-523 -216t-521 216q-216 216 -216 521z" />
    <glyph glyph-name="ordfeminine" unicode="&#xaa;" horiz-adv-x="712" 
d="M305 889q59 -1 113 27t78 61v164q-178 66 -277 -13q-51 -41 -51 -101t39 -99t98 -39zM310 825q-95 -1 -150 55q-56 56 -56 145t68 144t167 55t159 -22q0 106 -23 146t-101 41q-78 0 -175 -41q-18 -6 -23 10l-8 26q-6 16 10 25q90 45 195 45t149 -46q45 -46 45 -232v-316
q0 -20 -20 -20h-23q-16 0 -20 16l-6 47q-93 -78 -188 -78z" />
    <glyph glyph-name="guillemotleft" unicode="&#xab;" horiz-adv-x="868" 
d="M399 838q11 0 15 -12t-4 -25l-193 -314l193 -321q8 -14 5 -26t-16 -11h-32q-21 0 -33 18l-221 322q-12 14 0 35l221 315q12 18 33 19h32zM727 838q12 0 15 -12t-5 -25l-192 -314l192 -321q8 -14 5 -26t-15 -11h-33q-20 0 -32 18l-222 322q-12 14 0 35l222 315
q12 18 32 19h33z" />
    <glyph glyph-name="logicalnot" unicode="&#xac;" horiz-adv-x="1193" 
d="M201 670q-27 0 -27 26v31q0 27 27 27h788q25 0 25 -27v-410q0 -25 -27 -24h-33q-27 0 -26 24v353h-727z" />
    <glyph glyph-name="uni00AD" unicode="&#xad;" horiz-adv-x="808" 
d="M172 473q-25 0 -25 27v22q0 27 25 27h463q27 0 27 -27v-22q0 -27 -27 -27h-463z" />
    <glyph glyph-name="registered" unicode="&#xae;" horiz-adv-x="1738" 
d="M688 707h242q72 0 124 44t52 115q0 158 -201 158h-217v-317zM606 369v702q0 27 25 27h299q108 0 184 -60t76 -166t-60 -163t-135 -72l144 -262q6 -11 2 -21t-19 -10h-47q-18 0 -28 21l-138 266h-221v-262q0 -27 -24 -27h-33q-25 0 -25 27zM211 717q1 -272 193 -465
t464 -193t465 193t193 465q0 271 -193 463t-465 192t-465 -191q-192 -192 -192 -464zM131 717q0 305 216 521t521 216q304 0 522 -217t218 -521t-217 -520t-523 -216t-521 216q-216 216 -216 521z" />
    <glyph glyph-name="macron" unicode="&#xaf;" horiz-adv-x="847" 
d="M145 1219q-27 0 -26 24v27q0 27 26 26h557q27 0 27 -26v-27q0 -25 -27 -24h-557z" />
    <glyph glyph-name="degree" unicode="&#xb0;" horiz-adv-x="774" 
d="M386 961q85 0 148 62q62 62 62 147q0 86 -62 148t-148 62t-147 -62q-63 -62 -63 -148t62 -147q62 -62 148 -62zM670 1171q0 -117 -83 -199t-201 -83q-118 0 -200 82q-82 83 -82 201t82 200t200 82t201 -83t83 -200z" />
    <glyph glyph-name="plusminus" unicode="&#xb1;" 
d="M195 178v31q0 27 26 27h789q25 0 24 -27v-31q0 -27 -24 -26h-789q-26 -1 -26 26zM571 524v258h-350q-27 0 -26 27v31q0 27 26 26h350v344q0 25 27 25h33q27 0 26 -25v-344h353q25 0 24 -26v-31q0 -27 -24 -27h-353v-258q0 -27 -26 -26h-33q-27 -1 -27 26z" />
    <glyph glyph-name="twosuperior" unicode="&#xb2;" horiz-adv-x="589" 
d="M90 1032q-18 0 -18 17v18l284 266q74 70 74 127t-39 94t-109 37t-139 -67q-10 -12 -20 -2l-27 24q-10 10 -2 20t22 26q14 15 65 41q50 26 106 26q102 0 159 -53q58 -53 58 -138t-94 -174l-217 -198h292q14 0 15 -17v-30q0 -16 -15 -17h-395z" />
    <glyph glyph-name="threesuperior" unicode="&#xb3;" horiz-adv-x="610" 
d="M293 1012q-145 0 -215 84q-12 10 0 22l22 23q14 14 27 0q66 -66 174 -66q59 0 103 33t44 83t-42 84q-43 34 -123 34h-93q-16 0 -16 20v25q0 16 16 16h93q65 0 107 29t42 81t-39 83t-111 31t-135 -62q-12 -12 -20 -2l-27 22q-12 12 -3 22t25 24q16 13 67 37q52 24 126 24
q73 0 133 -45t60 -123q0 -47 -32 -88t-75 -60q3 -2 13 -5q66 -21 99 -89q13 -29 13 -61q0 -76 -66 -126t-167 -50z" />
    <glyph glyph-name="acute" unicode="&#xb4;" horiz-adv-x="618" 
d="M188 1143q-20 -8 -28 8l-13 27q-8 16 13 28l338 178q23 14 34 -6l21 -41q10 -23 -18 -37z" />
    <glyph glyph-name="mu" unicode="&#xb5;" horiz-adv-x="1073" 
d="M188 -457v1372q0 11 10 21t21 10h31q29 0 29 -31v-518q0 -168 62 -250t206 -81q176 0 299 176v673q0 31 31 31h30q9 0 19 -9t10 -22v-884q0 -11 -9 -21t-20 -10h-18q-25 0 -29 29l-8 92q-20 -27 -50 -53t-104 -59q-74 -32 -157 -32q-180 0 -262 93v-527q0 -31 -31 -30
h-33q-27 -1 -27 30z" />
    <glyph glyph-name="paragraph" unicode="&#xb6;" horiz-adv-x="1470" 
d="M485 580q-175 0 -289 127t-114 301t117 300t286 126h877q27 0 27 -27v-25q0 -27 -27 -26h-219v-1817q0 -27 -27 -26h-22q-27 0 -27 26v1817h-358v-1817q0 -27 -27 -26h-23q-27 0 -26 26v1041h-148z" />
    <glyph glyph-name="periodcentered" unicode="&#xb7;" horiz-adv-x="460" 
d="M231 453q-35 1 -59 25t-25 58q0 34 25 58q26 24 60 22q34 0 58 -24t24 -58t-24 -58q-24 -23 -59 -23z" />
    <glyph glyph-name="cedilla" unicode="&#xb8;" horiz-adv-x="505" 
d="M272 -137q74 0 130 -41t56 -124t-60 -132q-62 -49 -156 -49t-162 63q-12 12 -2 27l20 39q10 14 27 2q47 -51 117 -51q129 0 129 96q0 45 -34 69t-89 23q-55 0 -101 -18q-10 -4 -20 5t-6 19l117 213l84 -4l-89 -141q12 4 39 4z" />
    <glyph glyph-name="onesuperior" unicode="&#xb9;" horiz-adv-x="362" 
d="M201 1032q-16 0 -17 17v493l-96 -57q-12 -6 -18 4l-13 20q-6 12 6 23l150 106h25q20 0 20 -16v-573q0 -16 -16 -17h-41z" />
    <glyph glyph-name="ordmasculine" unicode="&#xba;" horiz-adv-x="731" 
d="M365 874q84 0 131 67t47 187t-47 191q-47 70 -130 70t-130 -70q-48 -70 -48 -190q0 -119 46 -187t131 -68zM365 1454q119 0 185 -86t66 -238t-66 -238t-184 -85q-118 0 -185 86q-67 87 -67 237t66 237t185 87z" />
    <glyph glyph-name="guillemotright" unicode="&#xbb;" horiz-adv-x="868" 
d="M141 129q-12 0 -15 11t5 26l193 321l-193 314q-8 14 -5 25t15 12h33q20 0 33 -19l221 -315q12 -20 0 -35l-221 -322q-12 -18 -33 -18h-33zM502 838q20 0 33 -19l221 -315q12 -20 0 -35l-221 -322q-12 -18 -33 -18h-33q-12 -1 -15 11t5 26l192 321l-192 314q-8 14 -5 25
t15 12h33z" />
    <glyph glyph-name="onequarter" unicode="&#xbc;" horiz-adv-x="1273" 
d="M1008 211v266l-244 -266h244zM647 160v18l387 428h29q20 0 20 -18v-379h80q18 0 19 -16v-33q0 -16 -19 -17h-80v-125q0 -18 -20 -18h-35q-20 0 -20 18v123h-342q-19 1 -19 19zM242 827q-16 0 -17 17v493l-96 -57q-12 -6 -18 4l-13 21q-6 12 6 22l150 107h25q20 0 20 -17
v-573q0 -16 -16 -17h-41zM999 1434q31 0 17 -29l-787 -1395q-6 -10 -26 -10h-31q-30 0 -16 29l786 1394q6 10 27 11h30z" />
    <glyph glyph-name="onehalf" unicode="&#xbd;" horiz-adv-x="1327" 
d="M795 16v19l284 266q72 68 73 126t-38 95q-40 37 -110 37t-138 -67q-10 -12 -20 -3l-27 25q-10 10 -2 20q9 10 23 26q14 15 64 41t106 26q102 1 159 -53t57 -139t-93 -173l-218 -199h293q14 0 15 -16v-31q0 -16 -15 -16h-395q-18 0 -18 16zM242 827q-16 0 -17 17v493
l-96 -57q-12 -6 -18 4l-13 21q-6 12 6 22l150 107h25q20 0 20 -17v-573q0 -16 -16 -17h-41zM999 1434q31 0 17 -29l-787 -1395q-6 -10 -26 -10h-31q-30 0 -16 29l786 1394q6 10 27 11h30z" />
    <glyph glyph-name="threequarters" unicode="&#xbe;" horiz-adv-x="1423" 
d="M1155 211v266l-244 -266h244zM795 160v18l387 428h28q20 0 21 -18v-379h80q18 0 18 -16v-33q0 -16 -18 -17h-80v-125q0 -18 -21 -18h-34q-20 0 -21 18v123h-342q-18 1 -18 19zM1147 1434q31 0 16 -29l-786 -1395q-6 -10 -27 -10h-31q-30 0 -16 29l787 1394q6 10 26 11h31
zM322 807q-145 0 -216 84q-12 10 0 22l23 23q14 14 27 0q66 -66 173 -66q60 0 104 33t44 83t-43 84t-123 34h-92q-16 0 -16 20v25q0 16 16 16h92q66 0 108 29t42 81t-39 83q-40 31 -112 31t-134 -62q-12 -12 -20 -2l-27 23q-12 12 -3 22q8 10 24 24t68 37t126 23t133 -45
t60 -123q0 -47 -32 -88t-75 -59q4 -2 13 -5q9 -2 31 -16q81 -50 81 -131q1 -80 -65 -130t-168 -50z" />
    <glyph glyph-name="questiondown" unicode="&#xbf;" horiz-adv-x="888" 
d="M446 240v116q0 29 27 29h39q25 0 25 -29v-118q1 -66 -53 -125t-118 -99t-118 -99q-53 -60 -53 -138t68 -142q69 -63 169 -63t159 27q60 27 81 47q22 20 34 31q11 11 22 23t13 15q14 14 35 2l21 -14q23 -14 6 -39q-75 -112 -230 -156q-63 -18 -133 -18q-154 0 -246 81
t-92 208q0 76 36 137t86 101t100 74q122 82 122 149zM494 803q-35 -1 -60 23t-24 59q0 35 24 59t60 23q34 0 58 -25q24 -24 24 -58t-24 -58q-23 -24 -58 -23z" />
    <glyph glyph-name="Agrave" unicode="&#xc0;" horiz-adv-x="1333" 
d="M852 1602l-352 161q-18 10 -8 31l20 41q10 18 35 6l336 -184q18 -10 12 -29l-10 -20q-8 -16 -33 -6zM309 475h711l-350 815h-4zM23 0q-25 0 -15 25l631 1415q8 14 25 14h6q18 0 26 -14l625 -1415q8 -25 -18 -25h-54q-20 0 -28 18l-166 377h-783l-163 -377
q-10 -18 -29 -18h-57z" />
    <glyph glyph-name="Aacute" unicode="&#xc1;" horiz-adv-x="1333" 
d="M532 1602q-25 -10 -32 6l-11 20q-6 18 13 29l336 184q25 12 34 -6l21 -41q10 -20 -8 -31zM309 475h711l-350 815h-4zM23 0q-25 0 -15 25l631 1415q8 14 25 14h6q18 0 26 -14l625 -1415q8 -25 -18 -25h-54q-20 0 -28 18l-166 377h-783l-163 -377q-10 -18 -29 -18h-57z" />
    <glyph glyph-name="Acircumflex" unicode="&#xc2;" horiz-adv-x="1333" 
d="M668 1839h6q10 0 20 -10l248 -201q18 -14 8 -29l-18 -22q-12 -16 -31 -4l-231 172l-230 -172q-18 -12 -30 4l-19 22q-10 14 8 29l248 201q10 10 21 10zM309 475h711l-350 815h-4zM23 0q-25 0 -15 25l631 1415q8 14 25 14h6q18 0 26 -14l625 -1415q8 -25 -18 -25h-54
q-20 0 -28 18l-166 377h-783l-163 -377q-10 -18 -29 -18h-57z" />
    <glyph glyph-name="Atilde" unicode="&#xc3;" horiz-adv-x="1333" 
d="M562 1851q44 -1 79 -29t50 -64t40 -64t57 -29q76 0 117 121q8 27 31 14l22 -8q24 -12 0 -62q-8 -18 -28 -56t-60 -62t-88 -23q-49 0 -83 30q-34 31 -50 65t-42 64t-56 30q-76 0 -117 -127q-6 -25 -31 -15l-24 11q-20 6 -12 28q49 125 116 160q35 16 79 16zM309 475h711
l-350 815h-4zM23 0q-25 0 -15 25l631 1415q8 14 25 14h6q18 0 26 -14l625 -1415q8 -25 -18 -25h-54q-20 0 -28 18l-166 377h-783l-163 -377q-10 -18 -29 -18h-57z" />
    <glyph glyph-name="Adieresis" unicode="&#xc4;" horiz-adv-x="1333" 
d="M459 1792q35 0 59 -25t25 -59q-1 -34 -25 -56q-24 -24 -58 -24t-59 24t-25 58t24 58t59 24zM887 1792q35 0 59 -25t25 -59q-1 -34 -25 -56q-24 -24 -58 -24t-59 24t-25 58t24 58t59 24zM309 475h711l-350 815h-4zM23 0q-25 0 -15 25l631 1415q8 14 25 14h6q18 0 26 -14
l625 -1415q8 -25 -18 -25h-54q-20 0 -28 18l-166 377h-783l-163 -377q-10 -18 -29 -18h-57z" />
    <glyph glyph-name="Aring" unicode="&#xc5;" horiz-adv-x="1333" 
d="M674 1610q61 0 106 45t45 106t-45 107t-106 45q-60 0 -106 -45q-46 -44 -46 -106t46 -107t106 -45zM674 1544q-92 0 -154 62t-63 155q0 91 62 155q61 64 153 64t156 -63t65 -155t-63 -156q-64 -62 -156 -62zM309 475h711l-350 815h-4zM23 0q-25 0 -15 25l631 1415
q8 14 25 14h6q18 0 26 -14l625 -1415q8 -25 -18 -25h-54q-20 0 -28 18l-166 377h-783l-163 -377q-10 -18 -29 -18h-57z" />
    <glyph glyph-name="AE" unicode="&#xc6;" horiz-adv-x="1847" 
d="M866 475v782l-497 -782h497zM-6 0q-31 0 -8 35l870 1364q20 35 51 35h805q27 0 27 -27v-33q0 -27 -27 -26h-756v-568h658q27 0 26 -26v-35q0 -27 -26 -27h-658v-606h756q27 0 27 -29v-30q0 -27 -27 -27h-819q-27 0 -27 27v368h-544l-238 -377q-12 -18 -33 -18h-57z" />
    <glyph glyph-name="Ccedilla" unicode="&#xc7;" horiz-adv-x="1464" 
d="M115 724q0 298 217 514t515 216t507 -190q18 -18 2 -37l-33 -35q-16 -16 -35 2q-188 168 -444 168t-442 -190t-185 -457q0 -267 185 -455t454 -188q225 0 432 172q20 16 33 4l35 -35q18 -16 0 -35q-199 -195 -494 -198l-76 -121q12 4 39 4q74 0 130 -41q57 -41 57 -124
t-62 -132t-155 -49q-94 0 -162 63q-12 12 -2 27l20 39q10 14 27 2q47 -51 117 -51q129 0 129 96q0 45 -34 69t-89 23q-55 0 -101 -18q-10 -4 -20 5t-6 19l104 193q-283 30 -473 236t-190 504z" />
    <glyph glyph-name="Egrave" unicode="&#xc8;" horiz-adv-x="1185" 
d="M813 1602l-352 161q-18 10 -8 31l20 41q10 18 35 6l336 -184q18 -10 12 -29l-10 -20q-8 -16 -33 -6zM207 27v1380q0 27 26 27h822q27 0 26 -27v-35q0 -27 -26 -26h-750v-566h649q27 0 27 -26v-35q0 -27 -27 -27h-649v-606h750q27 0 26 -27v-32q0 -27 -26 -27h-822
q-26 0 -26 27z" />
    <glyph glyph-name="Eacute" unicode="&#xc9;" horiz-adv-x="1185" 
d="M494 1602q-25 -10 -33 6l-10 20q-6 18 12 29l336 184q25 12 35 -6l20 -41q10 -20 -8 -31zM207 27v1380q0 27 26 27h822q27 0 26 -27v-35q0 -27 -26 -26h-750v-566h649q27 0 27 -26v-35q0 -27 -27 -27h-649v-606h750q27 0 26 -27v-32q0 -27 -26 -27h-822q-26 0 -26 27z
" />
    <glyph glyph-name="Ecircumflex" unicode="&#xca;" horiz-adv-x="1185" 
d="M629 1839h6q10 0 20 -10l248 -201q18 -14 8 -29l-18 -22q-12 -16 -31 -4l-231 172l-230 -172q-18 -12 -30 4l-19 22q-10 14 8 29l248 201q10 10 21 10zM207 27v1380q0 27 26 27h822q27 0 26 -27v-35q0 -27 -26 -26h-750v-566h649q27 0 27 -26v-35q0 -27 -27 -27h-649
v-606h750q27 0 26 -27v-32q0 -27 -26 -27h-822q-26 0 -26 27z" />
    <glyph glyph-name="Edieresis" unicode="&#xcb;" horiz-adv-x="1185" 
d="M429 1628q-35 0 -59 24t-24 58t24 58t58 24t60 -25q24 -25 24 -59t-24 -56q-24 -24 -59 -24zM857 1628q-35 0 -59 24t-24 58t24 58t58 24t60 -25q24 -25 24 -59t-24 -56q-24 -24 -59 -24zM207 27v1380q0 27 26 27h822q27 0 26 -27v-35q0 -27 -26 -26h-750v-566h649
q27 0 27 -26v-35q0 -27 -27 -27h-649v-606h750q27 0 26 -27v-32q0 -27 -26 -27h-822q-26 0 -26 27z" />
    <glyph glyph-name="Igrave" unicode="&#xcc;" horiz-adv-x="512" 
d="M434 1602l-352 161q-18 10 -8 31l20 41q10 18 35 6l336 -184q18 -10 12 -29l-10 -20q-8 -16 -33 -6zM207 27v1380q0 27 26 27h46q27 0 26 -27v-1380q0 -27 -29 -27h-43q-26 0 -26 27z" />
    <glyph glyph-name="Iacute" unicode="&#xcd;" horiz-adv-x="512" 
d="M115 1602q-25 -10 -33 6l-10 20q-6 18 12 29l336 184q25 12 35 -6l20 -41q10 -20 -8 -31zM207 27v1380q0 27 26 27h46q27 0 26 -27v-1380q0 -27 -29 -27h-43q-26 0 -26 27z" />
    <glyph glyph-name="Icircumflex" unicode="&#xce;" horiz-adv-x="512" 
d="M250 1839h6q10 0 20 -10l248 -201q18 -14 8 -29l-18 -22q-12 -16 -31 -4l-231 172l-229 -172q-18 -12 -31 4l-19 22q-10 14 9 29l247 201q10 10 21 10zM207 27v1380q0 27 26 27h46q27 0 26 -27v-1380q0 -27 -29 -27h-43q-26 0 -26 27z" />
    <glyph glyph-name="Idieresis" unicode="&#xcf;" horiz-adv-x="512" 
d="M42 1628q-34 0 -58 24t-25 58q0 34 24 58q25 24 59 24t58 -25t25 -59q-1 -34 -25 -56q-24 -24 -58 -24zM470 1628q-34 0 -58 24t-25 58q0 34 24 58q25 24 59 24t58 -25t25 -59q-1 -34 -25 -56q-24 -24 -58 -24zM207 27v1380q0 27 26 27h46q27 0 26 -27v-1380
q0 -27 -29 -27h-43q-26 0 -26 27z" />
    <glyph glyph-name="Eth" unicode="&#xd0;" horiz-adv-x="1503" 
d="M303 88h346q268 0 451 181q182 181 182 449t-182 447q-182 180 -451 181h-346v-603h512q27 0 27 -26v-12q0 -25 -27 -25h-512v-592zM207 27v653h-72q-25 0 -24 27v10q0 27 24 26h72v664q0 27 24 27h435q297 0 509 -210q211 -210 211 -507t-210 -507t-510 -210h-435
q-24 0 -24 27z" />
    <glyph glyph-name="Ntilde" unicode="&#xd1;" horiz-adv-x="1562" 
d="M683 1851q44 -1 79 -29t50 -64t40 -64t57 -29q76 0 117 121q8 27 31 14l22 -8q24 -12 0 -62q-8 -18 -28 -56q-19 -38 -59 -62t-89 -23q-49 0 -83 30q-34 31 -50 65t-42 64t-56 30q-76 0 -117 -127q-6 -25 -31 -15l-24 11q-20 6 -13 28q49 125 117 160q35 16 79 16z
M209 27v1400q0 27 31 27h14q23 0 33 -16l970 -1264h3v1233q0 27 26 27h41q27 0 27 -27v-1401q0 -27 -33 -26h-6q-23 0 -33 16l-979 1276h-2v-1245q0 -27 -27 -27h-38q-27 0 -27 27z" />
    <glyph glyph-name="Ograve" unicode="&#xd2;" horiz-adv-x="1705" 
d="M1032 1602l-352 161q-18 10 -8 31l20 41q10 18 35 6l336 -184q18 -10 12 -29l-10 -20q-8 -16 -33 -6zM205 715q0 -269 189 -457q190 -188 458 -188t459 188q190 188 190 456t-190 460q-191 190 -459 190t-458 -190q-189 -191 -189 -459zM115 715q0 307 215 523t523 216
t523 -216t215 -524t-215 -521t-523 -213t-523 214t-215 521z" />
    <glyph glyph-name="Oacute" unicode="&#xd3;" horiz-adv-x="1705" 
d="M713 1602q-25 -10 -33 6l-10 20q-6 18 12 29l336 184q25 12 35 -6l20 -41q10 -20 -8 -31zM205 715q0 -269 189 -457q190 -188 458 -188t459 188q190 188 190 456t-190 460q-191 190 -459 190t-458 -190q-189 -191 -189 -459zM115 715q0 307 215 523t523 216t523 -216
t215 -524t-215 -521t-523 -213t-523 214t-215 521z" />
    <glyph glyph-name="Ocircumflex" unicode="&#xd4;" horiz-adv-x="1705" 
d="M848 1839h6q10 0 20 -10l248 -201q18 -14 8 -29l-18 -22q-12 -16 -31 -4l-231 172l-229 -172q-18 -12 -31 4l-19 22q-10 14 9 29l247 201q10 10 21 10zM205 715q0 -269 189 -457q190 -188 458 -188t459 188q190 188 190 456t-190 460q-191 190 -459 190t-458 -190
q-189 -191 -189 -459zM115 715q0 307 215 523t523 216t523 -216t215 -524t-215 -521t-523 -213t-523 214t-215 521z" />
    <glyph glyph-name="Otilde" unicode="&#xd5;" horiz-adv-x="1705" 
d="M742 1851q44 -1 79 -29t50 -64q39 -93 98 -93q76 0 116 121q8 27 31 14l23 -8q29 -14 -22 -107q-52 -96 -154 -96q-49 0 -83 30q-34 31 -50 65t-43 64q-26 30 -56 30q-76 0 -117 -127q-5 -25 -30 -15l-25 11q-20 6 -12 28q49 125 117 160q34 16 78 16zM205 715
q0 -269 189 -457q190 -188 458 -188t459 188q190 188 190 456t-190 460q-191 190 -459 190t-458 -190q-189 -191 -189 -459zM115 715q0 307 215 523t523 216t523 -216t215 -524t-215 -521t-523 -213t-523 214t-215 521z" />
    <glyph glyph-name="Odieresis" unicode="&#xd6;" horiz-adv-x="1705" 
d="M640 1628q-34 0 -58 24t-25 58q0 34 24 58q25 24 59 24t58 -25t25 -59q-1 -34 -25 -56q-24 -24 -58 -24zM1068 1628q-34 0 -58 24t-25 58q0 34 24 58q25 24 59 24t58 -25t25 -59q-1 -34 -25 -56q-24 -24 -58 -24zM205 715q0 -269 189 -457q190 -188 458 -188t459 188
q190 188 190 456t-190 460q-191 190 -459 190t-458 -190q-189 -191 -189 -459zM115 715q0 307 215 523t523 216t523 -216t215 -524t-215 -521t-523 -213t-523 214t-215 521z" />
    <glyph glyph-name="multiply" unicode="&#xd7;" 
d="M345 395q-11 0 -17 8l-25 23q-18 18 0 37l248 248l-248 247q-16 20 0 39l23 23q18 20 39 0l247 -248l248 250q18 16 37 -2l25 -23q16 -20 0 -36l-248 -250l248 -248q20 -20 0 -37l-25 -23q-18 -23 -35 -2l-250 250l-250 -248q-6 -8 -17 -8z" />
    <glyph glyph-name="Oslash" unicode="&#xd8;" horiz-adv-x="1703" 
d="M856 70q264 0 455 188q190 188 190 446t-164 441l-927 -903q182 -172 446 -172zM846 1364q-262 0 -452 -190t-189 -448q0 -258 160 -439l929 903q-186 174 -448 174zM115 727q0 295 215 511t516 216t512 -201l135 131q16 19 39 -4q22 -22 4 -41l-133 -131
q188 -216 188 -508t-216 -506t-520 -214t-511 196l-131 -127q-16 -19 -39 4q-22 22 -4 41l129 127q-184 211 -184 506z" />
    <glyph glyph-name="Ugrave" unicode="&#xd9;" horiz-adv-x="1460" 
d="M928 1602l-353 161q-18 10 -8 31l21 41q10 18 35 6l335 -184q18 -10 13 -29l-10 -20q-8 -16 -33 -6zM195 514v893q0 27 26 27h43q27 0 27 -27v-883q0 -202 119 -326q118 -124 320 -124t322 124t119 324v885q0 27 29 27h41q27 0 27 -27v-893q0 -238 -148 -386t-391 -148
q-242 0 -388 148t-146 386z" />
    <glyph glyph-name="Uacute" unicode="&#xda;" horiz-adv-x="1460" 
d="M608 1602q-25 -10 -33 6l-10 20q-6 18 13 29l335 184q25 12 35 -6l21 -41q10 -20 -8 -31zM195 514v893q0 27 26 27h43q27 0 27 -27v-883q0 -202 119 -326q118 -124 320 -124t322 124t119 324v885q0 27 29 27h41q27 0 27 -27v-893q0 -238 -148 -386t-391 -148
q-242 0 -388 148t-146 386z" />
    <glyph glyph-name="Ucircumflex" unicode="&#xdb;" horiz-adv-x="1460" 
d="M743 1839h7q10 0 20 -10l248 -201q18 -14 8 -29l-18 -22q-12 -16 -31 -4l-232 172l-229 -172q-18 -12 -31 4l-18 22q-10 14 8 29l248 201q10 10 20 10zM195 514v893q0 27 26 27h43q27 0 27 -27v-883q0 -202 119 -326q118 -124 320 -124t322 124t119 324v885q0 27 29 27
h41q27 0 27 -27v-893q0 -238 -148 -386t-391 -148q-242 0 -388 148t-146 386z" />
    <glyph glyph-name="Udieresis" unicode="&#xdc;" horiz-adv-x="1460" 
d="M535 1792q35 0 59 -25t24 -59t-24 -56q-24 -24 -58 -24t-59 24t-25 58t24 58t59 24zM963 1792q35 0 59 -25t25 -59q-1 -34 -25 -56q-24 -24 -58 -24t-59 24t-25 58t24 58t59 24zM195 514v893q0 27 26 27h43q27 0 27 -27v-883q0 -202 119 -326q118 -124 320 -124t322 124
t119 324v885q0 27 29 27h41q27 0 27 -27v-893q0 -238 -148 -386t-391 -148q-242 0 -388 148t-146 386z" />
    <glyph glyph-name="Yacute" unicode="&#xdd;" horiz-adv-x="1159" 
d="M420 1602q-25 -10 -33 6l-10 20q-6 18 12 29l336 184q25 12 35 -6l20 -41q10 -20 -8 -31zM561 0q-31 0 -31 27v669l-522 707q-19 29 17 31h61q16 0 27 -13l467 -637l475 637q10 12 26 13h62q16 0 20 -10t-4 -21l-532 -705v-671q0 -27 -27 -27h-39z" />
    <glyph glyph-name="Thorn" unicode="&#xde;" horiz-adv-x="1212" 
d="M303 350h367q152 0 262 110t108 262q0 152 -109 257q-110 104 -263 104h-365v-733zM207 27v1380q0 27 26 27h43q27 0 27 -27v-227h371q190 0 326 -134t136 -325t-134 -327q-136 -136 -326 -136h-373v-231q0 -27 -33 -27h-37q-26 0 -26 27z" />
    <glyph glyph-name="germandbls" unicode="&#xdf;" horiz-adv-x="1193" 
d="M172 29v874q0 275 103 413t331 138q154 0 253 -93t99 -243t-122 -307q-41 -53 -41 -75t47 -61q47 -38 102 -81q54 -43 102 -121t48 -166q0 -166 -100 -248t-234 -82q-136 0 -242 54q-25 12 -14 37l10 26q12 29 33 19q94 -47 194 -47q258 0 258 241q0 78 -48 145
q-48 68 -104 106q-153 105 -153 169q0 37 43 98t86 134t43 141q0 118 -76 192t-186 74q-184 0 -263 -110t-79 -353v-874q0 -29 -29 -29h-36q-25 0 -25 29z" />
    <glyph glyph-name="agrave" unicode="&#xe0;" horiz-adv-x="980" 
d="M672 1145l-353 162q-18 10 -8 30l21 41q10 18 35 6l335 -184q18 -10 13 -29l-10 -20q-8 -16 -33 -6zM486 530q-138 0 -223 -66t-85 -169q0 -101 66 -165t164 -64t188 46t131 97v272q-103 49 -241 49zM381 -23q-119 -1 -205 85t-86 227t106 231t287 90q115 0 244 -43
q0 172 -41 244t-172 72q-89 0 -163 -22q-73 -22 -95 -32t-25 -10q-29 -12 -36 15l-11 28q-12 20 6 30q57 34 150 54q289 60 410 -52q55 -53 64 -201q3 -48 3 -138v-524q0 -11 -10 -21t-23 -10h-16q-27 0 -29 27l-10 86q-53 -53 -141 -95t-207 -41z" />
    <glyph glyph-name="aacute" unicode="&#xe1;" horiz-adv-x="980" 
d="M346 1143q-20 -8 -29 8l-12 27q-8 16 12 28l338 178q23 14 35 -6l21 -41q10 -23 -19 -37zM486 530q-138 0 -223 -66t-85 -169q0 -101 66 -165t164 -64t188 46t131 97v272q-103 49 -241 49zM381 -23q-119 -1 -205 85t-86 227t106 231t287 90q115 0 244 -43q0 172 -41 244
t-172 72q-89 0 -163 -22q-73 -22 -95 -32t-25 -10q-29 -12 -36 15l-11 28q-12 20 6 30q57 34 150 54q289 60 410 -52q55 -53 64 -201q3 -48 3 -138v-524q0 -11 -10 -21t-23 -10h-16q-27 0 -29 27l-10 86q-53 -53 -141 -95t-207 -41z" />
    <glyph glyph-name="acircumflex" unicode="&#xe2;" horiz-adv-x="980" 
d="M487 1393q10 0 21 -11l248 -200q18 -14 8 -29l-19 -23q-12 -16 -30 -4l-232 172l-229 -172q-18 -12 -31 4l-18 23q-10 14 8 29l248 200q10 10 20 11h6zM486 530q-138 0 -223 -66t-85 -169q0 -101 66 -165t164 -64t188 46t131 97v272q-103 49 -241 49zM381 -23
q-119 -1 -205 85t-86 227t106 231t287 90q115 0 244 -43q0 172 -41 244t-172 72q-89 0 -163 -22q-73 -22 -95 -32t-25 -10q-29 -12 -36 15l-11 28q-12 20 6 30q57 34 150 54q289 60 410 -52q55 -53 64 -201q3 -48 3 -138v-524q0 -11 -10 -21t-23 -10h-16q-27 0 -29 27
l-10 86q-53 -53 -141 -95t-207 -41z" />
    <glyph glyph-name="atilde" unicode="&#xe3;" horiz-adv-x="980" 
d="M608 1214q76 0 117 121q8 27 31 15l22 -9q23 -11 -7 -80q-29 -68 -75 -95q-45 -28 -94 -28t-83 30t-50 65t-42 65t-56 29q-76 0 -117 -127q-6 -24 -31 -14l-24 10q-20 6 -13 29q49 125 117 159q35 16 79 16t79 -28t50 -64t40 -65t57 -29zM486 530q-138 0 -223 -66
t-85 -169q0 -101 66 -165t164 -64t188 46t131 97v272q-103 49 -241 49zM381 -23q-119 -1 -205 85t-86 227t106 231t287 90q115 0 244 -43q0 172 -41 244t-172 72q-89 0 -163 -22q-73 -22 -95 -32t-25 -10q-29 -12 -36 15l-11 28q-12 20 6 30q57 34 150 54q289 60 410 -52
q55 -53 64 -201q3 -48 3 -138v-524q0 -11 -10 -21t-23 -10h-16q-27 0 -29 27l-10 86q-53 -53 -141 -95t-207 -41z" />
    <glyph glyph-name="adieresis" unicode="&#xe4;" horiz-adv-x="980" 
d="M385 1289q1 -33 -23 -57t-58 -24t-58 24t-25 58q0 34 24 58q25 24 59 24t58 -24t23 -59zM695 1208q-33 0 -57 24t-24 58t24 58t58 24t58 -24t24 -59q0 -33 -24 -57t-59 -24zM486 530q-138 0 -223 -66t-85 -169q0 -101 66 -165t164 -64t188 46t131 97v272q-103 49 -241 49
zM381 -23q-119 -1 -205 85t-86 227t106 231t287 90q115 0 244 -43q0 172 -41 244t-172 72q-89 0 -163 -22q-73 -22 -95 -32t-25 -10q-29 -12 -36 15l-11 28q-12 20 6 30q57 34 150 54q289 60 410 -52q55 -53 64 -201q3 -48 3 -138v-524q0 -11 -10 -21t-23 -10h-16
q-27 0 -29 27l-10 86q-53 -53 -141 -95t-207 -41z" />
    <glyph glyph-name="aring" unicode="&#xe5;" horiz-adv-x="980" 
d="M484 1106q60 0 106 45q45 45 45 106t-45 107q-46 46 -106 45q-60 0 -106 -45q-46 -44 -46 -106t46 -107t106 -45zM702 1258q0 -92 -64 -156q-64 -62 -154 -62q-91 0 -154 62t-64 155q0 91 64 155t154 64t154 -62q64 -64 64 -156zM486 530q-138 0 -223 -66t-85 -169
q0 -101 66 -165t164 -64t188 46t131 97v272q-103 49 -241 49zM381 -23q-119 -1 -205 85t-86 227t106 231t287 90q115 0 244 -43q0 172 -41 244t-172 72q-89 0 -163 -22q-73 -22 -95 -32t-25 -10q-29 -12 -36 15l-11 28q-12 20 6 30q57 34 150 54q289 60 410 -52
q55 -53 64 -201q3 -48 3 -138v-524q0 -11 -10 -21t-23 -10h-16q-27 0 -29 27l-10 86q-53 -53 -141 -95t-207 -41z" />
    <glyph glyph-name="ae" unicode="&#xe6;" horiz-adv-x="1640" 
d="M178 292q0 -106 71 -166t168 -60t184 45t126 98v274l-55 19q-93 28 -207 28q-113 0 -200 -66t-87 -172zM813 528h643q0 146 -91 250t-245 105q-197 0 -307 -174v-181zM90 292q0 142 104 230t277 88q80 0 156 -15t100 -28q0 174 -39 245t-168 71t-293 -66q-27 -6 -34 19
l-13 34q-4 23 21 31q135 66 325 66q115 0 175 -36t90 -108q129 143 322 143t313 -120q120 -121 120 -309q0 -92 -33 -93h-700v-202q111 -176 315 -176q131 0 283 92q31 18 43 2l23 -35q12 -18 -21 -47t-133 -65t-203 -36q-215 0 -344 162q-53 -63 -154 -112t-228 -49
t-216 85q-88 87 -88 229z" />
    <glyph glyph-name="ccedilla" unicode="&#xe7;" horiz-adv-x="1058" 
d="M106 479q0 205 144 346t346 142q123 0 215 -47t133 -99q18 -23 -2 -43l-16 -16q-25 -25 -54 7q-28 32 -104 71t-172 39q-162 0 -281 -118t-119 -288t118 -289q116 -118 282 -118t301 145q23 25 45 2l19 -16q18 -18 6 -37q-37 -56 -129 -114t-211 -66l-74 -121q12 4 39 4
q74 0 130 -41t56 -124t-61 -132t-155 -49t-163 63q-12 12 -2 27l21 39q10 14 26 2q47 -51 117 -51q129 0 129 96q0 45 -34 69t-89 23q-55 0 -100 -18q-10 -4 -21 5q-10 9 -6 19l103 189q-186 18 -312 156q-125 138 -125 343z" />
    <glyph glyph-name="egrave" unicode="&#xe8;" horiz-adv-x="1083" 
d="M735 1145l-352 162q-18 10 -8 30l20 41q10 18 35 6l336 -184q18 -10 12 -29l-10 -20q-8 -16 -33 -6zM899 528q0 146 -90 248t-243 102t-254 -100t-111 -250h698zM565 -23q-205 1 -331 143t-125 352q0 210 125 352q126 142 322 142t314 -122q119 -123 119 -307
q0 -92 -35 -93h-755q4 -158 109 -268t257 -110t291 94q29 16 41 0l23 -35q16 -16 -22 -47t-134 -66t-199 -35z" />
    <glyph glyph-name="eacute" unicode="&#xe9;" horiz-adv-x="1083" 
d="M414 1143q-20 -8 -29 8l-12 27q-8 16 12 28l338 178q23 14 35 -6l20 -41q10 -23 -18 -37zM899 528q0 146 -90 248t-243 102t-254 -100t-111 -250h698zM565 -23q-205 1 -331 143t-125 352q0 210 125 352q126 142 322 142t314 -122q119 -123 119 -307q0 -92 -35 -93h-755
q4 -158 109 -268t257 -110t291 94q29 16 41 0l23 -35q16 -16 -22 -47t-134 -66t-199 -35z" />
    <glyph glyph-name="ecircumflex" unicode="&#xea;" horiz-adv-x="1083" 
d="M580 1393q10 0 20 -11l248 -200q18 -14 8 -29l-18 -23q-12 -16 -31 -4l-232 172l-229 -172q-18 -12 -31 4l-18 23q-10 14 8 29l248 200q10 10 20 11h7zM899 528q0 146 -90 248t-243 102t-254 -100t-111 -250h698zM565 -23q-205 1 -331 143t-125 352q0 210 125 352
q126 142 322 142t314 -122q119 -123 119 -307q0 -92 -35 -93h-755q4 -158 109 -268t257 -110t291 94q29 16 41 0l23 -35q16 -16 -22 -47t-134 -66t-199 -35z" />
    <glyph glyph-name="edieresis" unicode="&#xeb;" horiz-adv-x="1083" 
d="M461 1289q1 -33 -23 -57t-58 -24t-58 24t-25 58q0 34 24 58q25 24 59 24t58 -24t23 -59zM854 1289q0 -33 -24 -57t-59 -24q-33 0 -57 24t-24 58t24 58t58 24t58 -24t24 -59zM899 528q0 146 -90 248t-243 102t-254 -100t-111 -250h698zM565 -23q-205 1 -331 143t-125 352
q0 210 125 352q126 142 322 142t314 -122q119 -123 119 -307q0 -92 -35 -93h-755q4 -158 109 -268t257 -110t291 94q29 16 41 0l23 -35q16 -16 -22 -47t-134 -66t-199 -35z" />
    <glyph glyph-name="igrave" unicode="&#xec;" horiz-adv-x="434" 
d="M385 1145l-352 162q-18 10 -8 30l20 41q10 18 35 6l336 -184q18 -10 12 -29l-10 -20q-8 -16 -33 -6zM172 31v884q0 31 31 31h28q11 0 21 -9t10 -22v-884q0 -31 -31 -31h-32q-27 0 -27 31z" />
    <glyph glyph-name="iacute" unicode="&#xed;" horiz-adv-x="434" 
d="M63 1143q-20 -8 -28 8l-12 27q-8 16 12 28l338 178q23 14 35 -6l20 -41q10 -23 -18 -37zM172 31v884q0 31 31 31h28q11 0 21 -9t10 -22v-884q0 -31 -31 -31h-32q-27 0 -27 31z" />
    <glyph glyph-name="icircumflex" unicode="&#xee;" horiz-adv-x="434" 
d="M229 1393q10 0 21 -11l248 -200q18 -14 8 -29l-19 -23q-12 -16 -30 -4l-232 172l-229 -172q-18 -12 -31 4l-18 23q-10 14 8 29l248 200q10 10 20 11h6zM172 31v884q0 31 31 31h28q11 0 21 -9t10 -22v-884q0 -31 -31 -31h-32q-27 0 -27 31z" />
    <glyph glyph-name="idieresis" unicode="&#xef;" horiz-adv-x="434" 
d="M111 1289q1 -33 -23 -57t-58 -24t-59 24t-25 58t24 58t59 24t59 -24t23 -59zM504 1289q0 -33 -24 -57t-59 -24q-33 0 -57 24t-24 58t24 58t58 24t58 -24t24 -59zM172 31v884q0 31 31 31h28q11 0 21 -9t10 -22v-884q0 -31 -31 -31h-32q-27 0 -27 31z" />
    <glyph glyph-name="eth" unicode="&#xf0;" horiz-adv-x="1204" 
d="M203 461q1 -164 111 -279t266 -114q193 0 297 144t104 353q0 23 -4 64q-21 29 -67 72t-87 69t-109 48t-141 22q-154 0 -262 -108t-108 -271zM109 467q0 203 135 331t323 128q139 0 245 -58t146 -112q-43 260 -299 467l-241 -142q-27 -12 -37 13q-20 33 2 45l219 127
q-135 94 -252 139q-27 8 -12 33l14 37q6 18 29 10q154 -53 307 -170l146 84q23 12 40 -15t-8 -43l-123 -71q330 -283 330 -690q0 -264 -128 -432t-365 -168q-193 0 -332 142t-139 345z" />
    <glyph glyph-name="ntilde" unicode="&#xf1;" horiz-adv-x="1105" 
d="M684 1214q76 0 117 121q8 27 30 15l23 -9q29 -15 -24 -109q-53 -95 -152 -93q-49 -1 -83 29t-50 65t-42 65t-57 29q-76 0 -116 -127q-6 -24 -31 -14l-25 10q-20 6 -12 29q49 125 117 159q35 16 79 16t79 -28t50 -64t40 -65t57 -29zM172 31v884q0 31 33 31h10q27 0 29 -24
l10 -101q136 145 330 145t277 -107q83 -108 83 -306v-522q0 -11 -9 -21t-22 -10h-28q-12 0 -22 9q-9 9 -9 22v518q0 330 -270 330q-86 0 -183 -50t-139 -112v-686q0 -31 -31 -31h-32q-27 0 -27 31z" />
    <glyph glyph-name="ograve" unicode="&#xf2;" horiz-adv-x="1163" 
d="M743 1145l-352 162q-18 10 -8 30l20 41q10 18 35 6l336 -184q18 -10 12 -29l-10 -20q-8 -16 -33 -6zM580 879q-158 0 -270 -119t-113 -287t111 -288q112 -119 272 -119t270 120t111 287q0 168 -111 287q-112 119 -270 119zM106 472q0 206 138 350t336 144q199 0 338 -144
t139 -349t-138 -350t-338 -145q-199 0 -337 144t-138 350z" />
    <glyph glyph-name="oacute" unicode="&#xf3;" horiz-adv-x="1163" 
d="M422 1143q-20 -8 -29 8l-12 27q-8 16 12 28l338 178q23 14 35 -6l20 -41q10 -23 -18 -37zM580 879q-158 0 -270 -119t-113 -287t111 -288q112 -119 272 -119t270 120t111 287q0 168 -111 287q-112 119 -270 119zM106 472q0 206 138 350t336 144q199 0 338 -144t139 -349
t-138 -350t-338 -145q-199 0 -337 144t-138 350z" />
    <glyph glyph-name="ocircumflex" unicode="&#xf4;" horiz-adv-x="1163" 
d="M588 1393q10 0 20 -11l248 -200q18 -14 8 -29l-18 -23q-12 -16 -31 -4l-231 172l-230 -172q-18 -12 -30 4l-19 23q-10 14 8 29l248 200q10 10 21 11h6zM580 879q-158 0 -270 -119t-113 -287t111 -288q112 -119 272 -119t270 120t111 287q0 168 -111 287
q-112 119 -270 119zM106 472q0 206 138 350t336 144q199 0 338 -144t139 -349t-138 -350t-338 -145q-199 0 -337 144t-138 350z" />
    <glyph glyph-name="otilde" unicode="&#xf5;" horiz-adv-x="1163" 
d="M705 1214q76 0 116 121q8 27 31 15l22 -9q23 -11 -7 -80q-29 -68 -75 -95q-45 -28 -94 -28t-83 30t-50 65t-42 65t-56 29q-76 0 -117 -127q-6 -24 -31 -14l-24 10q-20 6 -12 29q49 125 116 159q35 16 79 16t79 -28t50 -64q40 -94 98 -94zM580 879q-158 0 -270 -119
t-113 -287t111 -288q112 -119 272 -119t270 120t111 287q0 168 -111 287q-112 119 -270 119zM106 472q0 206 138 350t336 144q199 0 338 -144t139 -349t-138 -350t-338 -145q-199 0 -337 144t-138 350z" />
    <glyph glyph-name="odieresis" unicode="&#xf6;" horiz-adv-x="1163" 
d="M469 1289q1 -33 -23 -57t-58 -24t-58 24t-25 58q0 34 24 58q25 24 59 24t58 -24t23 -59zM779 1208q-33 0 -57 24t-24 58t24 58t58 24t58 -24t24 -59q0 -33 -24 -57t-59 -24zM580 879q-158 0 -270 -119t-113 -287t111 -288q112 -119 272 -119t270 120t111 287
q0 168 -111 287q-112 119 -270 119zM106 472q0 206 138 350t336 144q199 0 338 -144t139 -349t-138 -350t-338 -145q-199 0 -337 144t-138 350z" />
    <glyph glyph-name="divide" unicode="&#xf7;" 
d="M522 389q0 33 25 57t59 25q34 0 59 -24q23 -25 23 -59t-24 -58t-57 -25t-59 25t-26 59zM219 670q-27 0 -26 26v31q0 27 26 27h789q25 0 24 -27v-31q0 -27 -24 -26h-789zM607 948q-33 0 -59 26t-26 58t25 58q25 24 59 24t59 -24q23 -24 23 -58q0 -36 -24 -60t-57 -24z" />
    <glyph glyph-name="oslash" unicode="&#xf8;" horiz-adv-x="1163" 
d="M961 475q0 119 -64 223l-569 -534q108 -98 260 -98t262 120t111 289zM580 879q-158 0 -270 -119q-112 -118 -113 -274q0 -156 86 -269l571 537q-116 125 -274 125zM106 482q0 196 138 340t338 144q201 0 340 -149l24 25q18 23 41 0l10 -11q20 -20 -2 -38l-30 -29
q92 -131 92 -289q0 -207 -138 -352q-137 -145 -329 -145t-328 124l-33 -32q-16 -16 -36 2l-13 12q-20 20 0 37l35 33q-109 132 -109 328z" />
    <glyph glyph-name="ugrave" unicode="&#xf9;" horiz-adv-x="1081" 
d="M698 1145l-352 162q-18 10 -8 30l20 41q10 18 35 6l336 -184q18 -10 12 -29l-10 -20q-8 -16 -33 -6zM162 385v530q0 11 9 21t22 10h30q29 0 29 -31v-530q0 -166 62 -243t206 -76q176 0 299 176v673q0 31 31 31h31q10 0 19 -9t9 -22v-884q0 -11 -9 -21t-19 -10h-19
q-25 0 -28 29l-9 92q-20 -27 -50 -53q-29 -26 -103 -59q-74 -32 -158 -32q-192 -1 -272 99t-80 309z" />
    <glyph glyph-name="uacute" unicode="&#xfa;" horiz-adv-x="1081" 
d="M377 1143q-20 -8 -29 8l-12 27q-8 16 12 28l338 178q23 14 35 -6l20 -41q10 -23 -18 -37zM162 385v530q0 11 9 21t22 10h30q29 0 29 -31v-530q0 -166 62 -243t206 -76q176 0 299 176v673q0 31 31 31h31q10 0 19 -9t9 -22v-884q0 -11 -9 -21t-19 -10h-19q-25 0 -28 29
l-9 92q-20 -27 -50 -53q-29 -26 -103 -59q-74 -32 -158 -32q-192 -1 -272 99t-80 309z" />
    <glyph glyph-name="ucircumflex" unicode="&#xfb;" horiz-adv-x="1081" 
d="M543 1393q10 0 20 -11l248 -200q18 -14 8 -29l-18 -23q-12 -16 -31 -4l-231 172l-230 -172q-18 -12 -30 4l-19 23q-10 14 8 29l248 200q10 10 21 11h6zM162 385v530q0 11 9 21t22 10h30q29 0 29 -31v-530q0 -166 62 -243t206 -76q176 0 299 176v673q0 31 31 31h31
q10 0 19 -9t9 -22v-884q0 -11 -9 -21t-19 -10h-19q-25 0 -28 29l-9 92q-20 -27 -50 -53q-29 -26 -103 -59q-74 -32 -158 -32q-192 -1 -272 99t-80 309z" />
    <glyph glyph-name="udieresis" unicode="&#xfc;" horiz-adv-x="1081" 
d="M426 1289q0 -33 -24 -57t-57 -24q-35 0 -59 24t-24 58t24 58t58 24t58 -24t24 -59zM736 1208q-34 0 -58 24t-23 58q0 34 24 58q23 24 57 24t59 -24t25 -59q0 -33 -26 -57q-24 -24 -58 -24zM162 385v530q0 11 9 21t22 10h30q29 0 29 -31v-530q0 -166 62 -243t206 -76
q176 0 299 176v673q0 31 31 31h31q10 0 19 -9t9 -22v-884q0 -11 -9 -21t-19 -10h-19q-25 0 -28 29l-9 92q-20 -27 -50 -53q-29 -26 -103 -59q-74 -32 -158 -32q-192 -1 -272 99t-80 309z" />
    <glyph glyph-name="yacute" unicode="&#xfd;" horiz-adv-x="980" 
d="M317 1143q-20 -8 -28 8l-13 27q-8 16 13 28l338 178q23 14 35 -6l20 -41q10 -23 -18 -37zM72 946h43q25 0 32 -22l334 -818h6l349 818q8 23 30 22h45q35 0 15 -39l-592 -1376q-10 -18 -31 -18h-47q-33 0 -18 32l196 457l-377 905q-16 39 15 39z" />
    <glyph glyph-name="thorn" unicode="&#xfe;" horiz-adv-x="1126" 
d="M592 66q131 0 233 112t103 271q0 203 -108 317t-270 112q-162 0 -288 -106v-547q29 -47 114 -103t216 -56zM262 -459q0 -10 -9 -19t-20 -9h-32q-12 0 -21 9q-8 9 -8 19v1864q0 29 31 29h30q9 0 19 -10t10 -19v-531q124 92 308 92t319 -142t129 -375q-4 -187 -125 -329
t-313 -143q-106 -1 -198 47t-120 85v-568z" />
    <glyph glyph-name="ydieresis" unicode="&#xff;" horiz-adv-x="980" 
d="M365 1289q1 -33 -23 -57t-58 -24t-59 24t-25 58t24 58t59 24t59 -24t23 -59zM758 1289q0 -33 -24 -57t-59 -24q-34 0 -58 24q-23 24 -23 58t23 58q24 24 58 24q35 0 59 -24t24 -59zM72 946h43q25 0 32 -22l334 -818h6l349 818q8 23 30 22h45q35 0 15 -39l-592 -1376
q-10 -18 -31 -18h-47q-33 0 -18 32l196 457l-377 905q-16 39 15 39z" />
    <glyph glyph-name="Amacron" unicode="&#x100;" horiz-adv-x="1333" 
d="M395 1702q-27 0 -26 27v24q0 27 26 27h557q27 0 27 -27v-24q0 -27 -27 -27h-557zM309 475h711l-350 815h-4zM23 0q-25 0 -15 25l631 1415q8 14 25 14h6q18 0 26 -14l625 -1415q8 -25 -18 -25h-54q-20 0 -28 18l-166 377h-783l-163 -377q-10 -18 -29 -18h-57z" />
    <glyph glyph-name="amacron" unicode="&#x101;" horiz-adv-x="980" 
d="M205 1219q-27 0 -27 24v27q0 27 27 26h557q27 0 26 -26v-27q0 -25 -26 -24h-557zM486 530q-138 0 -223 -66t-85 -169q0 -101 66 -165t164 -64t188 46t131 97v272q-103 49 -241 49zM381 -23q-119 -1 -205 85t-86 227t106 231t287 90q115 0 244 -43q0 172 -41 244t-172 72
q-89 0 -163 -22q-73 -22 -95 -32t-25 -10q-29 -12 -36 15l-11 28q-12 20 6 30q57 34 150 54q289 60 410 -52q55 -53 64 -201q3 -48 3 -138v-524q0 -11 -10 -21t-23 -10h-16q-27 0 -29 27l-10 86q-53 -53 -141 -95t-207 -41z" />
    <glyph glyph-name="Abreve" unicode="&#x102;" horiz-adv-x="1333" 
d="M673 1587q-103 0 -178 66t-89 162q-4 29 20 28h27q16 0 24 -24q19 -70 71 -115t124 -45t126 46t70 114q6 25 25 24h29q25 0 20 -28q-16 -98 -91 -163t-178 -65zM309 475h711l-350 815h-4zM23 0q-25 0 -15 25l631 1415q8 14 25 14h6q18 0 26 -14l625 -1415q8 -25 -18 -25
h-54q-20 0 -28 18l-166 377h-783l-163 -377q-10 -18 -29 -18h-57z" />
    <glyph glyph-name="abreve" unicode="&#x103;" horiz-adv-x="980" 
d="M485 1102q-102 0 -177 64t-91 161q-4 29 21 29h26q16 0 25 -23q16 -73 69 -117t125 -44t126 46t71 115q6 23 25 23h28q25 0 21 -29q-16 -96 -91 -161q-76 -64 -178 -64zM486 530q-138 0 -223 -66t-85 -169q0 -101 66 -165t164 -64t188 46t131 97v272q-103 49 -241 49z
M381 -23q-119 -1 -205 85t-86 227t106 231t287 90q115 0 244 -43q0 172 -41 244t-172 72q-89 0 -163 -22q-73 -22 -95 -32t-25 -10q-29 -12 -36 15l-11 28q-12 20 6 30q57 34 150 54q289 60 410 -52q55 -53 64 -201q3 -48 3 -138v-524q0 -11 -10 -21t-23 -10h-16
q-27 0 -29 27l-10 86q-53 -53 -141 -95t-207 -41z" />
    <glyph glyph-name="Aogonek" unicode="&#x104;" horiz-adv-x="1333" 
d="M309 475h711l-350 815h-4zM23 0q-25 0 -15 25l631 1415q8 14 25 14h6q18 0 26 -14l625 -1415q8 -25 -18 -25h-9q-227 -127 -227 -295q0 -55 33 -88t85 -33t138 54q18 18 25 -9l4 -39q4 -25 -21 -36q-80 -50 -166 -50t-137 56t-51 128q-1 74 23 126q39 87 141 158
q33 24 78 51l-164 372h-783l-163 -377q-10 -18 -29 -18h-57z" />
    <glyph glyph-name="aogonek" unicode="&#x105;" horiz-adv-x="980" 
d="M486 530q-138 0 -223 -66t-85 -169q0 -101 66 -165t164 -64t188 46t131 97v272q-103 49 -241 49zM381 -23q-119 -1 -205 85t-86 227t106 231t287 90q115 0 244 -43q0 172 -41 244t-172 72q-89 0 -163 -22q-73 -22 -95 -32t-25 -10q-29 -12 -36 15l-11 28q-12 20 6 30
q57 34 150 54q289 60 410 -52q55 -53 64 -201q3 -48 3 -138v-512q0 -27 -9 -33t-35 -22t-35 -24q-10 -8 -34 -24q-24 -18 -36 -30l-32 -32t-38 -51q-19 -32 -27 -64q-8 -33 -8 -73t33 -73q34 -33 98 -33t125 54q7 6 15 4t10 -13l4 -39q4 -25 -21 -36q-79 -50 -165 -50
t-138 56t-51 143q0 193 264 330l-8 80q-53 -53 -141 -95t-207 -41z" />
    <glyph glyph-name="Cacute" unicode="&#x106;" horiz-adv-x="1464" 
d="M717 1602q-25 -10 -33 6l-10 20q-6 18 12 29l336 184q25 12 35 -6l20 -41q10 -20 -8 -31zM115 715q0 307 217 523t515 216t507 -190q18 -18 2 -37l-33 -35q-16 -16 -35 2q-188 168 -444 168t-442 -190t-185 -457q0 -267 185 -455t454 -188q225 0 432 172q20 16 33 4
l35 -35q18 -16 0 -35q-205 -198 -506 -198t-518 214t-217 521z" />
    <glyph glyph-name="cacute" unicode="&#x107;" horiz-adv-x="1058" 
d="M410 1143q-20 -8 -29 8l-12 27q-8 16 12 28l338 178q23 14 35 -6l20 -41q10 -23 -18 -37zM106 472q0 212 144 353t346 142q123 0 215 -47t133 -99q18 -23 -2 -43l-16 -16q-25 -25 -54 7q-28 32 -104 71t-172 39q-162 0 -281 -118t-119 -288t118 -289q116 -118 282 -118
t301 145q23 25 45 2l19 -16q18 -18 6 -37q-41 -62 -141 -122t-230 -61q-206 -1 -348 141t-142 354z" />
    <glyph glyph-name="Ccircumflex" unicode="&#x108;" horiz-adv-x="1464" 
d="M852 1839h6q10 0 21 -10l247 -201q18 -14 9 -29l-19 -22q-12 -16 -31 -4l-231 172l-229 -172q-18 -12 -31 4l-19 22q-10 14 9 29l247 201q10 10 21 10zM115 715q0 307 217 523t515 216t507 -190q18 -18 2 -37l-33 -35q-16 -16 -35 2q-188 168 -444 168t-442 -190
t-185 -457q0 -267 185 -455t454 -188q225 0 432 172q20 16 33 4l35 -35q18 -16 0 -35q-205 -198 -506 -198t-518 214t-217 521z" />
    <glyph glyph-name="ccircumflex" unicode="&#x109;" horiz-adv-x="1058" 
d="M610 1393q10 0 21 -11l248 -200q18 -14 8 -29l-19 -23q-12 -16 -30 -4l-232 172l-229 -172q-18 -12 -31 4l-18 23q-10 14 8 29l248 200q10 10 20 11h6zM106 472q0 212 144 353t346 142q123 0 215 -47t133 -99q18 -23 -2 -43l-16 -16q-25 -25 -54 7q-28 32 -104 71
t-172 39q-162 0 -281 -118t-119 -288t118 -289q116 -118 282 -118t301 145q23 25 45 2l19 -16q18 -18 6 -37q-41 -62 -141 -122t-230 -61q-206 -1 -348 141t-142 354z" />
    <glyph glyph-name="Cdotaccent" unicode="&#x10a;" horiz-adv-x="1464" 
d="M774 1735q0 33 24 57t58 23q34 0 56 -23q24 -22 24 -56t-24 -56t-57 -23q-33 1 -57 23t-24 55zM115 715q0 307 217 523t515 216t507 -190q18 -18 2 -37l-33 -35q-16 -16 -35 2q-188 168 -444 168t-442 -190t-185 -457q0 -267 185 -455t454 -188q225 0 432 172q20 16 33 4
l35 -35q18 -16 0 -35q-205 -198 -506 -198t-518 214t-217 521z" />
    <glyph glyph-name="cdotaccent" unicode="&#x10b;" horiz-adv-x="1058" 
d="M609 1208q-33 0 -57 23t-24 55t24 56t58 24t57 -24t23 -56t-24 -56q-24 -22 -57 -22zM106 472q0 212 144 353t346 142q123 0 215 -47t133 -99q18 -23 -2 -43l-16 -16q-25 -25 -54 7q-28 32 -104 71t-172 39q-162 0 -281 -118t-119 -288t118 -289q116 -118 282 -118
t301 145q23 25 45 2l19 -16q18 -18 6 -37q-41 -62 -141 -122t-230 -61q-206 -1 -348 141t-142 354z" />
    <glyph glyph-name="Ccaron" unicode="&#x10c;" horiz-adv-x="1464" 
d="M854 1563q-10 0 -20 10l-248 201q-18 14 -8 28l18 23q12 16 31 4l231 -172l229 172q18 12 31 -4l19 -23q10 -14 -9 -28l-247 -201q-10 -10 -21 -10h-6zM115 715q0 307 217 523t515 216t507 -190q18 -18 2 -37l-33 -35q-16 -16 -35 2q-188 168 -444 168t-442 -190
t-185 -457q0 -267 185 -455t454 -188q225 0 432 172q20 16 33 4l35 -35q18 -16 0 -35q-205 -198 -506 -198t-518 214t-217 521z" />
    <glyph glyph-name="ccaron" unicode="&#x10d;" horiz-adv-x="1058" 
d="M604 1116q-10 0 -20 10l-248 201q-18 14 -8 29l18 22q12 16 31 4l231 -172l230 172q18 12 30 -4l19 -22q10 -14 -8 -29l-248 -201q-10 -10 -21 -10h-6zM106 472q0 212 144 353t346 142q123 0 215 -47t133 -99q18 -23 -2 -43l-16 -16q-25 -25 -54 7q-28 32 -104 71
t-172 39q-162 0 -281 -118t-119 -288t118 -289q116 -118 282 -118t301 145q23 25 45 2l19 -16q18 -18 6 -37q-41 -62 -141 -122t-230 -61q-206 -1 -348 141t-142 354z" />
    <glyph glyph-name="Dcaron" unicode="&#x10e;" horiz-adv-x="1503" 
d="M649 1563q-10 0 -20 10l-248 201q-18 14 -8 28l18 23q12 16 31 4l231 -172l230 172q18 12 30 -4l19 -23q10 -14 -8 -28l-248 -201q-10 -10 -21 -10h-6zM303 88h346q272 0 454 180q181 180 181 448t-180 449q-180 180 -455 181h-346v-1258zM207 1407q0 25 24 27h435
q297 0 509 -210q211 -210 211 -507t-210 -507t-510 -210h-435q-10 0 -17 8t-7 19v1380z" />
    <glyph glyph-name="dcaron" unicode="&#x10f;" horiz-adv-x="1138" 
d="M1104 1379q0 32 24 54q25 21 71 21t77 -42t31 -116q0 -129 -84 -204q-12 -12 -25 -2l-24 20q-14 12 2 29q57 49 57 133q0 35 -10 51q-14 -14 -46 -14t-53 19q-20 19 -20 51zM578 879q-162 0 -270 -118t-109 -287q0 -169 99 -289t247 -119q119 0 213 62t106 97v547
q-37 37 -124 72t-162 35zM109 472q0 208 129 351t327 144q82 0 157 -23t109 -47l33 -23v529q0 31 31 31h31q10 0 19 -10t9 -21v-1372q0 -11 -10 -21t-20 -10h-13q-29 0 -34 31l-7 84q-35 -41 -124 -89t-207 -49q-184 -1 -307 143t-123 352z" />
    <glyph glyph-name="Dcroat" unicode="&#x110;" horiz-adv-x="1503" 
d="M303 88h346q268 0 451 181q182 181 182 449t-182 447q-182 180 -451 181h-346v-603h512q27 0 27 -26v-12q0 -25 -27 -25h-512v-592zM207 27v653h-72q-25 0 -24 27v10q0 27 24 26h72v664q0 27 24 27h435q297 0 509 -210q211 -210 211 -507t-210 -507t-510 -210h-435
q-24 0 -24 27z" />
    <glyph glyph-name="dcroat" unicode="&#x111;" horiz-adv-x="1126" 
d="M578 879q-162 0 -270 -118t-109 -287q0 -169 99 -289t247 -119q119 0 213 62t106 97v547q-37 37 -124 72t-162 35zM109 472q0 208 129 351t327 144q82 0 157 -23t109 -47l33 -23v236h-395q-27 0 -27 27v10q0 27 27 27h395v229q0 31 31 31h31q10 0 19 -10t9 -21v-229h74
q25 0 25 -31v-6q0 -27 -25 -27h-74v-1079q0 -11 -10 -21t-20 -10h-13q-29 0 -34 31l-7 84q-35 -41 -124 -89t-207 -49q-184 -1 -307 143t-123 352z" />
    <glyph glyph-name="Emacron" unicode="&#x112;" horiz-adv-x="1185" 
d="M379 1702q-27 0 -27 27v24q0 27 27 27h557q27 0 27 -27v-24q0 -27 -27 -27h-557zM207 27v1380q0 27 26 27h822q27 0 26 -27v-35q0 -27 -26 -26h-750v-566h649q27 0 27 -26v-35q0 -27 -27 -27h-649v-606h750q27 0 26 -27v-32q0 -27 -26 -27h-822q-26 0 -26 27z" />
    <glyph glyph-name="emacron" unicode="&#x113;" horiz-adv-x="1083" 
d="M297 1219q-27 0 -27 24v27q0 27 27 26h557q27 0 27 -26v-27q0 -25 -27 -24h-557zM899 528q0 146 -90 248t-243 102t-254 -100t-111 -250h698zM565 -23q-205 1 -331 143t-125 352q0 210 125 352q126 142 322 142t314 -122q119 -123 119 -307q0 -92 -35 -93h-755
q4 -158 109 -268t257 -110t291 94q29 16 41 0l23 -35q16 -16 -22 -47t-134 -66t-199 -35z" />
    <glyph glyph-name="Ebreve" unicode="&#x114;" horiz-adv-x="1185" 
d="M634 1587q-103 0 -178 66t-89 162q-4 29 20 28h27q16 0 24 -24q18 -70 70 -115t125 -45q72 0 126 46t70 114q6 25 25 24h29q25 0 20 -28q-16 -98 -91 -163t-178 -65zM207 27v1380q0 27 26 27h822q27 0 26 -27v-35q0 -27 -26 -26h-750v-566h649q27 0 27 -26v-35
q0 -27 -27 -27h-649v-606h750q27 0 26 -27v-32q0 -27 -26 -27h-822q-26 0 -26 27z" />
    <glyph glyph-name="ebreve" unicode="&#x115;" horiz-adv-x="1083" 
d="M575 1102q-102 0 -177 64t-91 161q-4 29 21 29h26q16 0 25 -23q15 -73 69 -117t126 -44t125 46q54 46 71 115q6 23 25 23h28q25 0 21 -29q-16 -96 -91 -161q-76 -64 -178 -64zM899 528q0 146 -90 248t-243 102t-254 -100t-111 -250h698zM565 -23q-205 1 -331 143
t-125 352q0 210 125 352q126 142 322 142t314 -122q119 -123 119 -307q0 -92 -35 -93h-755q4 -158 109 -268t257 -110t291 94q29 16 41 0l23 -35q16 -16 -22 -47t-134 -66t-199 -35z" />
    <glyph glyph-name="Edotaccent" unicode="&#x116;" horiz-adv-x="1185" 
d="M555 1735q0 33 24 57q25 24 59 23q34 0 56 -23q22 -22 23 -56t-23 -56t-58 -23q-34 1 -58 23t-23 55zM207 27v1380q0 27 26 27h822q27 0 26 -27v-35q0 -27 -26 -26h-750v-566h649q27 0 27 -26v-35q0 -27 -27 -27h-649v-606h750q27 0 26 -27v-32q0 -27 -26 -27h-822
q-26 0 -26 27z" />
    <glyph glyph-name="edotaccent" unicode="&#x117;" horiz-adv-x="1083" 
d="M574 1208q-34 0 -58 23t-22 55q0 32 24 56t58 24t57 -24t23 -56t-24 -56q-24 -22 -58 -22zM899 528q0 146 -90 248t-243 102t-254 -100t-111 -250h698zM565 -23q-205 1 -331 143t-125 352q0 210 125 352q126 142 322 142t314 -122q119 -123 119 -307q0 -92 -35 -93h-755
q4 -158 109 -268t257 -110t291 94q29 16 41 0l23 -35q16 -16 -22 -47t-134 -66t-199 -35z" />
    <glyph glyph-name="Eogonek" unicode="&#x118;" horiz-adv-x="1185" 
d="M827 -288q1 -128 131 -128q64 0 125 54q20 16 25 -9l4 -39q4 -25 -20 -36q-80 -50 -166 -50t-138 56t-51 143q0 166 203 297h-707q-26 0 -26 27v1380q0 27 26 27h822q27 0 26 -27v-35q0 -27 -26 -26h-750v-566h649q27 0 27 -26v-35q0 -27 -27 -27h-649v-606h750
q27 0 26 -27v-22q0 -20 -26 -37q-59 -35 -101 -66q-42 -32 -84 -96q-43 -64 -43 -126z" />
    <glyph glyph-name="eogonek" unicode="&#x119;" horiz-adv-x="1083" 
d="M899 528q0 146 -90 248t-243 102t-254 -100t-111 -250h698zM109 473q0 209 125 351q126 142 322 142t314 -122q119 -123 119 -307q0 -92 -35 -93h-755q4 -158 109 -268t257 -110t291 94q29 16 41 0l23 -35q16 -16 -11 -37q-80 -63 -207 -94q-219 -125 -219 -289
q0 -55 33 -88q34 -33 98 -33t125 54q7 6 15 4t10 -13l4 -39q4 -25 -20 -36q-80 -50 -166 -50t-138 56t-51 143q0 156 170 274q-203 3 -329 145t-125 351z" />
    <glyph glyph-name="Ecaron" unicode="&#x11a;" horiz-adv-x="1185" 
d="M631 1563q-10 0 -21 10l-248 201q-18 14 -8 28l19 23q12 16 30 4l232 -172l229 172q18 12 31 -4l18 -23q10 -14 -8 -28l-248 -201q-10 -10 -20 -10h-6zM207 27v1380q0 27 26 27h822q27 0 26 -27v-35q0 -27 -26 -26h-750v-566h649q27 0 27 -26v-35q0 -27 -27 -27h-649
v-606h750q27 0 26 -27v-32q0 -27 -26 -27h-822q-26 0 -26 27z" />
    <glyph glyph-name="ecaron" unicode="&#x11b;" horiz-adv-x="1083" 
d="M573 1116q-10 0 -20 10l-248 201q-18 14 -8 29l18 22q12 16 31 4l232 -172l229 172q18 12 31 -4l18 -22q10 -14 -8 -29l-248 -201q-10 -10 -20 -10h-7zM899 528q0 146 -90 248t-243 102t-254 -100t-111 -250h698zM565 -23q-205 1 -331 143t-125 352q0 210 125 352
q126 142 322 142t314 -122q119 -123 119 -307q0 -92 -35 -93h-755q4 -158 109 -268t257 -110t291 94q29 16 41 0l23 -35q16 -16 -22 -47t-134 -66t-199 -35z" />
    <glyph glyph-name="Gcircumflex" unicode="&#x11c;" horiz-adv-x="1519" 
d="M850 1839h6q10 0 21 -10l247 -201q18 -14 9 -29l-19 -22q-12 -16 -31 -4l-231 172l-229 -172q-18 -12 -31 4l-19 22q-10 14 9 29l247 201q10 10 21 10zM115 715q0 307 216 523t514 216t507 -190q20 -18 6 -34t-34 -36t-38 -2q-184 172 -441 172t-443 -189t-185 -455
q0 -266 185 -456t452 -190q113 0 236 32t190 80v385h-350q-27 0 -27 27v41q0 25 27 25h420q10 0 18 -8t8 -17v-475q0 -33 -28 -53q-33 -20 -84 -46t-169 -56t-239 -29q-309 0 -525 214t-216 521z" />
    <glyph glyph-name="gcircumflex" unicode="&#x11d;" horiz-adv-x="1128" 
d="M866 -25v101q-117 -98 -304 -98t-320 142q-133 144 -133 354t127 351t313 141t328 -110l8 66q2 25 26 24h13q33 0 32 -31v-940q0 -199 -118 -311t-301 -113q-103 0 -189 40t-131 83q-16 16 -4 35l20 27q16 18 41 0q39 -33 112 -65t151 -31q145 0 237 86t92 249zM561 879
q-160 0 -261 -117t-101 -289t106 -290t277 -117q72 0 154 33t130 81v574q-39 52 -131 89q-92 36 -174 36zM588 1393q10 0 20 -11l248 -200q18 -14 8 -29l-18 -23q-12 -16 -31 -4l-231 172l-230 -172q-18 -12 -30 4l-19 23q-10 14 8 29l248 200q10 10 21 11h6z" />
    <glyph glyph-name="Gbreve" unicode="&#x11e;" horiz-adv-x="1519" 
d="M855 1587q-103 0 -178 66t-89 162q-4 29 20 28h27q16 0 24 -24q19 -70 71 -115t124 -45t126 46t71 114q6 25 24 24h29q25 0 20 -28q-16 -98 -91 -163t-178 -65zM115 715q0 307 216 523t514 216t507 -190q20 -18 6 -34t-34 -36t-38 -2q-184 172 -441 172t-443 -189
t-185 -455q0 -266 185 -456t452 -190q113 0 236 32t190 80v385h-350q-27 0 -27 27v41q0 25 27 25h420q10 0 18 -8t8 -17v-475q0 -33 -28 -53q-33 -20 -84 -46t-169 -56t-239 -29q-309 0 -525 214t-216 521z" />
    <glyph glyph-name="gbreve" unicode="&#x11f;" horiz-adv-x="1128" 
d="M866 -25v101q-117 -98 -304 -98t-320 142q-133 144 -133 354t127 351t313 141t328 -110l8 66q2 25 26 24h13q33 0 32 -31v-940q0 -199 -118 -311t-301 -113q-103 0 -189 40t-131 83q-16 16 -4 35l20 27q16 18 41 0q39 -33 112 -65t151 -31q145 0 237 86t92 249zM561 879
q-160 0 -261 -117t-101 -289t106 -290t277 -117q72 0 154 33t130 81v574q-39 52 -131 89q-92 36 -174 36zM592 1102q-102 0 -177 64t-91 161q-4 29 20 29h27q16 0 24 -23q15 -73 69 -117t126 -44t126 46t70 115q6 23 25 23h29q25 0 20 -29q-16 -97 -91 -161t-177 -64z" />
    <glyph glyph-name="Gdotaccent" unicode="&#x120;" horiz-adv-x="1519" 
d="M772 1735q0 33 24 57t58 23q34 0 58 -23q22 -22 22 -56t-24 -56t-57 -23q-33 1 -57 23t-24 55zM115 715q0 307 216 523t514 216t507 -190q20 -18 6 -34t-34 -36t-38 -2q-184 172 -441 172t-443 -189t-185 -455q0 -266 185 -456t452 -190q113 0 236 32t190 80v385h-350
q-27 0 -27 27v41q0 25 27 25h420q10 0 18 -8t8 -17v-475q0 -33 -28 -53q-33 -20 -84 -46t-169 -56t-239 -29q-309 0 -525 214t-216 521z" />
    <glyph glyph-name="gdotaccent" unicode="&#x121;" horiz-adv-x="1128" 
d="M866 -25v101q-117 -98 -304 -98t-320 142q-133 144 -133 354t127 351t313 141t328 -110l8 66q2 25 26 24h13q33 0 32 -31v-940q0 -199 -118 -311t-301 -113q-103 0 -189 40t-131 83q-16 16 -4 35l20 27q16 18 41 0q39 -33 112 -65t151 -31q145 0 237 86t92 249zM561 879
q-160 0 -261 -117t-101 -289t106 -290t277 -117q72 0 154 33t130 81v574q-39 52 -131 89q-92 36 -174 36zM584 1366q36 0 58 -24t22 -56t-24 -56q-24 -22 -57 -22q-34 0 -58 23q-23 23 -23 55t24 56t58 24z" />
    <glyph glyph-name="Gcommaaccent" unicode="&#x122;" horiz-adv-x="1519" 
d="M830 -301q-32 -1 -52 19t-20 52t24 54t71 20q46 0 77 -42t31 -115q0 -129 -84 -205q-12 -12 -25 -2l-25 20q-12 12 2 29q57 49 58 133q0 35 -10 51q-15 -14 -47 -14zM115 715q0 307 216 523t514 216t507 -190q20 -18 6 -34t-34 -36t-38 -2q-184 172 -441 172t-443 -189
t-185 -455q0 -266 185 -456t452 -190q113 0 236 32t190 80v385h-350q-27 0 -27 27v41q0 25 27 25h420q10 0 18 -8t8 -17v-475q0 -33 -28 -53q-33 -20 -84 -46t-169 -56t-239 -29q-309 0 -525 214t-216 521z" />
    <glyph glyph-name="gcommaaccent" unicode="&#x123;" horiz-adv-x="1128" 
d="M605 1298q33 0 53 -19t20 -51t-25 -54t-71 -21q-46 0 -76 42q-31 42 -31 116q0 129 84 205q12 12 25 2l24 -21q14 -14 -2 -29q-57 -49 -57 -133q0 -37 10 -51q14 14 46 14zM866 -25v101q-117 -98 -304 -98t-320 142q-133 144 -133 354t127 351t313 141t328 -110l8 66
q2 25 26 24h13q33 0 32 -31v-940q0 -199 -118 -311t-301 -113q-103 0 -189 40t-131 83q-16 16 -4 35l20 27q16 18 41 0q39 -33 112 -65t151 -31q145 0 237 86t92 249zM561 879q-160 0 -261 -117t-101 -289t106 -290t277 -117q72 0 154 33t130 81v574q-39 52 -131 89
q-92 36 -174 36z" />
    <glyph glyph-name="Hcircumflex" unicode="&#x124;" horiz-adv-x="1525" 
d="M776 1839h6q10 0 21 -10l248 -201q18 -14 8 -29l-19 -22q-12 -16 -30 -4l-232 172l-229 -172q-18 -12 -31 4l-18 22q-10 14 8 29l248 201q10 10 20 10zM207 27v1380q0 27 26 27h43q27 0 27 -27v-629h920v629q0 27 26 27h43q27 0 27 -27v-1380q0 -27 -27 -27h-43
q-27 0 -26 27v665h-920v-665q0 -27 -27 -27h-43q-26 0 -26 27z" />
    <glyph glyph-name="hcircumflex" unicode="&#x125;" horiz-adv-x="1103" 
d="M197 1837h6q10 0 20 -10l248 -201q18 -14 8 -29l-18 -22q-12 -16 -31 -4l-231 172l-230 -172q-18 -12 -30 4l-19 22q-10 14 8 29l248 201q10 10 21 10zM172 31v1372q0 31 33 31h26q11 0 21 -10t10 -21v-584q137 147 326 148q354 0 354 -418v-518q0 -11 -9 -21t-22 -10
h-28q-12 0 -22 9q-9 9 -9 22v518q0 330 -268 330q-180 0 -322 -174v-674q0 -31 -31 -31h-32q-27 0 -27 31z" />
    <glyph glyph-name="Hbar" unicode="&#x126;" horiz-adv-x="1527" 
d="M303 780h920v330h-920v-330zM1254 0q-31 0 -31 27v665h-920v-665q0 -27 -33 -27h-37q-26 0 -26 27v1083h-53q-25 0 -25 29v8q0 27 25 27h53v233q0 27 26 27h43q27 0 27 -27v-233h920v233q0 27 47 27h24q27 0 27 -27v-233h53q27 0 27 -31v-8q0 -25 -27 -25h-53v-1083
q0 -27 -27 -27h-40z" />
    <glyph glyph-name="hbar" unicode="&#x127;" horiz-adv-x="1144" 
d="M172 31v1079h-74q-25 0 -24 29v8q0 27 24 27h74v229q0 31 33 31h26q11 0 21 -10t10 -21v-229h395q27 0 27 -31v-8q0 -9 -8 -17t-19 -8h-395v-291q60 65 161 107q101 41 185 41q184 0 280 -109t95 -309v-518q0 -11 -9 -21t-22 -10h-28q-12 0 -22 9q-9 9 -9 22v518
q0 162 -75 246t-214 84q-82 0 -164 -40t-118 -73t-60 -61v-674q0 -31 -31 -31h-32q-27 0 -27 31z" />
    <glyph glyph-name="Itilde" unicode="&#x128;" horiz-adv-x="512" 
d="M140 1851q44 -1 79 -29t50 -64q39 -93 98 -93q76 0 116 121q8 27 31 14l23 -8q29 -14 -23 -109q-52 -94 -154 -94q-48 0 -82 30q-34 31 -50 65t-43 64q-26 30 -56 30q-76 0 -117 -127q-5 -25 -30 -15l-25 11q-20 6 -12 28q49 125 116 160q35 16 79 16zM205 27v1380
q0 27 26 27h45q27 0 27 -27v-1380q0 -27 -29 -27h-43q-26 0 -26 27z" />
    <glyph glyph-name="itilde" unicode="&#x129;" horiz-adv-x="434" 
d="M344 1214q76 0 117 121q8 27 31 15l22 -9q29 -15 -24 -109q-53 -95 -152 -93q-49 -1 -83 29t-50 65t-42 65t-57 29q-76 0 -116 -127q-6 -24 -31 -14l-25 10q-20 6 -12 29q49 125 117 159q35 16 79 16t79 -28t50 -64t40 -65t57 -29zM170 31v884q0 31 31 31h28q11 0 21 -9
t10 -22v-884q0 -31 -31 -31h-32q-27 0 -27 31z" />
    <glyph glyph-name="Imacron" unicode="&#x12a;" horiz-adv-x="512" 
d="M-23 1702q-27 0 -26 27v24q0 27 26 27h558q27 0 26 -27v-24q0 -27 -26 -27h-558zM207 27v1380q0 27 26 27h46q27 0 26 -27v-1380q0 -27 -29 -27h-43q-26 0 -26 27z" />
    <glyph glyph-name="imacron" unicode="&#x12b;" horiz-adv-x="434" 
d="M-53 1219q-27 0 -27 24v27q0 27 27 26h557q27 0 26 -26v-27q0 -25 -26 -24h-557zM172 31v884q0 31 31 31h28q11 0 21 -9t10 -22v-884q0 -31 -31 -31h-32q-27 0 -27 31z" />
    <glyph glyph-name="Ibreve" unicode="&#x12c;" horiz-adv-x="512" 
d="M255 1587q-103 0 -178 66t-89 162q-4 29 20 28h27q16 0 24 -24q19 -70 71 -115t124 -45t126 46t71 114q6 25 24 24h29q25 0 20 -28q-16 -98 -91 -163t-178 -65zM207 27v1380q0 27 26 27h46q27 0 26 -27v-1380q0 -27 -29 -27h-43q-26 0 -26 27z" />
    <glyph glyph-name="ibreve" unicode="&#x12d;" horiz-adv-x="434" 
d="M225 1102q-102 0 -177 64t-91 161q-4 29 20 29h27q16 0 25 -23q16 -73 69 -117t125 -44t126 46t71 115q6 23 24 23h29q25 0 21 -29q-16 -97 -92 -161t-177 -64zM172 31v884q0 31 31 31h28q11 0 21 -9t10 -22v-884q0 -31 -31 -31h-32q-27 0 -27 31z" />
    <glyph glyph-name="Iogonek" unicode="&#x12e;" horiz-adv-x="514" 
d="M209 1407q0 27 27 27h45q27 0 26 -27v-1380q0 -14 -22 -27q-229 -129 -230 -295q0 -55 33 -88q34 -33 98 -33t125 54q7 6 15 4t10 -13l4 -39q4 -25 -21 -36q-79 -50 -165 -50t-138 56t-51 143q0 179 244 322v1382z" />
    <glyph glyph-name="iogonek" unicode="&#x12f;" horiz-adv-x="436" 
d="M216 1208q-34 0 -58 23t-23 55q0 32 24 56q23 24 57 24t58 -24t23 -56q1 -32 -23 -56q-24 -22 -58 -22zM174 915q0 31 31 31h28q11 0 21 -9t10 -22v-870q0 -35 -20 -45q-229 -115 -230 -295q0 -55 33 -88t97 -33t126 54q6 6 14 4t11 -13l4 -39q4 -25 -20 -36
q-80 -50 -166 -50q-85 0 -137 56t-52 143q0 181 250 326v886z" />
    <glyph glyph-name="Idotaccent" unicode="&#x130;" horiz-adv-x="512" 
d="M172 1735q0 33 24 57t58 23q34 0 56 -23q24 -22 24 -56t-24 -56t-57 -23q-33 1 -57 23t-24 55zM207 27v1380q0 27 26 27h46q27 0 26 -27v-1380q0 -27 -29 -27h-43q-26 0 -26 27z" />
    <glyph glyph-name="dotlessi" unicode="&#x131;" horiz-adv-x="434" 
d="M172 31v884q0 31 31 31h28q11 0 21 -9t10 -22v-884q0 -31 -31 -31h-32q-27 0 -27 31z" />
    <glyph glyph-name="IJ" unicode="&#x132;" horiz-adv-x="1396" 
d="M1104 410v997q0 27 29 27h41q27 0 26 -27v-995q0 -211 -105 -322t-293 -111t-313 154q-12 20 3 35l26 25q18 16 35 0l58 -58q17 -16 75 -43t119 -26q137 0 218 84t81 260zM207 27v1380q0 27 26 27h46q27 0 26 -27v-1380q0 -27 -29 -27h-43q-26 0 -26 27z" />
    <glyph glyph-name="ij" unicode="&#x133;" horiz-adv-x="919" 
d="M748 915v-1060q0 -158 -58 -238t-180 -121q-35 -12 -47 17l-8 20q-14 35 20 45q182 45 182 258v1079q0 31 31 31h29q11 0 21 -10t10 -21zM699 1208q-33 0 -57 23t-24 55t24 56t58 24t57 -24t23 -56t-24 -56q-24 -22 -57 -22zM214 1208q-34 0 -58 23t-23 55q0 32 24 56
q25 24 59 24t56 -24t23 -56t-23 -56q-24 -22 -58 -22zM172 31v884q0 31 31 31h28q11 0 21 -9t10 -22v-884q0 -31 -31 -31h-32q-27 0 -27 31z" />
    <glyph glyph-name="Jcircumflex" unicode="&#x134;" horiz-adv-x="952" 
d="M702 1839h7q10 0 20 -10l248 -201q18 -14 8 -29l-18 -22q-12 -16 -31 -4l-231 172l-230 -172q-18 -12 -31 4l-18 22q-10 14 8 29l248 201q10 10 20 10zM659 1407q0 27 29 27h41q27 0 27 -27v-995q0 -211 -106 -322t-292 -111q-188 0 -313 154q-12 20 2 35l27 25
q16 16 35 0l58 -58q17 -16 75 -43t118 -26q137 0 219 84q81 84 80 260v997z" />
    <glyph glyph-name="jcircumflex" unicode="&#x135;" horiz-adv-x="434" 
d="M219 1393q10 0 21 -11l247 -200q18 -14 9 -29l-19 -23q-12 -16 -31 -4l-231 172l-229 -172q-18 -12 -31 4l-18 23q-10 14 8 29l248 200q10 10 20 11h6zM262 915v-1060q0 -158 -57 -238t-180 -121q-35 -12 -48 17l-8 20q-14 35 21 45q182 45 182 258v1079q0 31 31 31h28
q10 0 21 -9q10 -10 10 -22z" />
    <glyph glyph-name="Kcommaaccent" unicode="&#x136;" horiz-adv-x="1169" 
d="M555 -230q0 32 25 54q24 22 70 20q46 0 77 -42t31 -115q0 -129 -84 -205q-12 -12 -25 -2l-24 20q-14 12 2 29q57 49 57 133q0 35 -10 51q-14 -14 -46 -14t-53 19q-20 20 -20 52zM207 27v1376q0 31 31 31h36q31 0 31 -31v-637l696 653q16 14 41 15h58q16 0 19 -12t-7 -23
l-713 -666l736 -698q10 -7 5 -21t-24 -14h-65q-25 0 -45 20l-701 676v-669q0 -27 -31 -27h-41q-26 0 -26 27z" />
    <glyph glyph-name="kcommaaccent" unicode="&#x137;" horiz-adv-x="946" 
d="M509 -301q-33 -1 -53 19t-20 52t25 54t71 20q46 0 76 -42q31 -42 31 -115q0 -129 -84 -205q-12 -12 -25 -2l-24 20q-14 12 2 29q57 49 57 133q0 35 -10 51q-14 -14 -46 -14zM172 31v1372q0 31 31 31h26q11 0 21 -10t10 -21v-842l488 371q20 14 38 14h68q16 0 18 -16
t-12 -27l-502 -379l525 -483q12 -13 7 -27t-20 -14h-53q-23 0 -47 18l-510 476v-463q0 -31 -31 -31h-30q-27 0 -27 31z" />
    <glyph glyph-name="kgreenlandic" unicode="&#x138;" horiz-adv-x="968" 
d="M172 29v843q0 10 8 20t21 9h35q10 0 18 -9t8 -20v-387l502 402q16 14 37 14h63q16 0 18 -15t-12 -26l-518 -405l551 -416q12 -11 7 -25t-19 -14h-64q-23 0 -45 18l-520 404v-393q0 -29 -26 -29h-39q-25 0 -25 29z" />
    <glyph glyph-name="Lacute" unicode="&#x139;" horiz-adv-x="1011" 
d="M102 1602q-25 -10 -32 6l-11 20q-6 18 13 29l336 184q25 12 34 -6l21 -41q10 -20 -8 -31zM207 27v1380q0 27 26 27h46q10 0 17 -8t7 -19v-1321h653q27 0 27 -27v-36q0 -23 -27 -23h-723q-26 0 -26 27z" />
    <glyph glyph-name="lacute" unicode="&#x13a;" horiz-adv-x="458" 
d="M74 1587q-20 -8 -29 8l-12 27q-8 16 12 29l338 178q23 14 35 -6l20 -41q10 -23 -18 -37zM184 31v1372q0 31 31 31h29q10 0 20 -10t10 -21v-1372q0 -31 -30 -31h-33q-27 0 -27 31z" />
    <glyph glyph-name="Lcommaaccent" unicode="&#x13b;" horiz-adv-x="1011" 
d="M504 -230q0 32 24 54t71 20q46 0 77 -42t31 -115q0 -129 -84 -205q-12 -12 -25 -2l-25 20q-12 12 2 29q57 49 58 133q0 35 -10 51q-14 -14 -46 -14t-53 19q-20 20 -20 52zM207 27v1380q0 27 26 27h46q10 0 17 -8t7 -19v-1321h653q27 0 27 -27v-36q0 -23 -27 -23h-723
q-26 0 -26 27z" />
    <glyph glyph-name="lcommaaccent" unicode="&#x13c;" horiz-adv-x="458" 
d="M204 -301q-32 -1 -52 19t-21 52q0 32 25 54q24 22 70 20q46 0 77 -42t31 -115q0 -129 -84 -205q-12 -12 -25 -2l-24 20q-12 12 2 29q57 49 57 133q0 35 -10 51q-14 -14 -46 -14zM184 31v1372q0 31 31 31h29q10 0 20 -10t10 -21v-1372q0 -31 -30 -31h-33q-27 0 -27 31z
" />
    <glyph glyph-name="Lcaron" unicode="&#x13d;" horiz-adv-x="1024" 
d="M705 1379q0 32 24 54q25 21 71 21t77 -42t30 -116q0 -129 -84 -204q-12 -12 -24 -2l-25 20q-12 12 2 29q57 49 58 133q0 35 -11 51q-14 -14 -46 -14t-52 19t-20 51zM207 27v1380q0 27 26 27h46q10 0 17 -8t7 -19v-1321h653q27 0 27 -27v-36q0 -23 -27 -23h-723
q-26 0 -26 27z" />
    <glyph glyph-name="lcaron" unicode="&#x13e;" horiz-adv-x="458" 
d="M424 1379q0 32 25 54q25 21 71 21t76 -42q31 -42 31 -116q0 -129 -84 -204q-12 -12 -25 -2l-24 20q-14 12 2 29q57 49 57 133q0 35 -10 51q-14 -14 -46 -14t-53 19q-20 19 -20 51zM184 31v1372q0 31 31 31h29q10 0 20 -10t10 -21v-1372q0 -31 -30 -31h-33q-27 0 -27 31z
" />
    <glyph glyph-name="Ldot" unicode="&#x13f;" horiz-adv-x="1067" 
d="M922 647q-35 0 -60 25q-24 24 -24 58t24 58t60 23q34 0 58 -24q24 -25 24 -59t-24 -58t-58 -23zM207 27v1380q0 27 26 27h46q10 0 17 -8t7 -19v-1321h653q27 0 27 -27v-36q0 -23 -27 -23h-723q-26 0 -26 27z" />
    <glyph glyph-name="ldot" unicode="&#x140;" horiz-adv-x="595" 
d="M528 623q-36 1 -60 25t-24 58t25 58t59 22q34 0 59 -24q23 -24 23 -58t-23 -58q-24 -23 -59 -23zM184 31v1372q0 31 31 31h29q10 0 20 -10t10 -21v-1372q0 -31 -30 -31h-33q-27 0 -27 31z" />
    <glyph glyph-name="Lslash" unicode="&#x141;" horiz-adv-x="1013" 
d="M207 27v628l-68 -32q-23 -14 -33 8l-8 14q-12 20 11 33l98 49v680q0 27 26 27h43q27 0 27 -27v-625l299 152q25 16 35 -10l6 -13q12 -18 -10 -32l-330 -170v-623h674q27 0 27 -41v-18q0 -27 -27 -27h-744q-26 0 -26 27z" />
    <glyph glyph-name="lslash" unicode="&#x142;" horiz-adv-x="585" 
d="M205 31v657l-139 -72q-23 -12 -33 9l-6 12q-14 20 8 35l170 88v643q0 31 31 31h28q10 0 20 -10t11 -21v-596l233 121q20 14 33 -10l6 -13q12 -20 -10 -33l-262 -137v-704q0 -31 -31 -31h-33q-26 0 -26 31z" />
    <glyph glyph-name="Nacute" unicode="&#x143;" horiz-adv-x="1562" 
d="M653 1602q-25 -10 -32 6l-11 20q-6 18 13 29l335 184q25 12 35 -6l21 -41q10 -20 -8 -31zM209 27v1400q0 27 31 27h14q23 0 33 -16l970 -1264h3v1233q0 27 26 27h41q27 0 27 -27v-1401q0 -27 -33 -26h-6q-23 0 -33 16l-979 1276h-2v-1245q0 -27 -27 -27h-38q-27 0 -27 27
z" />
    <glyph glyph-name="nacute" unicode="&#x144;" horiz-adv-x="1105" 
d="M391 1143q-20 -8 -29 8l-12 27q-8 16 12 28l338 178q23 14 35 -6l21 -41q10 -23 -19 -37zM172 31v884q0 31 33 31h10q27 0 29 -24l10 -101q136 145 330 145t277 -107q83 -108 83 -306v-522q0 -11 -9 -21t-22 -10h-28q-12 0 -22 9q-9 9 -9 22v518q0 330 -270 330
q-86 0 -183 -50t-139 -112v-686q0 -31 -31 -31h-32q-27 0 -27 31z" />
    <glyph glyph-name="Ncommaaccent" unicode="&#x145;" horiz-adv-x="1562" 
d="M783 -301q-32 -1 -52 19t-20 52q1 32 25 54t70 20q46 0 77 -42t30 -115q0 -129 -84 -205q-12 -12 -24 -2l-25 20q-14 12 2 29q57 49 58 133q0 35 -11 51q-14 -14 -46 -14zM209 27v1400q0 27 31 27h14q23 0 33 -16l970 -1264h3v1233q0 27 26 27h41q27 0 27 -27v-1401
q0 -27 -33 -26h-6q-23 0 -33 16l-979 1276h-2v-1245q0 -27 -27 -27h-38q-27 0 -27 27z" />
    <glyph glyph-name="ncommaaccent" unicode="&#x146;" horiz-adv-x="1105" 
d="M525 -301q-32 -1 -52 19t-20 52q1 32 25 54t70 20q46 0 77 -42t30 -115q0 -129 -84 -205q-12 -12 -24 -2l-25 20q-14 12 2 29q57 49 58 133q0 35 -11 51q-14 -14 -46 -14zM172 31v884q0 31 33 31h10q27 0 29 -24l10 -101q136 145 330 145t277 -107q83 -108 83 -306v-522
q0 -11 -9 -21t-22 -10h-28q-12 0 -22 9q-9 9 -9 22v518q0 330 -270 330q-86 0 -183 -50t-139 -112v-686q0 -31 -31 -31h-32q-27 0 -27 31z" />
    <glyph glyph-name="Ncaron" unicode="&#x147;" horiz-adv-x="1562" 
d="M791 1563q-10 0 -21 10l-248 201q-18 14 -8 28l18 23q12 16 31 4l232 -172l229 172q18 12 31 -4l18 -23q10 -14 -8 -28l-248 -201q-10 -10 -20 -10h-6zM209 27v1400q0 27 31 27h14q23 0 33 -16l970 -1264h3v1233q0 27 26 27h41q27 0 27 -27v-1401q0 -27 -33 -26h-6
q-23 0 -33 16l-979 1276h-2v-1245q0 -27 -27 -27h-38q-27 0 -27 27z" />
    <glyph glyph-name="ncaron" unicode="&#x148;" horiz-adv-x="1105" 
d="M557 1116q-10 0 -20 10l-248 201q-18 14 -8 29l18 22q12 16 31 4l231 -172l230 172q18 12 30 -4l19 -22q10 -14 -9 -29l-247 -201q-10 -10 -21 -10h-6zM172 31v884q0 31 33 31h10q27 0 29 -24l10 -101q136 145 330 145t277 -107q83 -108 83 -306v-522q0 -11 -9 -21
t-22 -10h-28q-12 0 -22 9q-9 9 -9 22v518q0 330 -270 330q-86 0 -183 -50t-139 -112v-686q0 -31 -31 -31h-32q-27 0 -27 31z" />
    <glyph glyph-name="napostrophe" unicode="&#x149;" horiz-adv-x="1105" 
d="M172 31v884q0 31 33 31h10q27 0 29 -24l10 -101q136 145 330 145t277 -107q83 -108 83 -306v-522q0 -11 -9 -21t-22 -10h-28q-12 0 -22 9q-9 9 -9 22v518q0 330 -270 330q-86 0 -183 -50t-139 -112v-686q0 -31 -31 -31h-32q-27 0 -27 31zM38 1311q-32 0 -52 19t-21 51
q0 32 25 54q24 21 70 21t77 -42t31 -116q0 -129 -84 -204q-12 -12 -25 -2l-24 20q-14 14 2 29q57 49 57 133q0 37 -10 51q-14 -14 -46 -14z" />
    <glyph glyph-name="Eng" unicode="&#x14a;" horiz-adv-x="1562" 
d="M1260 -166v180q-70 86 -957 1258h-2v-1245q0 -27 -27 -27h-38q-27 0 -27 27v1400q0 27 31 27h14q23 0 33 -16l970 -1270h3v1239q0 27 26 27h41q27 0 27 -27v-1552q0 -158 -58 -238t-180 -121q-35 -12 -47 17l-8 20q-14 35 20 45q179 43 179 256z" />
    <glyph glyph-name="eng" unicode="&#x14b;" horiz-adv-x="1105" 
d="M944 553v-698q0 -158 -57 -238t-180 -121q-35 -12 -48 17l-8 20q-14 35 21 45q182 45 182 258v713q0 330 -270 330q-86 0 -183 -50t-139 -112v-686q0 -31 -31 -31h-32q-27 0 -27 31v884q0 31 33 31h10q27 0 29 -24l10 -101q136 145 330 145t277 -106q83 -108 83 -307z
" />
    <glyph glyph-name="Omacron" unicode="&#x14c;" horiz-adv-x="1705" 
d="M575 1702q-27 0 -26 27v24q0 27 26 27h558q27 0 26 -27v-24q0 -27 -26 -27h-558zM205 715q0 -269 189 -457q190 -188 458 -188t459 188q190 188 190 456t-190 460q-191 190 -459 190t-458 -190q-189 -191 -189 -459zM115 715q0 307 215 523t523 216t523 -216t215 -524
t-215 -521t-523 -213t-523 214t-215 521z" />
    <glyph glyph-name="omacron" unicode="&#x14d;" horiz-adv-x="1163" 
d="M305 1219q-27 0 -26 24v27q0 27 26 26h557q27 0 27 -26v-27q0 -25 -27 -24h-557zM580 879q-158 0 -270 -119t-113 -287t111 -288q112 -119 272 -119t270 120t111 287q0 168 -111 287q-112 119 -270 119zM106 472q0 206 138 350t336 144q199 0 338 -144t139 -349
t-138 -350t-338 -145q-199 0 -337 144t-138 350z" />
    <glyph glyph-name="Obreve" unicode="&#x14e;" horiz-adv-x="1705" 
d="M853 1587q-103 0 -178 66t-89 162q-4 29 20 28h27q16 0 24 -24q19 -70 71 -115t124 -45t126 46t71 114q6 25 24 24h29q25 0 20 -28q-16 -98 -91 -163t-178 -65zM205 715q0 -269 189 -457q190 -188 458 -188t459 188q190 188 190 456t-190 460q-191 190 -459 190
t-458 -190q-189 -191 -189 -459zM115 715q0 307 215 523t523 216t523 -216t215 -524t-215 -521t-523 -213t-523 214t-215 521z" />
    <glyph glyph-name="obreve" unicode="&#x14f;" horiz-adv-x="1163" 
d="M584 1102q-102 0 -177 64t-92 161q-4 29 21 29h26q16 0 25 -23q15 -73 69 -117t126 -44t126 46t70 115q6 23 25 23h28q25 0 21 -29q-16 -97 -91 -161t-177 -64zM580 879q-158 0 -270 -119t-113 -287t111 -288q112 -119 272 -119t270 120t111 287q0 168 -111 287
q-112 119 -270 119zM106 472q0 206 138 350t336 144q199 0 338 -144t139 -349t-138 -350t-338 -145q-199 0 -337 144t-138 350z" />
    <glyph glyph-name="Ohungarumlaut" unicode="&#x150;" horiz-adv-x="1705" 
d="M686 1569q-25 0 -14 24l162 326q10 23 28 23h45q17 0 23 -10t-2 -25l-191 -322q-8 -16 -26 -16h-25zM1026 1569q-25 0 -14 24l162 326q10 23 28 23h45q17 0 23 -10t-2 -25l-191 -322q-8 -16 -26 -16h-25zM205 715q0 -269 189 -457q190 -188 458 -188t459 188
q190 188 190 456t-190 460q-191 190 -459 190t-458 -190q-189 -191 -189 -459zM115 715q0 307 215 523t523 216t523 -216t215 -524t-215 -521t-523 -213t-523 214t-215 521z" />
    <glyph glyph-name="ohungarumlaut" unicode="&#x151;" horiz-adv-x="1163" 
d="M365 1061q-25 0 -15 24l162 326q10 23 29 23h45q16 0 22 -10t-2 -25l-190 -322q-8 -16 -27 -16h-24zM705 1061q-25 0 -15 24l162 326q10 23 29 23h45q16 0 22 -10t-2 -25l-190 -322q-8 -16 -27 -16h-24zM580 879q-158 0 -270 -119t-113 -287t111 -288q112 -119 272 -119
t270 120t111 287q0 168 -111 287q-112 119 -270 119zM106 472q0 206 138 350t336 144q199 0 338 -144t139 -349t-138 -350t-338 -145q-199 0 -337 144t-138 350z" />
    <glyph glyph-name="OE" unicode="&#x152;" horiz-adv-x="1972" 
d="M203 715q0 -269 189 -457t458 -188q78 0 143 14v1262q-76 16 -143 16q-268 0 -458 -190t-189 -457zM115 714q0 308 214 524t521 216q78 0 174 -20h817q25 0 25 -27v-35q0 -27 -25 -26h-749v-566h649q27 0 26 -26v-35q0 -27 -26 -27h-649v-606h749q25 0 25 -27v-32
q0 -27 -25 -27h-815q-96 -20 -176 -20q-309 0 -522 213t-213 521z" />
    <glyph glyph-name="oe" unicode="&#x153;" horiz-adv-x="1847" 
d="M197 473q-1 -170 113 -289t274 -118q117 0 208 66t119 136l-2 414q-45 76 -128 136t-197 61q-158 0 -272 -118t-115 -288zM1010 528h653q0 146 -90 248t-244 103q-100 1 -191 -53t-128 -142v-156zM580 -23q-202 1 -338 145t-136 350t138 350t336 145q113 1 212 -51
t166 -142q127 193 371 193q186 0 305 -120t119 -312q0 -90 -37 -91h-706v-176q39 -86 125 -144t220 -58t265 94q29 20 41 0l22 -35q10 -18 -8 -35q-53 -43 -149 -78t-197 -35q-227 0 -371 193q-141 -193 -378 -193z" />
    <glyph glyph-name="Racute" unicode="&#x154;" horiz-adv-x="1318" 
d="M459 1602q-25 -10 -33 6l-10 20q-6 18 12 29l336 184q25 12 35 -6l20 -41q10 -20 -8 -31zM305 647h432q150 1 256 103q107 102 107 248t-106 244t-259 97h-430v-692zM207 27v1380q0 27 26 27h508q189 0 323 -124t134 -294t-95 -288t-243 -161l299 -530q8 -13 4 -25
t-18 -12h-53q-29 0 -43 25l-293 530q-27 -2 -76 -2h-377v-526q0 -27 -33 -27h-37q-26 0 -26 27z" />
    <glyph glyph-name="racute" unicode="&#x155;" horiz-adv-x="765" 
d="M262 1143q-20 -8 -29 8l-12 27q-8 16 12 28l338 178q23 14 35 -6l21 -41q10 -23 -19 -37zM172 31v884q0 31 31 31h14q25 0 27 -26l10 -97q20 27 50 54t100 59t145 31q74 0 153 -27q35 -10 25 -43l-12 -37q-8 -27 -39 -12q-51 31 -130 31t-165 -48t-119 -114v-686
q0 -31 -31 -31h-32q-27 0 -27 31z" />
    <glyph glyph-name="Rcommaaccent" unicode="&#x156;" horiz-adv-x="1318" 
d="M618 -301q-32 -1 -53 19q-20 20 -20 52q1 32 25 54t70 20q46 0 77 -42t31 -115q0 -129 -84 -205q-12 -12 -25 -2l-25 20q-12 12 2 29q57 49 58 133q0 35 -10 51q-14 -14 -46 -14zM305 647h432q150 1 256 103q107 102 107 248t-106 244t-259 97h-430v-692zM207 27v1380
q0 27 26 27h508q189 0 323 -124t134 -294t-95 -288t-243 -161l299 -530q8 -13 4 -25t-18 -12h-53q-29 0 -43 25l-293 530q-27 -2 -76 -2h-377v-526q0 -27 -33 -27h-37q-26 0 -26 27z" />
    <glyph glyph-name="rcommaaccent" unicode="&#x157;" horiz-adv-x="765" 
d="M121 -230q1 32 25 54t70 20q46 0 77 -42t31 -115q0 -129 -84 -205q-12 -12 -25 -2l-25 20q-14 12 3 29q57 49 57 133q0 35 -10 51q-14 -14 -46 -14t-53 19q-20 20 -20 52zM172 31v884q0 31 31 31h14q25 0 27 -26l10 -97q20 27 50 54t100 59t145 31q74 0 153 -27
q35 -10 25 -43l-12 -37q-8 -27 -39 -12q-51 31 -130 31t-165 -48t-119 -114v-686q0 -31 -31 -31h-32q-27 0 -27 31z" />
    <glyph glyph-name="Rcaron" unicode="&#x158;" horiz-adv-x="1318" 
d="M596 1563q-10 0 -21 10l-247 201q-18 14 -9 28l19 23q12 16 31 4l231 -172l229 172q18 12 31 -4l19 -23q10 -14 -9 -28l-247 -201q-10 -10 -21 -10h-6zM305 647h432q150 1 256 103q107 102 107 248t-106 244t-259 97h-430v-692zM207 27v1380q0 27 26 27h508
q189 0 323 -124t134 -294t-95 -288t-243 -161l299 -530q8 -13 4 -25t-18 -12h-53q-29 0 -43 25l-293 530q-27 -2 -76 -2h-377v-526q0 -27 -33 -27h-37q-26 0 -26 27z" />
    <glyph glyph-name="rcaron" unicode="&#x159;" horiz-adv-x="765" 
d="M424 1116q-10 0 -21 10l-247 201q-18 14 -9 29l19 22q12 16 31 4l231 -172l229 172q18 12 31 -4l19 -22q10 -14 -9 -29l-247 -201q-10 -10 -21 -10h-6zM172 31v884q0 31 31 31h14q25 0 27 -26l10 -97q20 27 50 54t100 59t145 31q74 0 153 -27q35 -10 25 -43l-12 -37
q-8 -27 -39 -12q-51 31 -130 31t-165 -48t-119 -114v-686q0 -31 -31 -31h-32q-27 0 -27 31z" />
    <glyph glyph-name="Sacute" unicode="&#x15a;" horiz-adv-x="1107" 
d="M422 1585q-25 -10 -33 6l-10 21q-6 18 12 28l336 185q25 12 35 -6l20 -41q10 -20 -8 -31zM915 340q0 127 -96 203q-96 77 -301 147t-300 154t-95 248q0 123 100 237q49 55 138 90t191 35t191 -27q88 -27 131 -51l44 -26q25 -18 8 -43l-17 -27q-16 -29 -45 -10
q-145 96 -309 96t-251 -84t-87 -196t84 -183q84 -69 288 -139q203 -70 315 -162t112 -257t-131 -265t-307 -100t-295 69t-148 98q-23 18 -6 43l18 25q25 27 46 8q176 -158 378 -157q145 0 245 73q99 74 99 201z" />
    <glyph glyph-name="sacute" unicode="&#x15b;" horiz-adv-x="847" 
d="M291 1145q-20 -8 -29 8l-12 27q-8 16 12 28l338 178q23 14 35 -6l20 -41q10 -23 -18 -36zM668 230q0 74 -67 121t-208 99t-212 111t-71 157t77 173q77 76 225 76t268 -72q25 -18 12 -43l-12 -23q-12 -23 -41 -8q-113 61 -221 61t-162 -46q-54 -47 -55 -111q0 -64 58 -108
q59 -44 161 -82t143 -56t95 -54q100 -67 100 -185t-92 -190t-249 -72t-294 104q-20 16 -10 35l18 33q14 25 43 4q112 -92 238 -92t191 46q65 48 65 122z" />
    <glyph glyph-name="Scircumflex" unicode="&#x15c;" horiz-adv-x="1107" 
d="M563 1823q10 0 21 -11l247 -200q18 -14 9 -29l-19 -22q-12 -16 -30 -5l-232 173l-229 -173q-18 -12 -31 5l-18 22q-10 14 8 29l248 200q10 10 20 11h6zM915 340q0 127 -96 203q-96 77 -301 147t-300 154t-95 248q0 123 100 237q49 55 138 90t191 35t191 -27
q88 -27 131 -51l44 -26q25 -18 8 -43l-17 -27q-16 -29 -45 -10q-145 96 -309 96t-251 -84t-87 -196t84 -183q84 -69 288 -139q203 -70 315 -162t112 -257t-131 -265t-307 -100t-295 69t-148 98q-23 18 -6 43l18 25q25 27 46 8q176 -158 378 -157q145 0 245 73q99 74 99 201z
" />
    <glyph glyph-name="scircumflex" unicode="&#x15d;" horiz-adv-x="847" 
d="M424 1395q10 0 20 -11l248 -200q18 -14 8 -29l-18 -22q-12 -16 -31 -5l-231 172l-230 -172q-18 -12 -30 5l-19 22q-10 14 9 29l247 200q10 10 21 11h6zM668 230q0 74 -67 121t-208 99t-212 111t-71 157t77 173q77 76 225 76t268 -72q25 -18 12 -43l-12 -23
q-12 -23 -41 -8q-113 61 -221 61t-162 -46q-54 -47 -55 -111q0 -64 58 -108q59 -44 161 -82t143 -56t95 -54q100 -67 100 -185t-92 -190t-249 -72t-294 104q-20 16 -10 35l18 33q14 25 43 4q112 -92 238 -92t191 46q65 48 65 122z" />
    <glyph glyph-name="Scedilla" unicode="&#x15e;" horiz-adv-x="1107" 
d="M915 340q0 127 -96 203q-96 77 -301 147t-300 154t-95 248q0 123 100 237q49 55 138 90t191 35t191 -27q88 -27 131 -51l44 -26q25 -18 8 -43l-17 -27q-16 -29 -45 -10q-145 96 -309 96t-251 -84t-87 -196t84 -183q84 -69 288 -139q203 -70 315 -162t112 -251t-115 -257
t-283 -112l-75 -123q12 4 39 4q74 0 130 -41t56 -124t-61 -132t-155 -49t-163 63q-12 12 -2 27l21 39q10 14 26 2q47 -51 117 -51q129 0 129 96q0 45 -34 69t-89 23q-55 0 -100 -18q-10 -4 -21 5q-10 9 -6 19l102 191q-100 6 -216 53t-181 112q-23 18 -6 43l18 25
q25 27 46 8q176 -158 378 -157q145 0 245 73q99 74 99 201z" />
    <glyph glyph-name="scedilla" unicode="&#x15f;" horiz-adv-x="847" 
d="M668 230q0 74 -67 121t-208 99t-212 111t-71 157t77 173q77 76 225 76t268 -72q25 -18 12 -43l-12 -23q-12 -23 -41 -8q-113 61 -221 61t-162 -46q-54 -47 -55 -111q0 -64 58 -108q59 -44 161 -82t143 -56t95 -54q100 -67 100 -180q0 -114 -81 -185t-208 -80l-74 -121
q12 4 39 4q74 0 130 -41t56 -124t-60 -132q-62 -49 -156 -49t-162 63q-12 12 -2 27l20 39q10 14 27 2q47 -51 116 -51q129 0 129 96q0 45 -34 69t-88 23q-55 0 -101 -18q-10 -4 -20 5t-6 19l102 189q-147 14 -262 102q-20 16 -10 35l18 33q14 25 43 4q112 -92 238 -92
t191 46q65 48 65 122z" />
    <glyph glyph-name="Scaron" unicode="&#x160;" horiz-adv-x="1107" 
d="M559 1546q-10 0 -20 10l-248 201q-18 14 -8 29l18 22q12 16 31 4l231 -172l230 172q18 12 30 -4l19 -22q10 -14 -8 -29l-248 -201q-10 -10 -21 -10h-6zM915 340q0 127 -96 203q-96 77 -301 147t-300 154t-95 248q0 123 100 237q49 55 138 90t191 35t191 -27
q88 -27 131 -51l44 -26q25 -18 8 -43l-17 -27q-16 -29 -45 -10q-145 96 -309 96t-251 -84t-87 -196t84 -183q84 -69 288 -139q203 -70 315 -162t112 -257t-131 -265t-307 -100t-295 69t-148 98q-23 18 -6 43l18 25q25 27 46 8q176 -158 378 -157q145 0 245 73q99 74 99 201z
" />
    <glyph glyph-name="scaron" unicode="&#x161;" horiz-adv-x="847" 
d="M418 1118q-10 0 -21 10l-247 201q-18 14 -9 29l19 22q12 16 30 4l232 -172l229 172q18 12 31 -4l18 -22q10 -14 -8 -29l-248 -201q-10 -10 -20 -10h-6zM668 230q0 74 -67 121t-208 99t-212 111t-71 157t77 173q77 76 225 76t268 -72q25 -18 12 -43l-12 -23
q-12 -23 -41 -8q-113 61 -221 61t-162 -46q-54 -47 -55 -111q0 -64 58 -108q59 -44 161 -82t143 -56t95 -54q100 -67 100 -185t-92 -190t-249 -72t-294 104q-20 16 -10 35l18 33q14 25 43 4q112 -92 238 -92t191 46q65 48 65 122z" />
    <glyph glyph-name="Tcommaaccent" unicode="&#x162;" horiz-adv-x="1040" 
d="M471 27v1319h-391q-27 0 -27 30v31q0 27 27 27h881q27 0 26 -27v-35q0 -27 -26 -26h-394v-1319q0 -16 -14 -23l-98 -149q23 8 55 8q74 0 126 -41t52 -124t-57 -132t-151 -49t-163 63q-12 12 -2 27l21 33q10 14 26 2q48 -52 112 -52t99 30t35 81t-34 79t-85 28t-96 -19
q-10 -4 -17 5t-3 20l110 190q-12 7 -12 23z" />
    <glyph glyph-name="tcommaaccent" unicode="&#x163;" horiz-adv-x="743" 
d="M215 229v629h-115q-31 0 -30 31v33q0 25 30 24h115v258q0 27 33 31l26 2q12 2 22 -8t9 -23v-260h334q33 0 33 -31v-26q0 -31 -33 -31h-334v-618q0 -96 26 -136q25 -40 113 -38q88 0 207 75q25 12 37 -8l17 -29q10 -20 -9 -36q-88 -70 -225 -86l-84 -127q23 8 55 8
q74 0 126 -41t52 -124t-56 -132q-58 -49 -152 -49t-162 63q-12 12 -2 27l20 33q10 14 27 2q47 -52 111 -52t100 30q35 30 35 81t-34 79t-85 28t-96 -19q-10 -4 -18 5q-7 9 -3 20l96 166q-111 6 -149 70t-37 179z" />
    <glyph glyph-name="Tcaron" unicode="&#x164;" horiz-adv-x="1040" 
d="M516 1563q-10 0 -20 10l-248 201q-18 14 -8 28l18 23q12 16 31 4l231 -172l230 172q18 12 30 -4l19 -23q10 -14 -8 -28l-248 -201q-10 -10 -21 -10h-6zM471 27v1319h-391q-27 0 -27 30v31q0 27 27 27h881q27 0 26 -27v-35q0 -27 -26 -26h-394v-1319q0 -27 -32 -27h-37
q-27 0 -27 27z" />
    <glyph glyph-name="tcaron" unicode="&#x165;" horiz-adv-x="743" 
d="M675 1309q-33 0 -53 19t-20 51t25 54q25 21 71 21t76 -42q31 -42 31 -116q0 -129 -84 -204q-12 -12 -25 -2l-24 20q-12 12 2 29q57 49 57 133q0 35 -10 51q-14 -14 -46 -14zM215 229v629h-115q-31 0 -30 31v33q0 25 30 24h115v258q0 27 33 31l26 2q12 2 22 -8t9 -23v-260
h334q33 0 33 -31v-26q0 -31 -33 -31h-334v-618q0 -96 26 -136q25 -40 113 -38q88 0 207 75q25 12 37 -8l17 -29q10 -20 -9 -36q-119 -90 -257 -90t-181 66t-43 185z" />
    <glyph glyph-name="Tbar" unicode="&#x166;" horiz-adv-x="1044" 
d="M831 684q27 0 27 -25v-12q0 -27 -27 -26h-262v-594q0 -27 -45 -27h-24q-27 0 -27 27v594h-256q-27 0 -27 30v8q0 9 8 17t19 8h256v664h-391q-27 0 -27 41v18q0 27 27 27h881q27 0 26 -27v-33q0 -27 -26 -26h-394v-664h262z" />
    <glyph glyph-name="tbar" unicode="&#x167;" horiz-adv-x="743" 
d="M215 229v236h-80q-31 0 -31 31v8q0 12 10 21t21 10h80v323h-115q-31 0 -30 31v33q0 25 30 24h115v258q0 27 33 31l26 2q12 2 22 -8t9 -23v-260h334q33 0 33 -31v-26q0 -31 -33 -31h-334v-323h273q31 0 30 -31v-12q0 -27 -30 -27h-273v-225q0 -96 26 -136q25 -40 113 -38
q88 0 207 75q25 12 37 -8l17 -29q10 -20 -9 -36q-119 -90 -257 -90t-181 66t-43 185z" />
    <glyph glyph-name="Utilde" unicode="&#x168;" horiz-adv-x="1460" 
d="M638 1851q44 -1 79 -29t50 -64t40 -64t57 -29q76 0 117 121q8 27 31 14l22 -8q24 -12 0 -62q-8 -18 -28 -56t-60 -62t-88 -23q-49 0 -83 30q-34 31 -50 65t-42 64t-56 30q-76 0 -117 -127q-6 -25 -31 -15l-24 11q-20 6 -13 28q49 125 117 160q35 16 79 16zM195 514v893
q0 27 26 27h43q27 0 27 -27v-883q0 -202 119 -326q118 -124 320 -124t322 124t119 324v885q0 27 29 27h41q27 0 27 -27v-893q0 -238 -148 -386t-391 -148q-242 0 -388 148t-146 386z" />
    <glyph glyph-name="utilde" unicode="&#x169;" horiz-adv-x="1081" 
d="M659 1214q76 0 117 121q8 27 31 15l22 -9q23 -11 -7 -80q-29 -68 -75 -95q-45 -28 -94 -28t-83 30t-50 65t-42 65t-56 29q-76 0 -117 -127q-6 -24 -31 -14l-24 10q-20 6 -12 29q49 125 116 159q35 16 79 16t79 -28t50 -64t40 -65t57 -29zM162 385v530q0 11 9 21t22 10h30
q29 0 29 -31v-530q0 -166 62 -243t206 -76q176 0 299 176v673q0 31 31 31h31q10 0 19 -9t9 -22v-884q0 -11 -9 -21t-19 -10h-19q-25 0 -28 29l-9 92q-20 -27 -50 -53q-29 -26 -103 -59q-74 -32 -158 -32q-192 -1 -272 99t-80 309z" />
    <glyph glyph-name="Umacron" unicode="&#x16a;" horiz-adv-x="1460" 
d="M471 1702q-27 0 -27 27v24q0 27 27 27h557q27 0 27 -27v-24q0 -27 -27 -27h-557zM195 514v893q0 27 26 27h43q27 0 27 -27v-883q0 -202 119 -326q118 -124 320 -124t322 124t119 324v885q0 27 29 27h41q27 0 27 -27v-893q0 -238 -148 -386t-391 -148q-242 0 -388 148
t-146 386z" />
    <glyph glyph-name="umacron" unicode="&#x16b;" horiz-adv-x="1081" 
d="M260 1219q-27 0 -27 24v27q0 27 27 26h557q27 0 27 -26v-27q0 -25 -27 -24h-557zM162 385v530q0 11 9 21t22 10h30q29 0 29 -31v-530q0 -166 62 -243t206 -76q176 0 299 176v673q0 31 31 31h31q10 0 19 -9t9 -22v-884q0 -11 -9 -21t-19 -10h-19q-25 0 -28 29l-9 92
q-20 -27 -50 -53q-29 -26 -103 -59q-74 -32 -158 -32q-192 -1 -272 99t-80 309z" />
    <glyph glyph-name="Ubreve" unicode="&#x16c;" horiz-adv-x="1460" 
d="M749 1587q-103 0 -179 66q-75 66 -89 162q-4 29 21 28h26q16 0 25 -24q19 -70 71 -115t124 -45t126 46t70 114q6 25 25 24h28q25 0 21 -28q-16 -98 -91 -163t-178 -65zM195 514v893q0 27 26 27h43q27 0 27 -27v-883q0 -202 119 -326q118 -124 320 -124t322 124t119 324
v885q0 27 29 27h41q27 0 27 -27v-893q0 -238 -148 -386t-391 -148q-242 0 -388 148t-146 386z" />
    <glyph glyph-name="ubreve" unicode="&#x16d;" horiz-adv-x="1081" 
d="M539 1102q-102 0 -178 64q-75 65 -91 161q-4 29 21 29h26q16 0 25 -23q16 -73 70 -117t125 -44q72 0 126 46t70 115q6 23 25 23h28q25 0 21 -29q-16 -97 -91 -161t-177 -64zM162 385v530q0 11 9 21t22 10h30q29 0 29 -31v-530q0 -166 62 -243t206 -76q176 0 299 176v673
q0 31 31 31h31q10 0 19 -9t9 -22v-884q0 -11 -9 -21t-19 -10h-19q-25 0 -28 29l-9 92q-20 -27 -50 -53q-29 -26 -103 -59q-74 -32 -158 -32q-192 -1 -272 99t-80 309z" />
    <glyph glyph-name="Uring" unicode="&#x16e;" horiz-adv-x="1460" 
d="M750 1610q61 0 106 45t45 106t-45 107t-106 45q-60 0 -106 -45q-46 -44 -46 -106t46 -107t106 -45zM750 1544q-92 0 -154 62t-64 155q0 91 62 155t154 64t156 -63t65 -155t-63 -156q-64 -62 -156 -62zM195 514v893q0 27 26 27h43q27 0 27 -27v-883q0 -202 119 -326
q118 -124 320 -124t322 124t119 324v885q0 27 29 27h41q27 0 27 -27v-893q0 -238 -148 -386t-391 -148q-242 0 -388 148t-146 386z" />
    <glyph glyph-name="uring" unicode="&#x16f;" horiz-adv-x="1081" 
d="M540 1083q60 0 105 45q45 44 45 106t-45 107t-105 45t-106 -45t-47 -106q0 -61 46 -107q47 -45 107 -45zM540 1018q-91 0 -155 62q-63 62 -63 154t63 156t155 64t154 -63q64 -63 64 -155t-64 -156q-64 -62 -154 -62zM162 385v530q0 11 9 21t22 10h30q29 0 29 -31v-530
q0 -166 62 -243t206 -76q176 0 299 176v673q0 31 31 31h31q10 0 19 -9t9 -22v-884q0 -11 -9 -21t-19 -10h-19q-25 0 -28 29l-9 92q-20 -27 -50 -53q-29 -26 -103 -59q-74 -32 -158 -32q-192 -1 -272 99t-80 309z" />
    <glyph glyph-name="Uhungarumlaut" unicode="&#x170;" horiz-adv-x="1460" 
d="M561 1569q-25 0 -14 24l162 326q10 23 28 23h45q16 0 22 -10t-1 -25l-191 -322q-8 -16 -26 -16h-25zM901 1569q-25 0 -14 24l162 326q10 23 28 23h45q16 0 22 -10t-1 -25l-191 -322q-8 -16 -26 -16h-25zM195 514v893q0 27 26 27h43q27 0 27 -27v-883q0 -202 119 -326
q118 -124 320 -124t322 124t119 324v885q0 27 29 27h41q27 0 27 -27v-893q0 -238 -148 -386t-391 -148q-242 0 -388 148t-146 386z" />
    <glyph glyph-name="uhungarumlaut" unicode="&#x171;" horiz-adv-x="1081" 
d="M354 1061q-25 0 -14 24l162 326q10 23 28 23h45q17 0 23 -10t-2 -25l-190 -322q-8 -16 -27 -16h-25zM694 1061q-25 0 -14 24l162 326q10 23 28 23h45q17 0 23 -10t-2 -25l-191 -322q-8 -16 -26 -16h-25zM162 385v530q0 11 9 21t22 10h30q29 0 29 -31v-530q0 -166 62 -243
t206 -76q176 0 299 176v673q0 31 31 31h31q10 0 19 -9t9 -22v-884q0 -11 -9 -21t-19 -10h-19q-25 0 -28 29l-9 92q-20 -27 -50 -53q-29 -26 -103 -59q-74 -32 -158 -32q-192 -1 -272 99t-80 309z" />
    <glyph glyph-name="Uogonek" unicode="&#x172;" horiz-adv-x="1458" 
d="M193 522v885q0 27 26 27h43q27 0 27 -27v-875q0 -202 119 -330q118 -128 320 -128t322 128t119 328v877q0 27 29 27h41q27 0 27 -27v-885q0 -221 -129 -369t-344 -169q-199 -123 -199 -279q0 -55 33 -88t97 -33t126 54q6 6 14 4t10 -13l5 -39q4 -25 -21 -36
q-80 -50 -166 -50t-137 56t-51 143q0 156 176 279q-221 14 -354 164t-133 376z" />
    <glyph glyph-name="uogonek" unicode="&#x173;" horiz-adv-x="1081" 
d="M162 397v518q0 11 9 21t22 10h30q29 0 29 -31v-518q0 -168 62 -250t206 -81q176 0 299 176v673q0 31 31 31h31q10 0 19 -9t9 -22v-880q0 -25 -22 -35q-88 -39 -159 -115t-71 -180q0 -55 33 -88q34 -33 98 -33t125 54q7 6 15 4t10 -13l4 -39q4 -25 -20 -36
q-80 -50 -166 -50t-138 56t-51 156q0 102 84 187t183 128l-9 90q-20 -27 -50 -53q-29 -26 -103 -59q-74 -32 -158 -32q-192 1 -272 105t-80 315z" />
    <glyph glyph-name="Wcircumflex" unicode="&#x174;" horiz-adv-x="1794" 
d="M895 1839h6q10 0 21 -10l247 -201q18 -14 9 -29l-19 -22q-12 -16 -31 -4l-231 172l-229 -172q-18 -12 -31 4l-19 22q-10 14 9 29l247 201q10 10 21 10zM82 1434h49q20 0 25 -23l344 -1200h4l360 1225q6 18 31 18h4q25 0 31 -18l362 -1225h4l342 1200q4 23 25 23h49
q29 0 23 -27l-406 -1413q-4 -14 -18 -14h-23q-14 0 -20 14l-369 1247h-4l-369 -1247q-6 -14 -20 -14h-23q-14 0 -18 14l-406 1413q-6 27 23 27z" />
    <glyph glyph-name="wcircumflex" unicode="&#x175;" horiz-adv-x="1431" 
d="M717 1393q10 0 20 -11l248 -200q18 -14 8 -29l-18 -23q-12 -16 -31 -4l-231 172l-230 -172q-18 -12 -30 4l-19 23q-10 14 8 29l248 200q10 10 21 11h6zM92 946h45q27 0 31 -22l223 -762h4l287 784q8 20 29 21h8q20 0 29 -21l282 -784h4l226 762q4 23 30 22h47
q27 0 13 -39l-283 -907q-6 -23 -29 -23h-8q-20 0 -31 23l-282 807h-4l-285 -807q-6 -23 -29 -23h-8q-23 0 -31 23l-282 907q-10 39 14 39z" />
    <glyph glyph-name="Ycircumflex" unicode="&#x176;" horiz-adv-x="1159" 
d="M580 1839h6q10 0 20 -10l248 -201q18 -14 8 -29l-18 -22q-12 -16 -31 -4l-231 172l-230 -172q-18 -12 -30 4l-19 22q-10 14 8 29l248 201q10 10 21 10zM561 0q-31 0 -31 27v669l-522 707q-19 29 17 31h61q16 0 27 -13l467 -637l475 637q10 12 26 13h62q16 0 20 -10
t-4 -21l-532 -705v-671q0 -27 -27 -27h-39z" />
    <glyph glyph-name="ycircumflex" unicode="&#x177;" horiz-adv-x="980" 
d="M483 1393q10 0 21 -11l248 -200q18 -14 8 -29l-19 -23q-12 -16 -30 -4l-232 172l-229 -172q-18 -12 -31 4l-18 23q-10 14 8 29l248 200q10 10 20 11h6zM72 946h43q25 0 32 -22l334 -818h6l349 818q8 23 30 22h45q35 0 15 -39l-592 -1376q-10 -18 -31 -18h-47
q-33 0 -18 32l196 457l-377 905q-16 39 15 39z" />
    <glyph glyph-name="Ydieresis" unicode="&#x178;" horiz-adv-x="1159" 
d="M367 1792q35 0 59 -25t25 -59q-1 -34 -25 -56q-24 -24 -58 -24t-59 24t-25 58t24 58t59 24zM795 1792q35 0 59 -25t25 -59q-1 -34 -25 -56q-24 -24 -58 -24t-59 24t-25 58t24 58t59 24zM561 0q-31 0 -31 27v669l-522 707q-19 29 17 31h61q16 0 27 -13l467 -637l475 637
q10 12 26 13h62q16 0 20 -10t-4 -21l-532 -705v-671q0 -27 -27 -27h-39z" />
    <glyph glyph-name="Zacute" unicode="&#x179;" horiz-adv-x="1075" 
d="M432 1602q-25 -10 -33 6l-10 20q-6 18 12 29l336 184q25 12 35 -6l21 -41q10 -20 -9 -31zM53 25v16q0 20 10 37l822 1261v4h-742q-27 0 -26 31v33q0 27 26 27h844q27 0 27 -27v-12q0 -20 -10 -37l-824 -1266v-2h764q27 0 27 -27v-36q0 -27 -27 -27h-862q-29 0 -29 25z
" />
    <glyph glyph-name="zacute" unicode="&#x17a;" horiz-adv-x="856" 
d="M281 1143q-20 -8 -29 8l-12 27q-8 16 12 28l338 178q23 14 35 -6l20 -41q10 -23 -18 -37zM70 27v4q0 18 12 37l559 784v6h-498q-12 0 -20 9t-8 20v28q0 31 28 31h613q31 0 30 -31q0 -10 -12 -26l-571 -795v-6h516q31 0 31 -31v-26q0 -31 -31 -31h-619q-30 0 -30 27z" />
    <glyph glyph-name="Zdotaccent" unicode="&#x17b;" horiz-adv-x="1075" 
d="M570 1657q-34 1 -58 23t-23 55q0 33 24 57q25 24 59 23q34 0 57 -23q23 -22 23 -56t-24 -57q-24 -22 -58 -22zM53 25v16q0 20 10 37l822 1261v4h-742q-27 0 -26 31v33q0 27 26 27h844q27 0 27 -27v-12q0 -20 -10 -37l-824 -1266v-2h764q27 0 27 -27v-36q0 -27 -27 -27
h-862q-29 0 -29 25z" />
    <glyph glyph-name="zdotaccent" unicode="&#x17c;" horiz-adv-x="856" 
d="M441 1208q-33 0 -57 23t-24 55t24 56t58 24t57 -24t23 -56t-24 -56q-24 -22 -57 -22zM70 27v4q0 18 12 37l559 784v6h-498q-12 0 -20 9t-8 20v28q0 31 28 31h613q31 0 30 -31q0 -10 -12 -26l-571 -795v-6h516q31 0 31 -31v-26q0 -31 -31 -31h-619q-30 0 -30 27z" />
    <glyph glyph-name="Zcaron" unicode="&#x17d;" horiz-adv-x="1075" 
d="M569 1563q-10 0 -20 10l-248 201q-18 14 -8 28l18 23q12 16 31 4l231 -172l230 172q18 12 31 -4l18 -23q10 -14 -8 -28l-248 -201q-10 -10 -21 -10h-6zM53 25v16q0 20 10 37l822 1261v4h-742q-27 0 -26 31v33q0 27 26 27h844q27 0 27 -27v-12q0 -20 -10 -37l-824 -1266
v-2h764q27 0 27 -27v-36q0 -27 -27 -27h-862q-29 0 -29 25z" />
    <glyph glyph-name="zcaron" unicode="&#x17e;" horiz-adv-x="856" 
d="M440 1116q-10 0 -20 10l-248 201q-18 14 -8 29l18 22q12 16 31 4l231 -172l230 172q18 12 31 -4l18 -22q10 -14 -8 -29l-248 -201q-10 -10 -21 -10h-6zM70 27v4q0 18 12 37l559 784v6h-498q-12 0 -20 9t-8 20v28q0 31 28 31h613q31 0 30 -31q0 -10 -12 -26l-571 -795v-6
h516q31 0 31 -31v-26q0 -31 -31 -31h-619q-30 0 -30 27z" />
    <glyph glyph-name="florin" unicode="&#x192;" horiz-adv-x="741" 
d="M262 -156v895h-178q-27 0 -27 27v27q0 27 27 26h178v281q0 174 85 264t224 90q74 0 140 -28t85 -53t9 -40l-21 -28q-14 -23 -34 -2q-74 69 -176 69t-162 -68q-59 -68 -60 -204v-281h303q27 0 27 -24v-31q0 -25 -27 -25h-303v-895q0 -174 -85 -264t-224 -90q-73 0 -139 28
t-85 53t-9 40l20 29q14 23 35 2q74 -70 176 -70q101 0 161 68t60 204z" />
    <glyph glyph-name="Aringacute" unicode="&#x1fa;" horiz-adv-x="1337" 
d="M311 475h711l-350 825h-4zM676 1477q61 0 106 45t45 106q0 60 -45 106t-106 46q-60 0 -106 -45t-46 -107t46 -106q46 -45 106 -45zM25 0q-25 0 -15 25l615 1390q-74 17 -120 75t-46 144t62 150q61 64 153 63q92 0 156 -63q64 -62 65 -150q0 -88 -51 -147t-131 -74
l610 -1388q8 -25 -18 -25h-54q-18 0 -28 18l-166 377h-783l-163 -377q-8 -18 -29 -18h-57zM477 1866l-10 20q-6 18 12 29l336 184q25 12 35 -6l20 -41q10 -20 -8 -31l-352 -161q-25 -10 -33 6z" />
    <glyph glyph-name="aringacute" unicode="&#x1fb;" horiz-adv-x="980" 
d="M486 530q-138 0 -223 -66t-85 -169q0 -101 66 -165t164 -64t188 46t131 97v272q-103 49 -241 49zM381 -23q-119 -1 -205 85t-86 227t106 231t287 90q115 0 244 -43q0 172 -41 244t-172 72q-89 0 -163 -22q-73 -22 -95 -32t-25 -10q-29 -12 -36 15l-11 28q-12 20 6 30
q57 34 150 54q289 60 410 -52q55 -53 64 -201q3 -48 3 -138v-524q0 -11 -10 -21t-23 -10h-16q-27 0 -29 27l-10 86q-53 -53 -141 -95t-207 -41zM326 1430q-20 -8 -29 8l-12 26q-8 16 12 29l338 137q23 14 35 -6l20 -41q10 -23 -18 -37zM334 1231q0 -59 44 -92t108 -33
t108 33q43 33 43 92t-43 92t-108 33q-64 0 -108 -33t-44 -92zM486 1423q94 0 156 -51t62 -141q0 -91 -61 -141q-62 -50 -157 -50t-156 50t-62 141q0 90 62 141t156 51z" />
    <glyph glyph-name="AEacute" unicode="&#x1fc;" horiz-adv-x="1847" 
d="M1102 1604q-25 -10 -33 6l-10 20q-6 18 12 29l336 184q25 12 35 -6l20 -41q10 -20 -8 -31zM866 475v782l-497 -782h497zM-6 0q-31 0 -8 35l870 1364q20 35 51 35h805q27 0 27 -27v-33q0 -27 -27 -26h-756v-568h658q27 0 26 -26v-35q0 -27 -26 -27h-658v-606h756
q27 0 27 -29v-30q0 -27 -27 -27h-819q-27 0 -27 27v368h-544l-238 -377q-12 -18 -33 -18h-57z" />
    <glyph glyph-name="aeacute" unicode="&#x1fd;" horiz-adv-x="1640" 
d="M735 1143q-20 -8 -28 8l-13 27q-8 16 13 28l337 178q23 14 35 -6l21 -41q10 -23 -19 -37zM178 292q0 -106 71 -166t168 -60t184 45t126 98v274l-55 19q-93 28 -207 28q-113 0 -200 -66t-87 -172zM813 528h643q0 146 -91 250t-245 105q-197 0 -307 -174v-181zM90 292
q0 142 104 230t277 88q80 0 156 -15t100 -28q0 174 -39 245t-168 71t-293 -66q-27 -6 -34 19l-13 34q-4 23 21 31q135 66 325 66q115 0 175 -36t90 -108q129 143 322 143t313 -120q120 -121 120 -309q0 -92 -33 -93h-700v-202q111 -176 315 -176q131 0 283 92q31 18 43 2
l23 -35q12 -18 -21 -47t-133 -65t-203 -36q-215 0 -344 162q-53 -63 -154 -112t-228 -49t-216 85q-88 87 -88 229z" />
    <glyph glyph-name="Oslashacute" unicode="&#x1fe;" horiz-adv-x="1703" 
d="M711 1602q-25 -10 -33 6l-10 20q-6 18 12 29l336 184q25 12 35 -6l20 -41q10 -20 -8 -31zM856 70q264 0 455 188q190 188 190 446t-164 441l-927 -903q182 -172 446 -172zM846 1364q-262 0 -452 -190t-189 -448q0 -258 160 -439l929 903q-186 174 -448 174zM115 727
q0 295 215 511t516 216t512 -201l135 131q16 19 39 -4q22 -22 4 -41l-133 -131q188 -216 188 -508t-216 -506t-520 -214t-511 196l-131 -127q-16 -19 -39 4q-22 22 -4 41l129 127q-184 211 -184 506z" />
    <glyph glyph-name="oslashacute" unicode="&#x1ff;" horiz-adv-x="1165" 
d="M424 1143q-20 -8 -29 8l-12 27q-8 16 12 28l338 178q23 14 35 -6l20 -41q10 -23 -18 -37zM963 475q0 119 -64 223l-569 -534q108 -98 260 -98t262 120t111 289zM582 879q-158 0 -270 -119q-112 -118 -113 -274q0 -156 86 -269l571 537q-116 125 -274 125zM109 482
q0 196 137 340t338 144t340 -149l24 25q18 23 41 0l10 -11q20 -20 -2 -38l-30 -29q92 -131 92 -289q0 -207 -138 -352q-137 -145 -329 -145t-328 124l-33 -32q-18 -16 -36 2l-13 12q-20 20 0 37l35 33q-108 132 -108 328z" />
    <glyph glyph-name="Scommaaccent" unicode="&#x218;" horiz-adv-x="1107" 
d="M554 -317q-32 0 -52 19t-21 51q0 31 25 53q24 22 70 22t77 -42t31 -116q0 -129 -84 -205q-12 -12 -25 -2l-24 21q-14 12 2 29q57 49 57 133q0 35 -10 51q-14 -14 -46 -14zM915 340q0 127 -96 203q-96 77 -301 147t-300 154t-95 248q0 123 100 237q49 55 138 90t191 35
t191 -27q88 -27 131 -51l44 -26q25 -18 8 -43l-17 -27q-16 -29 -45 -10q-145 96 -309 96t-251 -84t-87 -196t84 -183q84 -69 288 -139q203 -70 315 -162t112 -257t-131 -265t-307 -100t-295 69t-148 98q-23 18 -6 43l18 25q25 27 46 8q176 -158 378 -157q145 0 245 73
q99 74 99 201z" />
    <glyph glyph-name="scommaaccent" unicode="&#x219;" horiz-adv-x="847" 
d="M332 -228q0 32 24 54t71 20q46 0 77 -42t31 -115q0 -129 -84 -205q-12 -12 -25 -2l-25 20q-12 14 2 29q57 49 58 133q0 37 -10 51q-14 -14 -46 -14t-53 19q-20 20 -20 52zM668 230q0 74 -67 121t-208 99t-212 111t-71 157t77 173q77 76 225 76t268 -72q25 -18 12 -43
l-12 -23q-12 -23 -41 -8q-113 61 -221 61t-162 -46q-54 -47 -55 -111q0 -64 58 -108q59 -44 161 -82t143 -56t95 -54q100 -67 100 -185t-92 -190t-249 -72t-294 104q-20 16 -10 35l18 33q14 25 43 4q112 -92 238 -92t191 46q65 48 65 122z" />
    <glyph glyph-name="uni021A" unicode="&#x21a;" horiz-adv-x="1040" 
d="M503 -301q-33 -1 -53 19t-20 52t25 54t71 20q46 0 76 -42q31 -42 31 -115q0 -129 -84 -205q-12 -12 -25 -2l-24 20q-12 12 2 29q57 49 57 133q0 35 -10 51q-14 -14 -46 -14zM471 27v1319h-391q-27 0 -27 30v31q0 27 27 27h881q27 0 26 -27v-35q0 -27 -26 -26h-394v-1319
q0 -27 -32 -27h-37q-27 0 -27 27z" />
    <glyph glyph-name="uni021B" unicode="&#x21b;" horiz-adv-x="743" 
d="M336 -230q0 32 24 54t71 20q46 0 77 -42t31 -115q0 -129 -84 -205q-12 -12 -25 -2l-24 20q-12 12 2 29q57 49 57 133q0 35 -10 51q-14 -14 -46 -14t-53 19q-20 20 -20 52zM215 229v629h-115q-31 0 -30 31v33q0 25 30 24h115v258q0 27 33 31l26 2q12 2 22 -8t9 -23v-260
h334q33 0 33 -31v-26q0 -31 -33 -31h-334v-618q0 -96 26 -136q25 -40 113 -38q88 0 207 75q25 12 37 -8l17 -29q10 -20 -9 -36q-119 -90 -257 -90t-181 66t-43 185z" />
    <glyph glyph-name="dotlessj" unicode="&#x237;" horiz-adv-x="434" 
d="M262 915v-1060q0 -158 -57 -238t-180 -121q-35 -12 -48 17l-8 20q-14 35 21 45q182 45 182 258v1079q0 31 31 31h28q10 0 21 -9q10 -10 10 -22z" />
    <glyph glyph-name="circumflex" unicode="&#x2c6;" horiz-adv-x="763" 
d="M381 1393q10 0 20 -11l248 -200q18 -14 8 -29l-18 -23q-12 -16 -31 -4l-231 172l-230 -172q-18 -12 -30 4l-19 23q-10 14 8 29l248 200q10 10 21 11h6z" />
    <glyph glyph-name="caron" unicode="&#x2c7;" horiz-adv-x="763" 
d="M377 1116q-10 0 -21 10l-247 201q-18 14 -9 29l19 22q12 16 31 4l231 -172l229 172q18 12 31 -4l18 -22q10 -14 -8 -29l-248 -201q-10 -10 -20 -10h-6z" />
    <glyph glyph-name="uni02C9" unicode="&#x2c9;" horiz-adv-x="847" 
d="M145 1219q-27 0 -26 24v27q0 27 26 26h557q27 0 27 -26v-27q0 -25 -27 -24h-557z" />
    <glyph glyph-name="breve" unicode="&#x2d8;" horiz-adv-x="708" 
d="M354 1102q-102 0 -177 64t-91 161q-4 29 20 29h27q16 0 25 -23q16 -73 69 -117t125 -44t126 46t71 115q6 23 24 23h29q25 0 21 -29q-15 -97 -91 -161t-178 -64z" />
    <glyph glyph-name="dotaccent" unicode="&#x2d9;" horiz-adv-x="448" 
d="M220 1192q-34 0 -58 22t-23 56q0 32 24 56q23 24 57 24t58 -24t24 -56t-24 -56q-24 -22 -58 -22z" />
    <glyph glyph-name="ring" unicode="&#x2da;" horiz-adv-x="593" 
d="M296 1083q60 0 105 45q45 44 45 106t-45 107t-105 45t-106 -45t-47 -106q0 -61 46 -107q47 -45 107 -45zM296 1018q-91 0 -155 62q-63 62 -63 154t63 156t155 64t154 -63q64 -63 64 -155t-63 -156q-64 -62 -155 -62z" />
    <glyph glyph-name="ogonek" unicode="&#x2db;" horiz-adv-x="565" 
d="M282 -416q64 0 126 54q6 6 14 4t10 -13l4 -39q4 -25 -20 -36q-80 -50 -166 -50t-137 56t-51 130t23 126q46 101 224 211l82 -21q-240 -133 -239 -301q0 -55 32 -88q34 -33 98 -33z" />
    <glyph glyph-name="tilde" unicode="&#x2dc;" horiz-adv-x="778" 
d="M492 1214q76 0 116 121q8 27 31 15l23 -9q29 -15 -24 -109q-53 -95 -153 -93q-49 -1 -83 29t-50 65t-42 65t-56 29q-76 0 -117 -127q-6 -24 -31 -14l-24 10q-20 6 -12 29q49 125 116 159q35 16 79 16t79 -28t50 -64q40 -94 98 -94z" />
    <glyph glyph-name="hungarumlaut" unicode="&#x2dd;" horiz-adv-x="802" 
d="M133 1061q-25 0 -14 24l162 326q10 23 28 23h45q16 0 22 -10t-1 -25l-191 -322q-8 -16 -26 -16h-25zM473 1061q-25 0 -14 24l162 326q10 23 28 23h45q16 0 22 -10t-1 -25l-191 -322q-8 -16 -26 -16h-25z" />
    <glyph glyph-name="uni0394" unicode="&#x394;" horiz-adv-x="1441" 
d="M195 86h1046l-516 1204h-4zM117 0q-66 0 -29 76l606 1364q6 14 25 14h6q20 0 27 -14l604 -1368q33 -72 -37 -72h-1202z" />
    <glyph glyph-name="uni03A9" unicode="&#x3a9;" horiz-adv-x="1716" 
d="M180 27v30q0 27 27 27h282q-166 96 -267 263t-101 368q0 307 215 523t522 216t522 -216t215 -523q0 -201 -101 -368t-267 -263h282q27 0 27 -27v-30q0 -27 -27 -27h-485q-25 0 -25 27v30q0 20 25 27q211 53 346 228t135 403q0 269 -189 459q-190 190 -458 190t-458 -190
t-189 -459q0 -227 135 -403t346 -228q25 -6 25 -27v-30q0 -27 -25 -27h-485q-27 0 -27 27z" />
    <glyph glyph-name="uni03BC" unicode="&#x3bc;" horiz-adv-x="1073" 
d="M188 -457v1372q0 11 10 21t21 10h31q29 0 29 -31v-518q0 -168 62 -250t206 -81q176 0 299 176v673q0 31 31 31h30q9 0 19 -9t10 -22v-884q0 -11 -9 -21t-20 -10h-18q-25 0 -29 29l-8 92q-20 -27 -50 -53t-104 -59q-74 -32 -157 -32q-180 0 -262 93v-527q0 -31 -31 -30
h-33q-27 -1 -27 30z" />
    <glyph glyph-name="pi" unicode="&#x3c0;" horiz-adv-x="1320" 
d="M322 31v827h-248q-31 0 -31 31v26q0 11 9 21t22 10h1171q33 0 33 -28v-33q0 -27 -33 -27h-246v-827q0 -31 -30 -31h-29q-10 0 -20 9t-11 22v827h-497v-827q0 -31 -31 -31h-29q-30 0 -30 31z" />
    <glyph glyph-name="Wgrave" unicode="&#x1e80;" horiz-adv-x="1794" 
d="M1057 1602l-352 161q-18 10 -9 31l21 41q10 18 35 6l335 -184q18 -10 13 -29l-10 -20q-8 -16 -33 -6zM82 1434h49q20 0 25 -23l344 -1200h4l360 1225q6 18 31 18h4q25 0 31 -18l362 -1225h4l342 1200q4 23 25 23h49q29 0 23 -27l-406 -1413q-4 -14 -18 -14h-23
q-14 0 -20 14l-369 1247h-4l-369 -1247q-6 -14 -20 -14h-23q-14 0 -18 14l-406 1413q-6 27 23 27z" />
    <glyph glyph-name="wgrave" unicode="&#x1e81;" horiz-adv-x="1431" 
d="M872 1145l-352 162q-18 10 -8 30l20 41q10 18 35 6l336 -184q18 -10 12 -29l-10 -20q-8 -16 -33 -6zM92 946h45q27 0 31 -22l223 -762h4l287 784q8 20 29 21h8q20 0 29 -21l282 -784h4l226 762q4 23 30 22h47q27 0 13 -39l-283 -907q-6 -23 -29 -23h-8q-20 0 -31 23
l-282 807h-4l-285 -807q-6 -23 -29 -23h-8q-23 0 -31 23l-282 907q-10 39 14 39z" />
    <glyph glyph-name="Wacute" unicode="&#x1e82;" horiz-adv-x="1794" 
d="M737 1602q-25 -10 -32 6l-11 20q-6 18 13 29l335 184q25 12 35 -6l21 -41q10 -20 -8 -31zM82 1434h49q20 0 25 -23l344 -1200h4l360 1225q6 18 31 18h4q25 0 31 -18l362 -1225h4l342 1200q4 23 25 23h49q29 0 23 -27l-406 -1413q-4 -14 -18 -14h-23q-14 0 -20 14
l-369 1247h-4l-369 -1247q-6 -14 -20 -14h-23q-14 0 -18 14l-406 1413q-6 27 23 27z" />
    <glyph glyph-name="wacute" unicode="&#x1e83;" horiz-adv-x="1431" 
d="M551 1143q-20 -8 -29 8l-12 27q-8 16 12 28l338 178q23 14 35 -6l20 -41q10 -23 -18 -37zM92 946h45q27 0 31 -22l223 -762h4l287 784q8 20 29 21h8q20 0 29 -21l282 -784h4l226 762q4 23 30 22h47q27 0 13 -39l-283 -907q-6 -23 -29 -23h-8q-20 0 -31 23l-282 807h-4
l-285 -807q-6 -23 -29 -23h-8q-23 0 -31 23l-282 907q-10 39 14 39z" />
    <glyph glyph-name="Wdieresis" unicode="&#x1e84;" horiz-adv-x="1794" 
d="M683 1628q-35 0 -59 24t-24 58t24 58t58 24t60 -25q24 -25 24 -59t-24 -56q-24 -24 -59 -24zM1111 1628q-35 0 -59 24t-24 58t24 58t58 24t60 -25q24 -25 24 -59t-24 -56q-24 -24 -59 -24zM82 1434h49q20 0 25 -23l344 -1200h4l360 1225q6 18 31 18h4q25 0 31 -18
l362 -1225h4l342 1200q4 23 25 23h49q29 0 23 -27l-406 -1413q-4 -14 -18 -14h-23q-14 0 -20 14l-369 1247h-4l-369 -1247q-6 -14 -20 -14h-23q-14 0 -18 14l-406 1413q-6 27 23 27z" />
    <glyph glyph-name="wdieresis" unicode="&#x1e85;" horiz-adv-x="1431" 
d="M598 1289q0 -33 -24 -57t-57 -24q-35 0 -59 24t-24 58t24 58t58 24t58 -24t24 -59zM908 1208q-34 0 -58 24t-23 58q0 34 24 58q23 24 57 24t59 -24t25 -59q0 -33 -26 -57q-24 -24 -58 -24zM92 946h45q27 0 31 -22l223 -762h4l287 784q8 20 29 21h8q20 0 29 -21l282 -784
h4l226 762q4 23 30 22h47q27 0 13 -39l-283 -907q-6 -23 -29 -23h-8q-20 0 -31 23l-282 807h-4l-285 -807q-6 -23 -29 -23h-8q-23 0 -31 23l-282 907q-10 39 14 39z" />
    <glyph glyph-name="Ygrave" unicode="&#x1ef2;" horiz-adv-x="1159" 
d="M739 1602l-352 161q-18 10 -8 31l20 41q10 18 35 6l336 -184q18 -10 12 -29l-10 -20q-8 -16 -33 -6zM561 0q-31 0 -31 27v669l-522 707q-19 29 17 31h61q16 0 27 -13l467 -637l475 637q10 12 26 13h62q16 0 20 -10t-4 -21l-532 -705v-671q0 -27 -27 -27h-39z" />
    <glyph glyph-name="ygrave" unicode="&#x1ef3;" horiz-adv-x="980" 
d="M639 1145l-352 162q-18 10 -8 30l20 41q10 18 35 6l336 -184q18 -10 12 -29l-10 -20q-8 -16 -33 -6zM72 946h43q25 0 32 -22l334 -818h6l349 818q8 23 30 22h45q35 0 15 -39l-592 -1376q-10 -18 -31 -18h-47q-33 0 -18 32l196 457l-377 905q-16 39 15 39z" />
    <glyph glyph-name="endash" unicode="&#x2013;" horiz-adv-x="1126" 
d="M170 477q-27 0 -27 25v16q0 27 27 27h786q27 0 27 -27v-16q0 -25 -27 -25h-786z" />
    <glyph glyph-name="emdash" unicode="&#x2014;" horiz-adv-x="1572" 
d="M170 477q-27 0 -27 25v16q0 27 27 27h1233q27 0 27 -27v-16q0 -25 -27 -25h-1233z" />
    <glyph glyph-name="quoteleft" unicode="&#x2018;" horiz-adv-x="444" 
d="M258 1110q34 0 54 -22t20 -57q0 -33 -25 -57t-71 -24t-83 60q-36 60 -36 143q0 168 127 291q16 16 26 0l23 -21q10 -14 -2 -30q-102 -94 -103 -213q0 -61 19 -93q18 23 51 23z" />
    <glyph glyph-name="quoteright" unicode="&#x2019;" horiz-adv-x="440" 
d="M186 1294q-34 0 -53 22q-20 22 -20 57q0 34 24 58q25 24 62 23q57 0 93 -60t36 -143q0 -168 -127 -290q-16 -16 -27 0l-22 20q-10 14 2 31q102 94 102 213q0 61 -18 92q-18 -23 -52 -23z" />
    <glyph glyph-name="quotesinglbase" unicode="&#x201a;" horiz-adv-x="460" 
d="M209 -23q-33 1 -53 23t-21 56q0 34 25 58t61 23q57 0 93 -60t36 -143q0 -168 -127 -290q-16 -16 -26 0l-23 20q-10 14 2 31q102 94 103 213q0 61 -19 92q-18 -23 -51 -23z" />
    <glyph glyph-name="quotedblleft" unicode="&#x201c;" horiz-adv-x="811" 
d="M624 1110q34 0 54 -22t20 -57q0 -33 -24 -57t-72 -24q-47 0 -83 60t-36 143q0 168 127 291q16 16 27 0l22 -21q10 -14 -2 -30q-102 -94 -102 -213q0 -61 18 -93q17 23 51 23zM258 1110q34 0 54 -22t20 -57q0 -33 -25 -57t-71 -24t-83 60q-36 60 -36 143q0 168 127 291
q16 16 26 0l23 -21q10 -14 -2 -30q-102 -94 -103 -213q0 -61 19 -93q18 23 51 23z" />
    <glyph glyph-name="quotedblright" unicode="&#x201d;" horiz-adv-x="806" 
d="M553 1294q-33 0 -53 22t-21 57q0 34 25 58t61 23q57 0 93 -60t36 -143q0 -168 -127 -290q-16 -16 -26 0l-23 20q-10 14 2 31q102 94 103 213q0 61 -19 92q-18 -23 -51 -23zM186 1294q-34 0 -53 22q-20 22 -20 57q0 34 24 58q25 24 62 23q57 0 93 -60t36 -143
q0 -168 -127 -290q-16 -16 -27 0l-22 20q-10 14 2 31q102 94 102 213q0 61 -18 92q-18 -23 -52 -23z" />
    <glyph glyph-name="quotedblbase" unicode="&#x201e;" horiz-adv-x="829" 
d="M576 -23q-34 1 -54 23t-20 56t24 58q25 24 62 23q57 0 93 -60t36 -143q0 -168 -127 -290q-16 -16 -27 0l-22 20q-10 14 2 31q102 94 102 213q0 61 -18 92q-17 -23 -51 -23zM209 -23q-33 1 -53 23t-21 56q0 34 25 58t61 23q57 0 93 -60t36 -143q0 -168 -127 -290
q-16 -16 -26 0l-23 20q-10 14 2 31q102 94 103 213q0 61 -19 92q-18 -23 -51 -23z" />
    <glyph glyph-name="dagger" unicode="&#x2020;" horiz-adv-x="1157" 
d="M102 733q-27 0 -26 31v29q0 27 26 26h420v588q0 27 29 27h53q27 0 27 -27v-588h424q25 0 24 -26v-33q0 -27 -24 -27h-426l-19 -1198q0 -23 -26 -22h-17q-27 0 -26 22l-17 1198h-422z" />
    <glyph glyph-name="daggerdbl" unicode="&#x2021;" horiz-adv-x="1183" 
d="M152 29v30q0 27 26 27h367l-8 733h-420q-27 0 -27 29v31q0 27 27 26h420v502q0 27 28 27h53q27 0 27 -27v-502h424q25 0 25 -31v-28q0 -27 -25 -27h-424l-10 -733h373q25 0 24 -27v-32q0 -27 -24 -27h-375l-8 -465q0 -23 -27 -22h-16q-27 0 -27 22l-8 465h-369
q-26 0 -26 29z" />
    <glyph glyph-name="bullet" unicode="&#x2022;" horiz-adv-x="645" 
d="M174 524q0 62 43 106t104 44t105 -44t45 -106q-1 -62 -45 -104q-44 -43 -105 -43t-104 43t-43 104z" />
    <glyph glyph-name="ellipsis" unicode="&#x2026;" horiz-adv-x="1222" 
d="M299 63q0 -35 -24 -59q-23 -24 -57 -24t-60 24t-25 58q0 34 25 59q26 25 60 25t58 -24t23 -59zM526 63q0 35 24 59t58 24t59 -24q23 -24 23 -59t-24 -59t-57 -24q-35 0 -59 24t-24 59zM926 63q0 35 24 59q25 24 59 24q33 0 57 -24t24 -59t-24 -59t-58 -24t-58 24t-24 59z
" />
    <glyph glyph-name="perthousand" unicode="&#x2030;" horiz-adv-x="2037" 
d="M815 259q1 -85 61 -144t145 -59t145 58q60 60 60 145t-60 145t-145 60t-145 -60t-61 -145zM1464 259q0 -85 60 -144t145 -59t145 58q60 60 60 145t-59 145t-145 60t-146 -60t-60 -145zM739 261q0 118 82 201t200 83t201 -83t83 -201t-83 -201t-201 -83t-200 83t-82 201z
M1386 261q0 118 83 201t200 83t201 -84t84 -201t-84 -200t-201 -83t-200 83t-83 201zM380 1376q-86 0 -146 -60t-60 -146t60 -145q60 -60 146 -60q85 0 145 60q61 60 61 145q0 86 -60 146t-146 60zM1096 1434q14 0 19 -12t-3 -27l-780 -1381q-8 -14 -25 -14h-37
q-14 0 -18 12t4 23l778 1388q6 10 25 11h37zM664 1171q0 -119 -83 -201t-201 -81q-118 0 -200 82q-82 83 -82 201t82 200t200 82t201 -82t83 -201z" />
    <glyph glyph-name="guilsinglleft" unicode="&#x2039;" horiz-adv-x="540" 
d="M399 838q11 0 15 -12t-4 -25l-193 -314l193 -321q8 -14 5 -26t-16 -11h-32q-21 0 -33 18l-221 322q-12 14 0 35l221 315q12 18 33 19h32z" />
    <glyph glyph-name="guilsinglright" unicode="&#x203a;" horiz-adv-x="540" 
d="M141 129q-12 0 -15 11t5 26l193 321l-193 314q-8 14 -5 25t15 12h33q20 0 33 -19l221 -315q12 -20 0 -35l-221 -322q-12 -18 -33 -18h-33z" />
    <glyph glyph-name="fraction" unicode="&#x2044;" horiz-adv-x="245" 
d="M-258 0h-31q-31 0 -16 29l786 1394q6 10 27 11h31q31 0 16 -29l-786 -1395q-6 -10 -27 -10z" />
    <glyph glyph-name="zerosuperior" unicode="&#x2070;" horiz-adv-x="673" 
d="M336 1079q84 0 131 67q47 68 47 188t-47 190t-130 70t-130 -70t-47 -190t46 -188t130 -67zM336 1659q118 0 186 -86q66 -86 66 -238q0 -151 -66 -237t-185 -86t-185 86t-66 236t66 238q66 87 184 87z" />
    <glyph glyph-name="foursuperior" unicode="&#x2074;" horiz-adv-x="651" 
d="M412 1243v266l-244 -266h244zM432 1032q-20 0 -20 19v123h-342q-18 0 -19 18v18l387 428h29q20 0 20 -18v-379h80q18 0 19 -16v-33q0 -16 -19 -16h-80v-125q0 -18 -20 -19h-35z" />
    <glyph glyph-name="fivesuperior" unicode="&#x2075;" horiz-adv-x="600" 
d="M280 1012q-110 0 -194 78q-14 14 -2 30l18 23q12 14 27 0q68 -68 150 -68t129 44q47 45 47 101t-41 92t-109 36h-160q-31 0 -30 30v242q0 18 18 18h303q18 0 19 -18v-35q0 -16 -19 -16h-254v-154h121q111 0 169 -49t58 -139t-69 -153q-71 -62 -181 -62z" />
    <glyph glyph-name="sixsuperior" unicode="&#x2076;" horiz-adv-x="602" 
d="M308 1075q68 0 110 41q41 42 41 106t-43 103q-42 39 -100 39t-101 -29t-59 -59q-2 -78 42 -140q42 -62 110 -61zM304 1012q-102 0 -162 79t-60 180q0 237 243 361q45 25 73 34t36 -9l10 -23q12 -27 -12 -35q-86 -25 -163 -85t-109 -150q58 47 99 54q40 7 71 7
q84 0 145 -53t61 -144q0 -92 -65 -154t-167 -62z" />
    <glyph glyph-name="sevensuperior" unicode="&#x2077;" horiz-adv-x="550" 
d="M164 1032q-29 0 -29 29l275 508h-330q-18 0 -19 18v33q0 18 19 18h403q18 0 19 -18v-33l-285 -536q-10 -18 -27 -19h-26z" />
    <glyph glyph-name="eightsuperior" unicode="&#x2078;" horiz-adv-x="626" 
d="M313 1075q68 0 110 33t42 82t-37 82t-115 37q-79 -4 -115 -37t-36 -82t42 -82t109 -33zM178 1483q0 -103 135 -113q135 10 136 113q0 51 -38 81q-37 30 -97 30t-98 -30t-38 -81zM313 1012q-102 0 -166 50q-63 50 -63 126q0 47 26 85t47 50q22 12 38 18v5q-39 18 -66 58
t-27 87q0 78 60 123t151 45t151 -45t60 -123q0 -47 -28 -87t-66 -58v-5q22 -7 53 -31q57 -42 59 -120q1 -78 -63 -128t-166 -50z" />
    <glyph glyph-name="ninesuperior" unicode="&#x2079;" horiz-adv-x="604" 
d="M289 1303q57 1 100 29t60 59q2 78 -42 139q-43 61 -111 61t-110 -41t-41 -105q0 -64 43 -104q44 -38 101 -38zM283 1241q-93 0 -154 53q-61 52 -61 144t65 154t167 62t162 -78t60 -180q0 -187 -137 -292q-107 -81 -190 -107q-16 -6 -25 13l-10 22q-12 27 12 35
q86 25 163 85t109 151q-68 -62 -161 -62z" />
    <glyph glyph-name="zeroinferior" unicode="&#x2080;" horiz-adv-x="673" 
d="M514 -6q0 120 -47 190t-130 70t-130 -70t-47 -189q0 -120 46 -188q46 -67 130 -67t131 66t47 188zM336 -328q-118 0 -184 86t-66 237t66 237t184 87q118 0 186 -86q66 -85 66 -237t-67 -238t-185 -86z" />
    <glyph glyph-name="oneinferior" unicode="&#x2081;" horiz-adv-x="362" 
d="M238 299q20 0 20 -16v-574q0 -16 -16 -16h-41q-16 0 -17 16v494l-96 -58q-12 -5 -18 5l-13 20q-6 12 6 23l150 106h25z" />
    <glyph glyph-name="twoinferior" unicode="&#x2082;" horiz-adv-x="587" 
d="M483 -244q14 0 15 -16v-31q0 -16 -15 -16h-395q-18 0 -18 16v19l284 266q72 68 73 126t-38 95t-109 37t-139 -68q-10 -12 -20 -2l-27 25q-10 10 -2 20q8 9 22 25t65 42q50 26 106 25q102 0 159 -53q58 -53 58 -138t-94 -173l-218 -199h293z" />
    <glyph glyph-name="threeinferior" unicode="&#x2083;" horiz-adv-x="610" 
d="M174 -10v24q0 16 16 17h93q65 1 107 29t42 80t-39 83t-111 31t-135 -61q-12 -12 -20 -3l-27 23q-12 13 -3 23t25 23t67 37q52 24 126 24q73 0 133 -46q60 -45 60 -122q0 -46 -32 -88t-75 -60q3 -2 13 -5q66 -21 99 -89q13 -29 13 -62q0 -76 -66 -126t-167 -50
q-145 0 -215 84q-12 10 0 23l22 22q14 14 27 0q65 -65 149 -65t128 33t44 83t-42 84q-43 34 -123 33h-93q-16 1 -16 21z" />
    <glyph glyph-name="fourinferior" unicode="&#x2084;" horiz-adv-x="655" 
d="M414 -96v266l-244 -266h244zM469 299q20 0 20 -18v-379h80q18 0 19 -17v-32q0 -16 -19 -17h-80v-125q0 -18 -20 -18h-35q-20 0 -20 18v123h-342q-18 0 -19 19v18l387 428h29z" />
    <glyph glyph-name="fiveinferior" unicode="&#x2085;" horiz-adv-x="600" 
d="M115 39v242q0 18 18 18h303q18 0 19 -18v-35q0 -16 -19 -17h-254v-153h121q111 0 169 -49t58 -139t-70 -153t-180 -63t-194 78q-14 14 -2 31l18 22q12 14 27 0q68 -67 150 -67t129 44t47 100t-41 92t-109 36h-160q-30 0 -30 31z" />
    <glyph glyph-name="sixinferior" unicode="&#x2086;" horiz-adv-x="602" 
d="M309 -264q67 0 109 41q41 41 41 105t-43 104q-42 40 -100 39t-101 -29t-59 -59q-2 -77 42 -139t111 -62zM82 -68q0 102 39 174q60 111 204 187q45 25 73 34t36 -10l10 -22q12 -27 -12 -35q-86 -25 -163 -85t-109 -150q58 47 99 54q40 7 71 7q84 0 145 -53t61 -145
t-65 -153q-65 -63 -167 -63t-162 79t-60 181z" />
    <glyph glyph-name="seveninferior" unicode="&#x2087;" horiz-adv-x="550" 
d="M80 229q-18 0 -19 19v33q0 18 19 18h403q18 0 19 -18v-33l-285 -537q-10 -18 -27 -18h-26q-29 0 -29 28l275 508h-330z" />
    <glyph glyph-name="eightinferior" unicode="&#x2088;" horiz-adv-x="628" 
d="M164 -149q0 -49 42 -82t110 -33t109 33q42 33 42 82t-37 81t-115 37q-79 -5 -115 -37t-36 -81zM180 143q0 -102 135 -112q135 10 136 112q0 51 -38 81q-37 30 -97 30t-98 -30t-38 -81zM86 -152q0 47 26 85t47 51q22 12 38 18v4q-39 16 -66 57t-27 89q0 78 60 122t151 45
q91 0 151 -45t60 -122q0 -47 -28 -87t-66 -59v-4q23 -8 54 -31q57 -43 58 -121q2 -78 -62 -128t-166 -50t-166 50t-64 126z" />
    <glyph glyph-name="nineinferior" unicode="&#x2089;" horiz-adv-x="600" 
d="M143 106q0 -64 43 -104q42 -39 100 -39t101 29t59 59q2 78 -42 139q-44 62 -111 62t-109 -41t-41 -105zM66 99q0 91 65 154q65 62 167 62q102 -1 162 -79t60 -180q0 -235 -242 -361q-46 -25 -74 -34t-36 9l-10 23q-12 27 12 35q86 25 163 85t109 150q-58 -47 -99 -54
q-40 -7 -71 -7q-84 0 -145 53t-61 144z" />
    <glyph glyph-name="Euro" unicode="&#x20ac;" 
d="M936 772h-674v-57q0 -63 6 -121h588q25 0 25 -31v-8q0 -25 -25 -25h-580q35 -210 154 -334t328 -124q164 0 329 131q20 16 33 4l31 -37q18 -18 0 -35q-177 -155 -405 -155t-380 147t-192 403h-100q-25 0 -25 27v10q0 27 25 27h92q-6 57 -6 121v57h-86q-25 0 -25 29v10
q0 27 25 27h92q28 256 174 430q72 86 180 136t235 50q128 0 215 -33t179 -112q20 -18 4 -39l-29 -33q-18 -18 -41 0q-131 125 -331 125t-328 -142q-129 -142 -156 -382h668q27 0 27 -31v-8q0 -27 -27 -27z" />
    <glyph glyph-name="afii61289" unicode="&#x2113;" horiz-adv-x="964" 
d="M698 1372q-112 0 -188 -158t-141 -477l-33 -162q215 90 356 248t142 369q0 84 -36 132t-100 48zM217 297q0 55 16 166q-57 -18 -114 -29q-27 -2 -35 17l-6 24q-12 35 24 39q102 16 150 33l39 203q72 352 167 528t240 176q100 0 158 -71t57 -191q0 -172 -88 -315
t-215 -233t-291 -150q-23 -102 -22 -193q0 -240 190 -240q148 0 254 53q57 25 72 38l8 4q23 14 35 -4l14 -27q10 -17 -6 -33t-51 -36t-129 -48q-94 -29 -197 -28q-270 0 -270 317z" />
    <glyph glyph-name="uni2117" unicode="&#x2117;" horiz-adv-x="1738" 
d="M729 705h197q201 0 200 161q0 158 -200 158h-197v-319zM647 369v702q0 27 25 27h278q109 0 185 -60q75 -60 75 -172q0 -113 -76 -174t-182 -61h-223v-256q0 -33 -24 -33h-33q-25 0 -25 27zM211 717q1 -272 193 -465t464 -193t465 193t193 465q0 271 -193 463t-465 192
t-465 -191q-192 -192 -192 -464zM131 717q0 305 216 521t521 216q304 0 522 -217t218 -521t-217 -520t-523 -216t-521 216q-216 216 -216 521z" />
    <glyph glyph-name="trademark" unicode="&#x2122;" horiz-adv-x="1548" 
d="M365 807q-25 0 -25 27v532h-178q-27 0 -27 31v10q0 27 27 27h426q27 0 26 -27v-14q0 -27 -26 -27h-176v-532q0 -27 -27 -27h-20zM668 807q-29 0 -21 31l139 596q6 20 23 20h10q12 0 21 -20l176 -502h2l178 502q8 20 21 20h10q16 0 22 -20l140 -596q8 -31 -21 -31h-22
q-18 0 -25 20l-109 445h-2l-163 -459q-6 -16 -19 -16h-20q-12 0 -19 16l-166 459h-2l-106 -445q-6 -20 -25 -20h-22z" />
    <glyph glyph-name="Omega" unicode="&#x2126;" horiz-adv-x="1716" 
d="M180 27v30q0 27 27 27h282q-166 96 -267 263t-101 368q0 307 215 523t522 216t522 -216t215 -523q0 -201 -101 -368t-267 -263h282q27 0 27 -27v-30q0 -27 -27 -27h-485q-25 0 -25 27v30q0 20 25 27q211 53 346 228t135 403q0 269 -189 459q-190 190 -458 190t-458 -190
t-189 -459q0 -227 135 -403t346 -228q25 -6 25 -27v-30q0 -27 -25 -27h-485q-27 0 -27 27z" />
    <glyph glyph-name="estimated" unicode="&#x212e;" horiz-adv-x="1714" 
d="M340 750h1077v364q-90 125 -231 194q-141 68 -309 68q-167 0 -307 -68t-230 -190v-368zM877 57q244 0 450 181q20 20 41 0l16 -19q14 -16 -6 -37q-214 -202 -514 -202t-516 211q-215 211 -215 523t216 526q215 214 527 214t528 -212t218 -523q0 -43 -35 -43h-1247v-365
q80 -119 227 -187t310 -67z" />
    <glyph glyph-name="onethird" unicode="&#x2153;" horiz-adv-x="1335" 
d="M1161 159q0 50 -43 84t-123 33h-92q-16 0 -16 21v25q0 16 16 16h92q66 0 108 29t42 81t-39 82q-40 30 -112 31q-72 0 -134 -61q-12 -12 -20 -2l-27 22q-12 12 -3 22q8 10 24 24q16 13 68 37t126 24t133 -45t60 -123q0 -47 -32 -88t-75 -60q4 -2 13 -5q67 -22 99 -89
q13 -29 13 -61q1 -76 -65 -126t-168 -50q-145 -1 -215 83q-12 10 0 23l22 23q14 14 34 -8t43 -31q142 -59 228 6q44 33 43 83zM242 827q-16 0 -17 17v493l-96 -57q-12 -6 -18 4l-13 21q-6 12 6 22l150 107h25q20 0 20 -17v-573q0 -16 -16 -17h-41zM999 1434q31 0 17 -29
l-787 -1395q-6 -10 -26 -10h-31q-30 0 -16 29l786 1394q6 10 27 11h30z" />
    <glyph glyph-name="twothirds" unicode="&#x2154;" horiz-adv-x="1470" 
d="M1294 159q0 50 -43 84t-123 33h-92q-16 0 -16 21v25q0 16 16 16h92q66 0 108 29t42 81t-39 82t-111 31q-72 0 -135 -61q-10 -12 -20 -2l-27 22q-12 12 -3 22t25 24q16 13 67 37q52 24 126 24t133 -45t60 -123q0 -47 -32 -88t-75 -60q3 -2 13 -5q66 -21 99 -89
q13 -29 13 -61q0 -76 -66 -126t-167 -50q-145 -1 -215 83q-10 10 0 23l22 23q13 15 35 -9q57 -57 141 -57t128 33t44 83zM1133 1434q31 0 16 -29l-787 -1395q-6 -10 -26 -10h-31q-30 0 -16 29l786 1394q6 10 27 11h31zM125 827q-18 0 -19 17v18l285 266q72 68 73 126t-38 96
q-39 36 -110 36t-138 -67q-10 -12 -20 -2l-27 24q-10 11 -2 21q9 10 23 26t64 40q50 26 106 26q102 0 159 -53t57 -138t-94 -173l-217 -199h293q14 0 15 -17v-30q0 -16 -15 -17h-395z" />
    <glyph glyph-name="oneeighth" unicode="&#x215b;" horiz-adv-x="1335" 
d="M858 158q0 -49 42 -82t110 -33t110 33t41 82q0 49 -37 82t-114 36q-78 -4 -115 -36t-37 -82zM874 451q0 -102 136 -113q135 10 135 113q0 51 -38 81t-97 29q-60 1 -98 -29t-38 -81zM780 156q0 47 26 85t47 50q22 12 38 18v4q-39 19 -66 59t-26 87q0 78 59 123
q60 45 152 45t151 -45t60 -123q0 -47 -28 -87t-67 -59v-4q23 -8 54 -31q59 -45 59 -122q0 -76 -63 -126q-64 -50 -166 -50t-166 50t-64 126zM242 827q-16 0 -17 17v493l-96 -57q-12 -6 -18 4l-13 21q-6 12 6 22l150 107h25q20 0 20 -17v-573q0 -16 -16 -17h-41zM999 1434
q31 0 17 -29l-787 -1395q-6 -10 -26 -10h-31q-30 0 -16 29l786 1394q6 10 27 11h30z" />
    <glyph glyph-name="threeeighths" unicode="&#x215c;" horiz-adv-x="1472" 
d="M993 158q0 -49 42 -82t110 -33q67 0 109 33t42 82t-36 82q-37 33 -115 36q-78 -4 -115 -36t-37 -82zM1010 451q0 -102 135 -113q135 10 135 113q0 51 -38 81t-97 29q-59 1 -97 -29t-38 -81zM915 156q0 47 26 85t47 50q22 12 38 18v4q-40 19 -66 59t-26 87q0 78 59 123
t151 45t152 -45q59 -45 60 -123q0 -47 -28 -87t-66 -59v-4q22 -7 53 -31q59 -45 59 -122q0 -76 -63 -126t-165 -50t-167 50q-64 50 -64 126zM1147 1434q31 0 16 -29l-786 -1395q-6 -10 -27 -10h-31q-30 0 -16 29l787 1394q6 10 26 11h31zM322 807q-145 0 -216 84
q-12 10 0 22l23 23q14 14 27 0q66 -66 173 -66q60 0 104 33t44 83t-43 84t-123 34h-92q-16 0 -16 20v25q0 16 16 16h92q66 0 108 29t42 81t-39 83q-40 31 -112 31t-134 -62q-12 -12 -20 -2l-27 23q-12 12 -3 22q8 10 24 24t68 37t126 23t133 -45t60 -123q0 -47 -32 -88
t-75 -59q4 -2 13 -5q9 -2 31 -16q81 -50 81 -131q1 -80 -65 -130t-168 -50z" />
    <glyph glyph-name="fiveeighths" unicode="&#x215d;" horiz-adv-x="1466" 
d="M987 158q0 -49 42 -82t110 -33q67 0 109 33t42 82t-37 82t-114 36q-78 -4 -115 -36t-37 -82zM1004 451q0 -102 135 -113q135 10 135 113q0 51 -38 81t-97 29q-59 1 -97 -29t-38 -81zM909 156q0 47 26 85t47 50q22 12 38 18v4q-39 19 -66 59t-26 87q0 78 59 123t151 45
t152 -45q59 -45 60 -123q0 -47 -28 -87t-67 -59v-4q23 -8 54 -31q59 -45 59 -122q0 -76 -63 -126t-165 -50t-167 50q-64 50 -64 126zM555 1022q0 -90 -70 -152q-71 -62 -181 -63q-110 0 -193 78q-14 14 -2 30l18 23q12 14 27 0q68 -68 150 -68t128 44q47 44 47 100t-41 93
q-41 36 -108 36h-160q-31 0 -31 31v241q0 18 19 19h303q18 0 18 -19v-35q0 -16 -18 -16h-254v-154h121q111 0 169 -49t58 -139zM1141 1434q31 0 16 -29l-786 -1395q-6 -10 -27 -10h-31q-30 0 -16 29l786 1394q6 10 27 11h31z" />
    <glyph glyph-name="seveneighths" unicode="&#x215e;" horiz-adv-x="1361" 
d="M883 158q0 -49 42 -82q41 -33 109 -33t110 33t42 82t-37 82t-115 36q-78 -4 -114 -36t-37 -82zM899 451q0 -102 135 -113q135 10 135 113q1 51 -37 81t-98 29q-60 1 -97 -29q-38 -30 -38 -81zM805 156q0 47 25 85q26 38 48 50t37 18v4q-39 19 -65 59t-27 87q-1 78 59 123
t152 45t152 -45t59 -123q1 -47 -27 -87t-67 -59v-4q25 -8 54 -32q57 -45 58 -121t-63 -126t-166 -50t-166 50q-63 50 -63 126zM195 827q-29 0 -29 29l274 508h-329q-18 0 -19 18v33q0 18 19 19h403q18 0 18 -19v-33l-284 -536q-10 -18 -27 -19h-26zM1036 1434q31 0 17 -29
l-787 -1395q-6 -10 -26 -10h-31q-30 0 -16 29l786 1394q6 10 27 11h30z" />
    <glyph glyph-name="partialdiff" unicode="&#x2202;" horiz-adv-x="1187" 
d="M186 461q0 -164 111 -281t266 -117q193 1 298 147t106 355q0 23 -4 64q-19 27 -66 71q-149 140 -349 140q-142 0 -252 -108t-110 -271zM94 467q0 203 135 331t322 128q139 0 245 -58t150 -112q-18 109 -77 210q-97 169 -279 299q-135 95 -246 134q-33 12 -22 39l14 32
q6 20 33 15q163 -63 293 -164t207 -196t132 -239t56 -306q0 -264 -128 -432t-366 -168q-190 0 -330 142q-139 142 -139 345z" />
    <glyph glyph-name="Delta" unicode="&#x2206;" horiz-adv-x="1441" 
d="M195 86h1046l-516 1204h-4zM117 0q-66 0 -29 76l606 1364q6 14 25 14h6q20 0 27 -14l604 -1368q33 -72 -37 -72h-1202z" />
    <glyph glyph-name="product" unicode="&#x220f;" horiz-adv-x="1554" 
d="M221 27v1380q0 27 27 27h1059q27 0 26 -27v-1380q0 -27 -26 -27h-43q-27 0 -27 27v1321h-920v-1321q0 -27 -26 -27h-43q-27 0 -27 27z" />
    <glyph glyph-name="summation" unicode="&#x2211;" horiz-adv-x="1095" 
d="M94 27v18l672 688l-672 653v21q0 27 27 27h821q27 0 27 -27v-35q0 -27 -27 -26h-676l576 -558q27 -27 26 -40v-23q0 -14 -26 -41l-576 -598h676q27 0 27 -27v-32q0 -27 -27 -27h-821q-27 0 -27 27z" />
    <glyph glyph-name="minus" unicode="&#x2212;" 
d="M221 670q-27 0 -26 26v31q0 27 26 27h789q25 0 24 -27v-31q0 -27 -24 -26h-789z" />
    <glyph glyph-name="uni2215" unicode="&#x2215;" horiz-adv-x="245" 
d="M-258 0h-31q-31 0 -16 29l786 1394q6 10 27 11h31q31 0 16 -29l-786 -1395q-6 -10 -27 -10z" />
    <glyph glyph-name="uni2219" unicode="&#x2219;" horiz-adv-x="460" 
d="M231 453q-35 1 -59 25t-25 58q0 34 25 58q26 24 60 22q34 0 58 -24t24 -58t-24 -58q-24 -23 -59 -23z" />
    <glyph glyph-name="radical" unicode="&#x221a;" horiz-adv-x="1337" 
d="M139 819q18 0 23 -14l278 -658h4l557 1268q8 18 29 19h262q25 0 25 -27v-31q0 -27 -25 -26h-219l-604 -1352q-8 -18 -25 -18h-10q-16 0 -22 18l-344 795q-14 27 16 26h55z" />
    <glyph glyph-name="infinity" unicode="&#x221e;" horiz-adv-x="1353" 
d="M431 401q85 -1 145 59t61 145q0 85 -60 145q-59 60 -145 61q-86 0 -146 -60q-60 -59 -60 -145t60 -146t145 -59zM717 606q0 -86 59 -145q60 -59 146 -59t145 58q59 60 59 145t-59 145t-145 61q-86 0 -146 -59q-59 -60 -59 -146zM432 324q-119 0 -201 83q-81 83 -81 201
t81 200q82 83 201 83q76 0 140 -41t104 -109q39 68 104 109q66 41 144 41q118 0 200 -83t82 -201q0 -119 -84 -201t-198 -82q-78 0 -144 41t-104 106q-40 -67 -104 -107t-140 -40z" />
    <glyph glyph-name="integral" unicode="&#x222b;" horiz-adv-x="1019" 
d="M465 -156v1256q0 174 85 264t224 90q74 0 140 -28t84 -53q20 -25 10 -40l-21 -28q-14 -23 -35 -2q-74 69 -176 69t-162 -67q-59 -68 -59 -205v-1256q0 -174 -85 -264t-224 -90q-74 0 -140 28t-85 53t-9 40l21 29q14 23 35 2q74 -70 176 -70t162 68t59 204z" />
    <glyph glyph-name="approxequal" unicode="&#x2248;" 
d="M504 567q78 0 164 -78q25 -25 36 -32q11 -5 29 -19t47 -14q80 0 135 117q14 31 46 8l26 -17q31 -21 -18 -88q-83 -114 -189 -114q-68 0 -150 72t-130 71q-47 0 -85 -36q-39 -37 -57 -77t-49 -22l-20 12q-27 18 -10 49q4 5 10 17q48 92 135 133q39 18 80 18zM471 911
q78 0 164 -77l16 -16q15 -13 23 -18q8 -4 26 -18q18 -13 48 -14q80 0 135 117q14 31 45 8l26 -16q30 -20 -17 -87q-81 -116 -189 -116q-68 0 -151 72t-130 71q-47 0 -85 -36q-38 -37 -56 -77t-50 -22l-20 12q-27 18 -10 49q4 5 10 17q48 91 135 133q39 18 80 18z" />
    <glyph glyph-name="notequal" unicode="&#x2260;" 
d="M291 324q-27 0 -27 28v31q0 27 27 27h221l180 340h-401q-27 0 -27 30v29q0 27 27 27h442l76 147q10 25 49 6q20 -10 8 -33l-61 -120h131q27 0 27 -27v-33q0 -27 -27 -26h-174l-178 -340h352q27 0 27 -33v-27q0 -27 -27 -26h-397l-90 -174q-13 -25 -41 -10t-17 36l78 148
h-178z" />
    <glyph glyph-name="lessequal" unicode="&#x2264;" 
d="M209 152q-27 0 -27 26v31q0 27 27 27h788q25 0 25 -27v-31q0 -27 -25 -26h-788zM180 819q0 18 21 31l792 407q29 14 29 -20v-43q0 -20 -16 -31l-703 -346l703 -340q16 -10 16 -31v-43q0 -35 -29 -20l-792 399q-20 12 -21 35v2z" />
    <glyph glyph-name="greaterequal" unicode="&#x2265;" 
d="M231 152q-25 0 -24 26v31q0 27 24 27h789q27 0 27 -27v-31q0 -27 -27 -26h-789zM207 403v43q0 20 16 31l703 340l-703 346q-16 10 -16 31v43q0 35 29 20l792 -407q20 -12 21 -31v-2q0 -23 -21 -35l-792 -399q-29 -14 -29 20z" />
    <glyph glyph-name="lozenge" unicode="&#x25ca;" horiz-adv-x="1241" 
d="M621 90h4l434 641l-434 610h-4l-439 -610zM618 1454h7q18 0 26 -14l434 -594q3 -6 13 -20t24 -36t13 -56q1 -34 -9 -52t-41 -66l-434 -624q-8 -14 -26 -15h-7q-16 0 -24 15l-438 629q-33 45 -41 63t-9 47q0 29 9 45q8 16 41 66l438 598q8 14 24 14z" />
    <glyph glyph-name="commaaccent" unicode="&#xf6c3;" horiz-adv-x="598" 
d="M263 -301q-33 -1 -53 19t-20 52t25 54t71 20q46 0 76 -42q31 -42 31 -115q0 -129 -84 -205q-12 -12 -24 -2l-25 20q-14 12 2 29q57 49 57 133q0 35 -10 51q-14 -14 -46 -14z" />
    <glyph glyph-name="uniF8FF" unicode="&#xf8ff;" horiz-adv-x="1226" 
d="M502 319q0 -41 30 -69t69 -29q40 0 70 29q29 30 29 70t-29 69q-30 29 -70 29q-39 0 -69 -29t-30 -70zM537 643q0 -25 28 -25h74q31 0 31 27v53q0 57 107 124q40 26 74 75t34 109q0 98 -73 162t-193 65q-120 0 -213 -80q-22 -18 -41 -44t-3 -38l46 -45q24 -18 70 33
q45 51 120 51q74 0 108 -31t34 -75t-32 -80q-32 -37 -70 -62q-38 -24 -70 -66t-31 -94v-59zM102 61v1311q0 61 62 62h899q61 0 61 -62v-1311q0 -61 -61 -61h-899q-62 0 -62 61z" />
    <glyph glyph-name="g.alt" horiz-adv-x="1105" 
d="M592 -424q168 0 278 62t111 176q0 166 -252 166h-297q-42 -4 -96 -27q-109 -45 -109 -150q1 -107 99 -167t266 -60zM575 879q-135 0 -219 -73t-84 -193q0 -121 82 -199t221 -78q138 0 220 74t82 206t-84 197q-84 66 -218 66zM98 182q0 156 148 224q-63 74 -64 200
q0 170 111 265t301 96h389q31 0 31 -29v-18q0 -23 -21 -31l-170 -10q51 -25 97 -93t47 -178q1 -160 -105 -259t-284 -99q-94 0 -170 29t-111 61q-109 -37 -109 -152q0 -52 33 -80t70 -34t96 -6h342q164 0 253 -58t89 -201t-132 -231t-349 -88t-335 83t-118 210q0 92 45 142
t103 67q-75 10 -131 53t-56 137z" />
    <glyph glyph-name="grave.cap" horiz-adv-x="618" 
d="M487 1602l-352 161q-18 10 -8 31l20 41q10 18 35 6l336 -184q18 -10 12 -29l-10 -20q-8 -16 -33 -6z" />
    <glyph glyph-name="acute.cap" horiz-adv-x="618" 
d="M168 1602q-25 -10 -33 6l-10 20q-6 18 12 29l336 184q25 12 35 -6l20 -41q10 -20 -8 -31z" />
    <glyph glyph-name="circumflex.cap" horiz-adv-x="763" 
d="M375 1839h6q10 0 20 -10l248 -201q18 -14 8 -29l-18 -22q-12 -16 -31 -4l-231 172l-230 -172q-18 -12 -30 4l-19 22q-10 14 8 29l248 201q10 10 21 10z" />
    <glyph glyph-name="caron.cap" horiz-adv-x="763" 
d="M377 1563q-10 0 -21 10l-247 201q-18 14 -9 28l19 23q12 16 31 4l231 -172l229 172q18 12 31 -4l18 -23q10 -14 -8 -28l-248 -201q-10 -10 -20 -10h-6z" />
    <glyph glyph-name="caron.alt" horiz-adv-x="763" 
d="M349 1311q-33 0 -53 19t-20 51t25 54q25 21 71 21t76 -42q32 -42 31 -116q0 -129 -84 -204q-12 -12 -24 -2l-25 20q-14 14 2 29q57 49 58 133q0 37 -11 51q-14 -14 -46 -14z" />
    <glyph glyph-name="tilde.cap" horiz-adv-x="778" 
d="M274 1851q44 -1 78 -29q35 -28 50 -64q39 -93 98 -93q76 0 116 121q8 27 31 14l23 -8q29 -14 -22 -107q-52 -96 -154 -96q-49 0 -83 30q-35 31 -51 65t-42 64t-56 30q-76 0 -117 -127q-5 -25 -30 -15l-25 11q-20 6 -12 28q49 125 117 160q35 16 79 16z" />
    <glyph glyph-name="dieresis.cap" horiz-adv-x="970" 
d="M271 1628q-35 0 -59 24t-24 58t24 58t58 24t60 -25q24 -25 24 -59t-24 -56q-24 -24 -59 -24zM699 1628q-35 0 -59 24t-24 58t24 58t58 24t60 -25q24 -25 24 -59t-24 -56q-24 -24 -59 -24z" />
    <glyph glyph-name="macron.cap" horiz-adv-x="847" 
d="M145 1702q-27 0 -26 27v24q0 27 26 27h557q27 0 27 -27v-24q0 -27 -27 -27h-557z" />
    <glyph glyph-name="breve.cap" horiz-adv-x="708" 
d="M353 1587q-103 0 -178 66t-89 162q-4 29 20 28h27q16 0 25 -24q18 -70 70 -115t124 -45t126 46t71 114q6 25 24 24h29q25 0 21 -28q-15 -98 -91 -163t-179 -65z" />
    <glyph glyph-name="ring.cap" horiz-adv-x="593" 
d="M297 1610q61 0 106 45t46 106t-45 107t-107 45q-61 0 -107 -45q-46 -44 -45 -106q-1 -62 45 -107t107 -45zM297 1544q-93 0 -155 62t-62 155q0 91 62 155t154 64t156 -63t64 -155t-64 -156q-64 -62 -155 -62z" />
    <glyph glyph-name="hungarumlaut.cap" horiz-adv-x="802" 
d="M111 1569q-25 0 -15 24l162 326q10 23 29 23h45q16 0 22 -10t-2 -25l-190 -322q-8 -16 -27 -16h-24zM451 1569q-25 0 -15 24l162 326q10 23 29 23h45q16 0 22 -10t-2 -25l-190 -322q-8 -16 -27 -16h-24z" />
    <glyph glyph-name="dotaccent.cap" horiz-adv-x="448" 
d="M220 1657q-34 1 -58 23t-23 55q0 33 24 57q23 24 57 23q34 0 58 -23q24 -22 24 -56t-24 -57q-24 -22 -58 -22z" />
    <glyph glyph-name="cedilla.cap" horiz-adv-x="505" 
d="M272 -137q74 0 130 -41t56 -124t-60 -132q-62 -49 -156 -49t-162 63q-12 12 -2 27l20 39q10 14 27 2q47 -51 117 -51q129 0 129 96q0 45 -34 69t-89 23q-55 0 -101 -18q-10 -4 -20 5t-6 19l117 213l84 -4l-89 -141q12 4 39 4z" />
    <glyph glyph-name="ogonek.cap" horiz-adv-x="565" 
d="M282 -416q64 0 126 54q6 6 14 4t10 -13l4 -39q4 -25 -20 -36q-80 -50 -166 -50t-137 56t-51 130t23 126q46 101 224 211l82 -21q-240 -133 -239 -301q0 -55 32 -88q34 -33 98 -33z" />
    <glyph glyph-name="commaaccent.alt" horiz-adv-x="598" 
d="M320 1298q32 0 52 -19t21 -51q-1 -32 -25 -54t-70 -21q-46 0 -77 42t-31 116q0 129 84 205q12 12 25 2l25 -21q12 -14 -2 -29q-57 -49 -58 -133q0 -37 10 -51q14 14 46 14z" />
    <glyph glyph-name="commaaccent.cap" horiz-adv-x="598" 
d="M263 -301q-33 -1 -53 19t-20 52t25 54t71 20q46 0 76 -42q31 -42 31 -115q0 -129 -84 -205q-12 -12 -24 -2l-25 20q-14 12 2 29q57 49 57 133q0 35 -10 51q-14 -14 -46 -14z" />
    <glyph glyph-name="brokenbar.case" horiz-adv-x="423" 
d="M180 387q0 27 27 27h12q25 0 25 -27v-704q0 -25 -27 -25h-10q-27 0 -27 25v704zM207 940q-27 0 -27 27v706q0 27 27 27h12q25 0 25 -27v-706q0 -27 -27 -27h-10z" />
    <glyph glyph-name="zero.tf" 
d="M613 68q393 0 393 649t-392 649t-393 -649q0 -649 392 -649zM614 -20q-242 0 -364 192t-121 547q0 355 121 545q120 190 364 190t365 -190t121 -544t-122 -548q-122 -192 -364 -192z" />
    <glyph glyph-name="one.tf" 
d="M623 1290h-2l-347 -235q-18 -14 -30 2l-25 28q-16 16 2 33l420 303q18 12 37 13h10q33 0 33 -25v-1331h360q27 0 27 -27v-24q0 -27 -27 -27h-854q-25 0 -24 27v24q0 27 24 27h396v1212z" />
    <glyph glyph-name="two.tf" 
d="M305 86h696q27 0 27 -27v-32q0 -27 -27 -27h-815q-29 0 -28 25v18q0 20 14 35l535 547q233 240 233 413q0 132 -92 228t-262 96q-84 0 -149 -31t-98 -61q-33 -31 -60 -62l-15 -16q-18 -20 -43 -6l-24 20q-18 18 -8 32t20 30q10 14 47 50q79 76 167 107q89 30 163 29
q213 0 333 -120t119 -294q0 -127 -66 -232t-198 -243l-469 -477v-2z" />
    <glyph glyph-name="three.tf" 
d="M578 688h-199q-29 0 -29 27v39q0 25 31 24h197q137 0 241 72q105 72 105 210t-94 221t-230 83q-178 0 -340 -156q-23 -16 -35 -4l-28 27q-19 18 5 45q69 80 185 129q115 49 213 49q184 0 304 -104t120 -273q0 -123 -72 -213t-170 -125v-6q111 -33 195 -130t84 -218
q0 -176 -132 -291t-349 -114q-250 0 -422 186q-14 23 0 37l26 26q16 14 37 -6q103 -103 182 -131t183 -29q164 -1 270 87t106 231t-115 225q-116 82 -269 82z" />
    <glyph glyph-name="four.tf" 
d="M193 414h638v862h-2l-636 -856v-6zM113 330q-35 0 -35 30v17q0 18 12 37l756 1024q10 16 33 16h18q23 0 23 -24v-1016h161q29 0 29 -27v-31q0 -27 -29 -26h-161v-303q0 -27 -25 -27h-39q-25 0 -25 27v303h-718z" />
    <glyph glyph-name="five.tf" 
d="M600 815h-350q-18 0 -30 13q-11 13 -11 30v549q0 27 29 27h661q27 0 27 -27v-33q0 -29 -27 -28h-602v-443h303q240 1 367 -113t127 -321t-142 -348t-354 -141q-263 0 -410 176q-20 29 -2 47l29 26q20 20 37 -4q129 -160 348 -159q172 0 284 118t111 281q0 162 -101 256
t-294 94z" />
    <glyph glyph-name="six.tf" 
d="M248 565q0 -209 102 -355t293 -147q155 0 263 117t108 281q0 163 -106 271t-261 108q-238 0 -395 -211q-4 -41 -4 -64zM156 580q0 162 55 305t131 235t179 170t175 115t144 65q25 8 32 -14l15 -33q10 -27 -25 -39q-126 -43 -313 -183q-100 -75 -178 -193t-103 -252
q40 53 144 111t245 59q185 0 317 -128t132 -331t-135 -345t-328 -142q-235 0 -361 168t-126 432z" />
    <glyph glyph-name="seven.tf" 
d="M965 1346h-777q-29 0 -28 30v31q0 27 28 27h873q31 0 31 -25q0 -10 -11 -35l-610 -1341q-10 -21 -16 -27t-25 -6h-49q-14 0 -19 12q-4 12 3 21l600 1308v5z" />
    <glyph glyph-name="eight.tf" 
d="M240 357q0 -137 105 -217t270 -81q165 0 271 79q105 78 105 214t-102 226t-273 104q-174 -14 -275 -101t-101 -224zM954 1075q0 125 -91 212t-251 87t-248 -87t-88 -212t91 -203t249 -88q156 10 247 88t91 203zM143 375q1 133 93 230t223 128v4q-117 35 -198 125t-81 211
q0 164 115 273q115 108 319 108t320 -108q117 -108 117 -273q0 -121 -81 -211t-198 -125v-4q133 -31 224 -127t91 -231q0 -183 -130 -289t-343 -106t-342 106t-129 289z" />
    <glyph glyph-name="nine.tf" 
d="M580 594q236 0 393 211q4 41 4 63q0 208 -100 354t-291 146q-156 0 -264 -117t-109 -279q0 -162 106 -271q107 -107 261 -107zM573 506q-188 0 -320 128t-132 332t136 346t329 142q236 0 360 -169t125 -433q0 -162 -54 -305t-130 -235t-204 -190q-128 -97 -296 -161
q-23 -8 -33 16l-12 31q-10 31 25 41q130 44 312 182q99 76 177 194t100 253q-39 -56 -141 -114t-242 -58z" />
    <glyph glyph-name="zero.denom" horiz-adv-x="735" 
d="M190 302q0 -120 46 -188t131 -67q84 0 131 67q47 68 47 188t-47 190t-130 70q-82 0 -130 -70t-48 -190zM367 627q119 0 185 -86t66 -238q0 -151 -66 -237t-184 -86t-184 86t-67 236q0 151 65 238q66 87 185 87z" />
    <glyph glyph-name="one.denom" horiz-adv-x="442" 
d="M219 16v494l-96 -57q-12 -6 -19 4l-12 20q-6 12 6 23l150 106h24q20 0 21 -16v-574q0 -16 -17 -16h-40q-17 0 -17 16z" />
    <glyph glyph-name="two.denom" horiz-adv-x="667" 
d="M113 16v19l284 266q72 68 73 126t-38 95q-40 37 -110 37t-138 -67q-10 -12 -20 -3l-27 25q-10 10 -2 20q9 10 23 26q14 15 64 41t106 26q102 1 159 -53t57 -139t-93 -173l-218 -199h293q14 0 15 -16v-31q0 -16 -15 -16h-395q-18 0 -18 16z" />
    <glyph glyph-name="three.denom" horiz-adv-x="690" 
d="M233 276q-16 0 -16 21v25q0 16 16 16h93q66 0 108 29t41 81q0 52 -39 82q-40 30 -112 31q-72 0 -134 -61q-10 -12 -20 -2l-27 22q-12 12 -3 22q8 10 24 24q16 13 68 37t126 24t134 -45t59 -123q0 -47 -32 -88t-75 -60q4 -2 14 -5q66 -21 98 -89q13 -29 13 -61
q1 -76 -65 -126t-168 -50q-145 -1 -215 83q-10 10 0 23l22 23q13 15 35 -9q58 -57 142 -57t128 33t44 83t-43 84t-123 33h-93z" />
    <glyph glyph-name="four.denom" horiz-adv-x="704" 
d="M432 211v266l-244 -266h244zM90 141q-18 0 -18 19v18l387 428h28q20 0 21 -18v-379h80q18 0 18 -16v-33q0 -16 -18 -17h-80v-125q0 -18 -21 -18h-34q-20 0 -21 18v123h-342z" />
    <glyph glyph-name="five.denom" horiz-adv-x="686" 
d="M322 43q82 0 129 44t47 100q0 57 -41 93t-109 35h-160q-31 0 -30 31v242q0 18 18 18h303q18 0 19 -18v-35q0 -16 -19 -16h-254v-154h121q111 0 169 -49t58 -139t-69 -153q-70 -62 -180 -62t-195 77q-14 14 -2 31l18 23q12 14 27 0q68 -68 150 -68z" />
    <glyph glyph-name="six.denom" horiz-adv-x="706" 
d="M356 43q67 0 109 41q41 42 41 106t-43 103t-101 39t-100 -28q-43 -28 -59 -60q-2 -78 42 -140t111 -61zM350 -20q-102 0 -161 78q-60 78 -60 180q0 189 137 292q106 81 191 107q16 6 24 -12l11 -23q12 -27 -13 -35q-86 -25 -163 -85t-109 -150q58 47 99 54q40 7 71 7
q84 0 145 -53q62 -53 62 -144q0 -92 -66 -154t-168 -62z" />
    <glyph glyph-name="seven.denom" horiz-adv-x="649" 
d="M133 537q-18 0 -18 18v33q0 18 18 18h404q18 0 18 -18v-33l-285 -537q-10 -18 -26 -18h-27q-29 0 -29 29l275 508h-330z" />
    <glyph glyph-name="eight.denom" horiz-adv-x="700" 
d="M199 158q0 -49 42 -82q41 -33 109 -33t110 33t42 82t-37 82t-115 36q-78 -4 -114 -36t-37 -82zM485 451q0 51 -38 81t-97 29q-59 0 -97 -30t-38 -80q0 -103 135 -113q135 10 135 113zM121 156q0 47 25 85q26 38 48 50t37 18v4q-39 19 -65 59t-27 87q-1 78 59 123t152 45
t152 -45t59 -123q1 -47 -27 -87t-67 -59v-4q25 -8 54 -32q57 -45 58 -121t-63 -126t-166 -50t-166 50q-63 50 -63 126z" />
    <glyph glyph-name="nine.denom" horiz-adv-x="669" 
d="M326 270q57 0 100 29t59 59q2 78 -42 140t-111 61q-66 0 -108 -41t-42 -105t43 -104q44 -39 101 -39zM311 209q-84 0 -145 53q-62 52 -62 144t66 154t168 62t161 -78q60 -78 60 -180q0 -189 -137 -292q-106 -81 -191 -107q-16 -6 -24 12l-10 23q-12 27 12 35
q86 25 163 85t109 150q-58 -47 -99 -54q-40 -7 -71 -7z" />
    <glyph glyph-name="zero.num" horiz-adv-x="673" 
d="M336 874q84 0 131 67t47 187t-47 191q-47 70 -130 70t-130 -70t-47 -190q0 -119 46 -187t130 -68zM336 1454q118 0 186 -86q66 -86 66 -238t-66 -238t-185 -85q-119 0 -185 86q-66 87 -66 237t66 237t184 87z" />
    <glyph glyph-name="one.num" horiz-adv-x="362" 
d="M201 827q-16 0 -17 17v493l-96 -57q-12 -6 -18 4l-13 21q-6 12 6 22l150 107h25q20 0 20 -17v-573q0 -16 -16 -17h-41z" />
    <glyph glyph-name="two.num" horiz-adv-x="589" 
d="M90 827q-18 0 -18 17v18l284 266q72 68 73 126t-38 96q-39 36 -109 36t-139 -67q-10 -12 -20 -2l-27 24q-10 11 -2 21t22 26t65 40q50 26 106 26q102 0 159 -53q58 -53 58 -138t-94 -173l-217 -199h292q14 0 15 -17v-30q0 -16 -15 -17h-395z" />
    <glyph glyph-name="three.num" horiz-adv-x="610" 
d="M293 807q-145 0 -215 84q-12 10 0 22l22 23q14 14 27 0q66 -66 174 -66q59 0 103 33t44 83t-42 84q-43 34 -123 34h-93q-16 0 -16 20v25q0 16 16 16h93q65 0 107 29t42 81t-39 83t-111 31t-135 -62q-12 -12 -20 -2l-27 23q-12 12 -3 22t25 24t67 37q52 23 126 23
q73 0 133 -45t60 -123q0 -47 -32 -88t-75 -59q3 -2 13 -5q10 -2 32 -16q80 -51 80 -131t-66 -130t-167 -50z" />
    <glyph glyph-name="four.num" horiz-adv-x="651" 
d="M412 1038v267l-244 -267h244zM432 827q-20 0 -20 19v123h-342q-18 0 -19 18v19l387 428h29q20 0 20 -19v-379h80q18 0 19 -16v-33q0 -16 -19 -16h-80v-125q0 -18 -20 -19h-35z" />
    <glyph glyph-name="five.num" horiz-adv-x="600" 
d="M280 807q-110 0 -194 78q-14 14 -2 30l18 23q12 14 27 0q68 -68 150 -68t129 44t47 100t-41 93q-41 36 -109 36h-160q-31 0 -30 31v241q0 18 18 19h303q18 0 19 -19v-35q0 -16 -19 -16h-254v-154h121q111 0 169 -49t58 -139t-69 -153q-71 -62 -181 -62z" />
    <glyph glyph-name="six.num" horiz-adv-x="602" 
d="M308 870q68 0 110 41q41 41 41 105t-43 104q-42 39 -100 39t-101 -29t-59 -59q-2 -77 42 -139q42 -62 110 -62zM304 807q-102 0 -162 79t-60 180q0 237 243 361q45 25 73 34t36 -9l10 -22q12 -27 -12 -35q-86 -25 -163 -85t-109 -151q58 47 99 54q40 7 71 8q84 1 145 -53
t61 -145t-65 -153t-167 -63z" />
    <glyph glyph-name="seven.num" horiz-adv-x="550" 
d="M164 827q-29 0 -29 29l275 508h-330q-18 0 -19 18v33q0 18 19 19h403q18 0 19 -19v-33l-285 -536q-10 -18 -27 -19h-26z" />
    <glyph glyph-name="eight.num" horiz-adv-x="626" 
d="M313 870q68 0 110 33t42 82t-37 82t-115 37q-79 -4 -115 -37t-36 -82t42 -82t109 -33zM314 1389q-60 0 -98 -30t-38 -81q0 -103 135 -113q135 10 136 113q0 51 -38 81q-37 30 -97 30zM313 807q-102 0 -166 50q-63 50 -63 126q0 47 26 85t47 50q22 12 38 19v4
q-39 18 -66 58t-27 87q0 78 60 123t151 45t151 -45t60 -123q0 -47 -28 -87t-66 -58v-4q19 -6 52 -31q59 -43 60 -121t-63 -128t-166 -50z" />
    <glyph glyph-name="nine.num" horiz-adv-x="604" 
d="M145 1240q-1 -64 43 -103t101 -39t100 28t60 60q2 78 -42 139q-43 61 -111 61t-110 -40q-41 -42 -41 -106zM274 1036q-84 0 -145 54t-61 144q0 91 65 154q65 62 167 62t162 -79t60 -180t-39 -174q-58 -109 -203 -188q-46 -24 -74 -33t-36 9l-10 22q-12 27 12 35
q86 25 163 85t109 151q-57 -45 -98 -54q-41 -8 -72 -8z" />
    <glyph glyph-name="a.alt" horiz-adv-x="1126" 
d="M563 879q-160 0 -262 -119t-102 -287t99 -288q99 -119 246 -119t265 101q49 44 55 62v521q-38 51 -128 90q-89 39 -173 39zM954 915v-884q0 -11 -10 -21t-20 -10h-13q-33 0 -34 31l-7 84q-35 -41 -124 -89t-207 -49q-187 -1 -309 141t-122 353t126 353t316 142t320 -110
l11 64q6 27 30 26h15q10 0 19 -10t9 -21z" />
    <glyph glyph-name="agrave.alt" horiz-adv-x="1126" 
d="M563 879q-160 0 -262 -119t-102 -287t99 -288q99 -119 246 -119t265 101q49 44 55 62v521q-38 51 -128 90q-89 39 -173 39zM954 915v-884q0 -11 -10 -21t-20 -10h-13q-33 0 -34 31l-7 84q-35 -41 -124 -89t-207 -49q-187 -1 -309 141t-122 353t126 353t316 142t320 -110
l11 64q6 27 30 26h15q10 0 19 -10t9 -21zM754 1145l-353 162q-18 10 -8 30l21 41q10 18 35 6l335 -184q18 -10 13 -29l-11 -20q-7 -16 -32 -6z" />
    <glyph glyph-name="aacute.alt" horiz-adv-x="1126" 
d="M563 879q-160 0 -262 -119t-102 -287t99 -288q99 -119 246 -119t265 101q49 44 55 62v521q-38 51 -128 90q-89 39 -173 39zM954 915v-884q0 -11 -10 -21t-20 -10h-13q-33 0 -34 31l-7 84q-35 -41 -124 -89t-207 -49q-187 -1 -309 141t-122 353t126 353t316 142t320 -110
l11 64q6 27 30 26h15q10 0 19 -10t9 -21zM428 1143q-20 -8 -29 8l-12 27q-8 16 12 28l338 178q23 14 35 -6l21 -41q10 -23 -19 -37z" />
    <glyph glyph-name="acircumflex.alt" horiz-adv-x="1126" 
d="M563 879q-160 0 -262 -119t-102 -287t99 -288q99 -119 246 -119t265 101q49 44 55 62v521q-38 51 -128 90q-89 39 -173 39zM954 915v-884q0 -11 -10 -21t-20 -10h-13q-33 0 -34 31l-7 84q-35 -41 -124 -89t-207 -49q-187 -1 -309 141t-122 353t126 353t316 142t320 -110
l11 64q6 27 30 26h15q10 0 19 -10t9 -21zM580 1393q10 0 20 -11l248 -200q18 -14 8 -29l-18 -23q-12 -16 -31 -4l-232 172l-229 -172q-18 -12 -31 4l-18 23q-10 14 8 29l248 200q10 10 20 11h7z" />
    <glyph glyph-name="atilde.alt" horiz-adv-x="1126" 
d="M563 879q-160 0 -262 -119t-102 -287t99 -288q99 -119 246 -119t265 101q49 44 55 62v521q-38 51 -128 90q-89 39 -173 39zM954 915v-884q0 -11 -10 -21t-20 -10h-13q-33 0 -34 31l-7 84q-35 -41 -124 -89t-207 -49q-187 -1 -309 141t-122 353t126 353t316 142t320 -110
l11 64q6 27 30 26h15q10 0 19 -10t9 -21zM698 1214q76 0 117 121q8 27 31 15l22 -9q23 -11 -7 -80q-29 -68 -75 -95q-45 -28 -94 -28t-83 30t-50 65t-42 65t-56 29q-76 0 -117 -127q-6 -24 -31 -14l-24 10q-20 6 -13 29q49 125 117 159q35 16 79 16t79 -28t50 -64t40 -65
t57 -29z" />
    <glyph glyph-name="adieresis.alt" horiz-adv-x="1126" 
d="M563 879q-160 0 -262 -119t-102 -287t99 -288q99 -119 246 -119t265 101q49 44 55 62v521q-38 51 -128 90q-89 39 -173 39zM954 915v-884q0 -11 -10 -21t-20 -10h-13q-33 0 -34 31l-7 84q-35 -41 -124 -89t-207 -49q-187 -1 -309 141t-122 353t126 353t316 142t320 -110
l11 64q6 27 30 26h15q10 0 19 -10t9 -21zM384 1221q-30 0 -50 19t-20 49t20 50q20 21 50 21t49 -20t19 -51q0 -30 -18 -49q-20 -19 -50 -19zM775 1221q-30 0 -49 19t-19 49t19 50q19 21 49 21t50 -20q21 -20 21 -51q0 -30 -20 -49t-51 -19z" />
    <glyph glyph-name="amacron.alt" horiz-adv-x="1126" 
d="M563 879q-160 0 -262 -119t-102 -287t99 -288q99 -119 246 -119t265 101q49 44 55 62v521q-38 51 -128 90q-89 39 -173 39zM954 915v-884q0 -11 -10 -21t-20 -10h-13q-33 0 -34 31l-7 84q-35 -41 -124 -89t-207 -49q-187 -1 -309 141t-122 353t126 353t316 142t320 -110
l11 64q6 27 30 26h15q10 0 19 -10t9 -21zM301 1219q-27 0 -27 24v27q0 27 27 26h557q27 0 27 -26v-27q0 -25 -27 -24h-557z" />
    <glyph glyph-name="abreve.alt" horiz-adv-x="1126" 
d="M563 879q-160 0 -262 -119t-102 -287t99 -288q99 -119 246 -119t265 101q49 44 55 62v521q-38 51 -128 90q-89 39 -173 39zM954 915v-884q0 -11 -10 -21t-20 -10h-13q-33 0 -34 31l-7 84q-35 -41 -124 -89t-207 -49q-187 -1 -309 141t-122 353t126 353t316 142t320 -110
l11 64q6 27 30 26h15q10 0 19 -10t9 -21zM578 1102q-102 0 -178 64q-75 65 -91 161q-4 29 21 29h26q16 0 25 -23q15 -73 69 -117t126 -44t126 46t70 115q6 23 25 23h28q25 0 21 -29q-16 -97 -91 -161t-177 -64z" />
    <glyph glyph-name="aring.alt" horiz-adv-x="1126" 
d="M563 879q-160 0 -262 -119t-102 -287t99 -288q99 -119 246 -119t265 101q49 44 55 62v521q-38 51 -128 90q-89 39 -173 39zM954 915v-884q0 -11 -10 -21t-20 -10h-13q-33 0 -34 31l-7 84q-35 -41 -124 -89t-207 -49q-187 -1 -309 141t-122 353t126 353t316 142t320 -110
l11 64q6 27 30 26h15q10 0 19 -10t9 -21zM574 1106q60 0 106 45q45 45 45 106t-45 107q-46 46 -106 45q-60 0 -106 -45q-46 -44 -46 -106t46 -107t106 -45zM574 1040q-91 0 -154 62t-64 155q0 91 64 155t154 64t154 -62q64 -64 64 -156t-63 -156q-64 -62 -155 -62z" />
    <glyph glyph-name="aringacute.alt" horiz-adv-x="1126" 
d="M563 879q-160 0 -262 -119t-102 -287t99 -288q99 -119 246 -119t265 101q49 44 55 62v521q-38 51 -128 90q-89 39 -173 39zM954 915v-884q0 -11 -10 -21t-20 -10h-13q-33 0 -34 31l-7 84q-35 -41 -124 -89t-207 -49q-187 -1 -309 141t-122 353t126 353t316 142t320 -110
l11 64q6 27 30 26h15q10 0 19 -10t9 -21zM416 1430q-20 -8 -29 8l-12 26q-8 16 12 29l338 137q23 14 35 -6l20 -41q10 -23 -18 -37zM576 1106q64 0 108 33q43 33 43 92t-43 92q-44 33 -108 33t-108 -33t-44 -92t44 -92t108 -33zM577 1040q-95 0 -157 50t-62 141q0 90 62 141
t156 51q96 0 157 -51t61 -141q0 -91 -60 -141q-62 -50 -157 -50z" />
    <glyph glyph-name="aogonek.alt" horiz-adv-x="1126" 
d="M563 879q-160 0 -262 -119t-102 -287t99 -288q99 -119 246 -119t265 101q49 44 55 62v521q-38 51 -128 90q-89 39 -173 39zM954 915v-878q0 -25 -22 -35q-88 -39 -160 -116t-72 -181q0 -55 33 -88t97 -33t126 54q6 6 14 4t11 -13l4 -39q4 -25 -20 -36q-80 -50 -166 -50
t-137 56q-52 56 -52 156q0 102 82 186t185 129l-7 84q-35 -41 -124 -89t-207 -49q-187 -1 -309 141t-122 353t126 353t316 142t320 -110l11 64q6 27 30 26h15q10 0 19 -10t9 -21z" />
    <glyph glyph-name="parenleft.case" horiz-adv-x="669" 
d="M109 708q0 427 149 693q150 266 340 276q25 0 25 -18l2 -31q4 -25 -17 -24q-180 -25 -295 -278q-115 -252 -115 -618t115 -610q115 -243 295 -268q20 0 17 -25l-2 -30q0 -20 -25 -17q-193 8 -341 266t-148 684z" />
    <glyph glyph-name="parenright.case" horiz-adv-x="669" 
d="M471 708q0 366 -115 618t-295 278q-20 0 -16 24l2 31q0 18 25 18q190 -10 340 -276t150 -693t-149 -684q-148 -257 -341 -266q-25 -4 -25 17l-2 30q-4 25 16 25q180 24 295 268t115 610z" />
    <glyph glyph-name="hyphen.case" horiz-adv-x="808" 
d="M172 657q-25 0 -25 27v23q0 27 25 26h463q27 0 27 -26v-23q0 -27 -27 -27h-463z" />
    <glyph glyph-name="bracketleft.case" horiz-adv-x="677" 
d="M262 -160h338q27 0 27 -26v-31q0 -27 -27 -27h-399q-27 0 -27 27v1868q0 27 27 26h399q27 0 27 -26v-31q0 -27 -27 -27h-338v-1753z" />
    <glyph glyph-name="bracketright.case" horiz-adv-x="675" 
d="M78 -160h336v1753h-336q-27 0 -27 27v31q0 27 27 26h397q27 0 27 -26v-1868q0 -27 -27 -27h-397q-27 0 -27 27v31q0 26 27 26z" />
    <glyph glyph-name="braceleft.case" horiz-adv-x="755" 
d="M238 209v295q0 133 -150 182q-18 6 -18 19v32q0 12 18 19q150 49 150 182v287q0 273 136 374t308 101q29 0 29 -25v-24q0 -20 -21 -25q-365 -27 -364 -403v-285q0 -64 -35 -118t-60 -71t-45 -28v-2q19 -6 48 -30q89 -72 92 -185v-293q0 -375 364 -401q20 -4 21 -25v-25
q0 -25 -29 -24q-178 0 -301 94q-143 107 -143 379z" />
    <glyph glyph-name="bar.case" horiz-adv-x="407" 
d="M172 -317v1990q0 27 27 27h12q25 0 25 -27v-1990q0 -25 -27 -25h-10q-27 0 -27 25z" />
    <glyph glyph-name="braceright.case" horiz-adv-x="755" 
d="M518 504v-295q0 -270 -136 -373q-136 -102 -308 -100q-29 0 -29 24v25q0 20 21 25q365 27 364 401v293q0 84 45 138q26 35 57 55t37 22v2q-20 9 -45 27t-59 72q-35 54 -35 118v285q0 377 -364 403q-20 4 -21 25v24q0 25 29 25q169 0 307 -100q137 -100 137 -375v-287
q0 -133 150 -182q18 -6 18 -19v-32q0 -12 -18 -19q-150 -49 -150 -182z" />
    <glyph glyph-name="guilsinglleft.case" horiz-adv-x="536" 
d="M367 1022h32q11 0 15 -11t-4 -26l-193 -313l193 -322q8 -14 5 -25t-16 -12h-32q-21 1 -33 19l-221 321q-12 14 0 35l221 316q12 18 33 18z" />
    <glyph glyph-name="guilsinglright.case" horiz-adv-x="538" 
d="M137 313q-12 -1 -15 11t5 26l192 322l-192 313q-8 13 -5 25t15 12h33q20 0 33 -18l221 -316q12 -20 0 -35l-221 -321q-12 -18 -33 -19h-33z" />
    <glyph glyph-name="guillemotleft.case" horiz-adv-x="864" 
d="M367 1022h32q11 0 15 -11t-4 -26l-193 -313l193 -322q8 -14 5 -25t-16 -12h-32q-21 1 -33 19l-221 321q-12 14 0 35l221 316q12 18 33 18zM694 1022h33q12 0 15 -11t-5 -26l-192 -313l192 -322q8 -14 5 -25t-15 -12h-33q-20 0 -32 19l-222 321q-12 14 0 35l222 316
q12 18 32 18z" />
    <glyph glyph-name="guillemotright.case" horiz-adv-x="866" 
d="M137 313q-12 -1 -15 11t5 26l192 322l-192 313q-8 13 -5 25t15 12h33q20 0 33 -18l221 -316q12 -20 0 -35l-221 -321q-12 -18 -33 -19h-33zM465 1022h33q20 0 32 -18l222 -316q12 -20 0 -35l-222 -321q-12 -18 -32 -19h-33q-12 -1 -15 11t5 26l192 322l-192 313
q-8 13 -5 25t15 12z" />
    <glyph glyph-name="endash.case" horiz-adv-x="1138" 
d="M176 662q-27 0 -26 24v16q0 27 26 27h787q27 0 26 -27v-16q0 -25 -26 -24h-787z" />
    <glyph glyph-name="emdash.case" horiz-adv-x="1585" 
d="M176 662q-27 0 -26 24v16q0 27 26 27h1233q27 0 27 -27v-16q0 -25 -27 -24h-1233z" />
    <glyph glyph-name="bullet.case" horiz-adv-x="645" 
d="M174 647q0 61 43 105t104 45q61 0 105 -44q44 -43 45 -105q-1 -62 -45 -105t-105 -43t-104 43t-43 104z" />
    <glyph glyph-name="periodcentered.case" horiz-adv-x="458" 
d="M229 637q-35 0 -59 25q-24 24 -25 58q0 34 25 58q26 24 60 23q34 0 58 -24q24 -25 24 -59t-24 -58q-24 -23 -59 -23z" />
    <glyph glyph-name="gcircumflex.alt" horiz-adv-x="1105" 
d="M604 1393q10 0 21 -11l247 -200q18 -14 9 -29l-19 -23q-12 -16 -31 -4l-231 172l-229 -172q-18 -12 -31 4l-18 23q-10 14 8 29l248 200q10 10 20 11h6zM592 -424q168 0 278 62t111 176q0 166 -252 166h-297q-42 -4 -96 -27q-109 -45 -109 -150q1 -107 99 -167t266 -60z
M575 879q-135 0 -219 -73t-84 -193q0 -121 82 -199t221 -78q138 0 220 74t82 206t-84 197q-84 66 -218 66zM98 182q0 156 148 224q-63 74 -64 200q0 170 111 265t301 96h389q31 0 31 -29v-18q0 -23 -21 -31l-170 -10q51 -25 97 -93t47 -178q1 -160 -105 -259t-284 -99
q-94 0 -170 29t-111 61q-109 -37 -109 -152q0 -52 33 -80t70 -34t96 -6h342q164 0 253 -58t89 -201t-132 -231t-349 -88t-335 83t-118 210q0 92 45 142t103 67q-75 10 -131 53t-56 137z" />
    <glyph glyph-name="gbreve.alt" horiz-adv-x="1105" 
d="M592 1102q-102 0 -177 64t-91 161q-4 29 20 29h27q16 0 24 -23q15 -73 69 -117t126 -44t126 46t70 115q6 23 25 23h29q25 0 20 -29q-16 -97 -91 -161t-177 -64zM592 -424q168 0 278 62t111 176q0 166 -252 166h-297q-42 -4 -96 -27q-109 -45 -109 -150q1 -107 99 -167
t266 -60zM575 879q-135 0 -219 -73t-84 -193q0 -121 82 -199t221 -78q138 0 220 74t82 206t-84 197q-84 66 -218 66zM98 182q0 156 148 224q-63 74 -64 200q0 170 111 265t301 96h389q31 0 31 -29v-18q0 -23 -21 -31l-170 -10q51 -25 97 -93t47 -178q1 -160 -105 -259
t-284 -99q-94 0 -170 29t-111 61q-109 -37 -109 -152q0 -52 33 -80t70 -34t96 -6h342q164 0 253 -58t89 -201t-132 -231t-349 -88t-335 83t-118 210q0 92 45 142t103 67q-75 10 -131 53t-56 137z" />
    <glyph glyph-name="gdotaccent.alt" horiz-adv-x="1105" 
d="M520 1270q0 32 24 56t58 24t56 -24q24 -24 24 -56t-24 -56q-24 -22 -57 -22t-57 22t-24 56zM592 -424q168 0 278 62t111 176q0 166 -252 166h-297q-42 -4 -96 -27q-109 -45 -109 -150q1 -107 99 -167t266 -60zM575 879q-135 0 -219 -73t-84 -193q0 -121 82 -199t221 -78
q138 0 220 74t82 206t-84 197q-84 66 -218 66zM98 182q0 156 148 224q-63 74 -64 200q0 170 111 265t301 96h389q31 0 31 -29v-18q0 -23 -21 -31l-170 -10q51 -25 97 -93t47 -178q1 -160 -105 -259t-284 -99q-94 0 -170 29t-111 61q-109 -37 -109 -152q0 -52 33 -80t70 -34
t96 -6h342q164 0 253 -58t89 -201t-132 -231t-349 -88t-335 83t-118 210q0 92 45 142t103 67q-75 10 -131 53t-56 137z" />
    <glyph glyph-name="gcommaaccent.alt" horiz-adv-x="1105" 
d="M613 1298q33 0 53 -19t20 -51t-24 -54t-71 -21q-46 0 -77 42t-31 116q0 129 84 205q12 12 25 2l24 -21q14 -14 -2 -29q-57 -49 -57 -133q0 -37 10 -51q14 14 46 14zM592 -424q168 0 278 62t111 176q0 166 -252 166h-297q-42 -4 -96 -27q-109 -45 -109 -150
q1 -107 99 -167t266 -60zM575 879q-135 0 -219 -73t-84 -193q0 -121 82 -199t221 -78q138 0 220 74t82 206t-84 197q-84 66 -218 66zM98 182q0 156 148 224q-63 74 -64 200q0 170 111 265t301 96h389q31 0 31 -29v-18q0 -23 -21 -31l-170 -10q51 -25 97 -93t47 -178
q1 -160 -105 -259t-284 -99q-94 0 -170 29t-111 61q-109 -37 -109 -152q0 -52 33 -80t70 -34t96 -6h342q164 0 253 -58t89 -201t-132 -231t-349 -88t-335 83t-118 210q0 92 45 142t103 67q-75 10 -131 53t-56 137z" />
    </font>
</defs>
</svg>
